<svg width="196" height="196" viewBox="0 0 196 196" fill="none" xmlns="http://www.w3.org/2000/svg">
<circle cx="98" cy="98" r="97.5" stroke="#B96D70" stroke-dasharray="15 15"/>
<circle cx="98" cy="98" r="75" fill="#B96D70"/>
<path d="M75 86V122H117V86H75ZM75 80H117V74H75V80ZM120 128H72C71.2044 128 70.4413 127.684 69.8787 127.121C69.3161 126.559 69 125.796 69 125V71C69 70.2044 69.3161 69.4413 69.8787 68.8787C70.4413 68.3161 71.2044 68 72 68H120C120.796 68 121.559 68.3161 122.121 68.8787C122.684 69.4413 123 70.2044 123 71V125C123 125.796 122.684 126.559 122.121 127.121C121.559 127.684 120.796 128 120 128ZM81 92H93V104H81V92ZM81 110H111V116H81V110ZM99 95H111V101H99V95Z" fill="white"/>
</svg>
