<svg width="196" height="196" viewBox="0 0 196 196" fill="none" xmlns="http://www.w3.org/2000/svg">
<circle cx="98" cy="98" r="97.5" stroke="#B96D70" stroke-dasharray="15 15"/>
<circle cx="98" cy="98" r="75" fill="#B96D70"/>
<path d="M128.278 112.891L111.397 96.0096L116.172 91.2342L104.766 79.8279L99.9904 84.6034L83.1092 67.7221L68.7221 82.1092L85.6033 98.9904L71.125 113.469V124.875H82.5312L97.0096 110.397L113.891 127.278L128.278 112.891ZM89.9225 94.6713L77.33 82.1092L83.1092 76.33L86.9721 80.1929L83.3525 83.8125L87.6412 88.1013L91.2608 84.4817L95.6712 88.8921L89.9225 94.6713ZM101.329 106.078L107.108 100.298L111.518 104.709L107.899 108.328L112.187 112.617L115.807 108.998L119.67 112.86L113.891 118.64L101.329 106.078ZM108.03 76.5825L115.749 68.8597L127.149 80.2599L119.43 87.9826L108.03 76.5825Z" fill="white"/>
</svg>
