<svg width="196" height="196" viewBox="0 0 196 196" fill="none" xmlns="http://www.w3.org/2000/svg">
<circle cx="98" cy="98" r="97.5" stroke="#B96D70" stroke-dasharray="15 15"/>
<circle cx="98" cy="98" r="75" fill="#B96D70"/>
<path fill-rule="evenodd" clip-rule="evenodd" d="M115.605 79.6119L82.6831 96.075L80.7231 92.1594L113.645 75.7006L115.605 79.6119ZM113.645 120.299L80.7231 103.841L82.6875 99.925L115.609 116.388L113.649 120.299H113.645Z" fill="white"/>
<path fill-rule="evenodd" clip-rule="evenodd" d="M122.062 84.875C124.963 84.875 127.745 83.7227 129.796 81.6715C131.848 79.6203 133 76.8383 133 73.9375C133 71.0367 131.848 68.2547 129.796 66.2035C127.745 64.1523 124.963 63 122.062 63C119.162 63 116.38 64.1523 114.329 66.2035C112.277 68.2547 111.125 71.0367 111.125 73.9375C111.125 76.8383 112.277 79.6203 114.329 81.6715C116.38 83.7227 119.162 84.875 122.062 84.875ZM122.062 133C124.963 133 127.745 131.848 129.796 129.796C131.848 127.745 133 124.963 133 122.062C133 119.162 131.848 116.38 129.796 114.329C127.745 112.277 124.963 111.125 122.062 111.125C119.162 111.125 116.38 112.277 114.329 114.329C112.277 116.38 111.125 119.162 111.125 122.062C111.125 124.963 112.277 127.745 114.329 129.796C116.38 131.848 119.162 133 122.062 133ZM73.9375 108.938C76.8383 108.938 79.6203 107.785 81.6715 105.734C83.7227 103.683 84.875 100.901 84.875 98C84.875 95.0992 83.7227 92.3172 81.6715 90.266C79.6203 88.2148 76.8383 87.0625 73.9375 87.0625C71.0367 87.0625 68.2547 88.2148 66.2035 90.266C64.1523 92.3172 63 95.0992 63 98C63 100.901 64.1523 103.683 66.2035 105.734C68.2547 107.785 71.0367 108.938 73.9375 108.938Z" fill="white"/>
</svg>
