<svg width="130" height="127" viewBox="0 0 130 127" fill="none" xmlns="http://www.w3.org/2000/svg">
<path d="M102.832 63.7484C94.4318 63.7484 87.5977 70.4248 87.5977 78.6312C87.5977 86.8376 94.4318 93.514 102.832 93.514H124.414C124.5 93.514 124.584 93.5055 124.669 93.5013C124.754 93.5053 124.837 93.5137 124.922 93.5137C127.727 93.5137 130 91.2927 130 88.5528V49.6095C130 43.005 126.677 37.1474 121.582 33.5386L104.306 5.8516C103.602 4.72249 102.465 3.91485 101.148 3.60826C99.8314 3.30118 98.444 3.5207 97.2936 4.21771L84.5533 11.9359L78.8079 2.43724C78.117 1.29523 76.9872 0.47122 75.6702 0.148759C74.3534 -0.173701 72.9587 0.0329214 71.7986 0.721499L22.8792 29.7658H15.2344C12.4767 29.7658 10.2253 27.6073 10.1578 24.9289C10.2253 22.2505 12.4767 20.092 15.2344 20.092H24.6289C27.4336 20.092 29.707 17.8709 29.707 15.131C29.707 12.3911 27.4336 10.1701 24.6289 10.1701H15.2344C8.04934 10.1701 2.01068 15.0551 0.413867 21.6038C0.148281 22.2056 0 22.8678 0 23.5646V24.8048V25.0529V107.156C0 118.098 9.11219 127 20.3125 127H109.688C118.445 127 126.19 121.55 128.959 113.439C129.847 110.84 128.41 108.03 125.749 107.163C123.089 106.296 120.212 107.7 119.325 110.299C117.94 114.354 114.068 117.078 109.688 117.078H20.3125C14.7123 117.078 10.1562 112.627 10.1562 107.156V38.8366C11.7454 39.3872 13.4545 39.6876 15.2344 39.6876H109.688C115.288 39.6876 119.844 44.1386 119.844 49.6095V63.7484H102.832ZM119.844 83.5919H102.832C100.032 83.5921 97.7539 81.3666 97.7539 78.6309C97.7539 75.8955 100.032 73.67 102.832 73.67H119.844V83.5919ZM42.4348 29.766L72.6799 11.8092L78.0873 20.749C78.1912 20.9934 78.3105 21.2342 78.4578 21.4664C78.5682 21.6403 78.6906 21.8022 78.8183 21.958L83.541 29.766H42.4348V29.766ZM95.338 29.7658L89.7213 20.4799L98.2973 15.2846L107.333 29.7658H95.338Z" fill="#B96D70"/>
</svg>
