<svg width="143" height="127" viewBox="0 0 143 127" fill="none" xmlns="http://www.w3.org/2000/svg">
<path d="M47.5849 113.842C28.4372 112.767 13.1912 96.9566 13.1912 77.6744C13.1912 57.6982 29.5545 41.4461 49.6676 41.4461C58.6631 41.4461 67.3007 44.7241 73.9898 50.6761C81.7149 57.5382 86.1468 67.3796 86.1468 77.6742C86.1468 86.3076 83.0283 94.6211 77.4644 101.129C81.4105 103.668 85.941 105.185 90.6625 105.531C96.3447 97.3158 99.338 87.7305 99.338 77.6742C99.338 66.9002 95.9035 56.6668 89.4064 48.0803C84.2436 41.2549 77.3726 35.8517 69.5353 32.4538C65.1916 30.567 60.6498 29.3258 55.9716 28.7404C65.4275 21.8274 69.0434 16.0335 69.0434 10.98C69.0434 4.91587 64.0935 0 57.9873 0C54.6693 0 51.6952 1.45332 49.6687 3.75155C47.6422 1.45332 44.6679 0 41.3502 0C35.244 0 30.294 4.91587 30.294 10.98C30.294 16.0343 33.911 21.8291 43.3703 28.7434C18.946 31.8263 0 52.5944 0 77.6744C0 104.873 22.2806 127 49.6676 127C53.4541 127 57.1713 126.583 60.79 125.76C55.818 122.495 51.3527 118.476 47.5849 113.842V113.842Z" fill="#B96D70"/>
<path d="M92.7427 28.3491C88.9559 28.3491 85.2387 28.7663 81.62 29.5885C86.5919 32.8538 91.0572 36.8728 94.8254 41.5066C113.973 42.5825 129.219 58.3924 129.219 77.6744C129.219 97.6506 112.856 113.903 92.7429 113.903C83.7478 113.903 75.1098 110.625 68.4205 104.673C60.6954 97.8103 56.2634 87.9689 56.2634 77.6744C56.2634 69.0409 59.3819 60.7272 64.9459 54.2198C60.9997 51.6806 56.4693 50.1638 51.7478 49.8179C46.0653 58.0327 43.0723 67.6177 43.0723 77.6741C43.0723 88.4483 46.5065 98.6815 53.0042 107.268C58.1667 114.094 65.0377 119.497 72.8749 122.895C79.147 125.619 85.8305 127 92.7429 127C120.13 127 142.41 104.872 142.41 77.6741C142.41 50.4763 120.129 28.3491 92.7427 28.3491V28.3491Z" fill="#B96D70"/>
</svg>
