<svg width="128" height="127" viewBox="0 0 128 127" fill="none" xmlns="http://www.w3.org/2000/svg">
<path d="M109.25 66.5142H96.7205C95.0152 66.5142 93.3642 66.7454 91.793 67.1706C88.6935 61.1252 82.3655 56.9714 75.0738 56.9714H52.9263C45.6345 56.9714 39.3065 61.1252 36.207 67.1706C34.6358 66.7454 32.9847 66.5142 31.2795 66.5142H18.75C8.41125 66.5142 0 74.8598 0 85.1178V104.991C0 111.146 5.04675 116.153 11.25 116.153H116.75C122.953 116.153 128 111.146 128 104.991V85.1178C128 74.8598 119.589 66.5142 109.25 66.5142ZM34.1763 75.5754V108.712H11.25C9.18225 108.712 7.5 107.043 7.5 104.991V85.118C7.5 78.9632 12.5468 73.9559 18.75 73.9559H31.2795C32.2975 73.9559 33.2832 74.0931 34.2217 74.3458C34.1947 74.7529 34.1763 75.1621 34.1763 75.5754ZM86.3238 108.712H41.6763V75.5751C41.6763 69.4204 46.723 64.413 52.9263 64.413H75.0738C81.277 64.413 86.3238 69.4204 86.3238 75.5751V108.712ZM120.5 104.991C120.5 107.043 118.818 108.712 116.75 108.712H93.8238V75.5751C93.8238 75.1616 93.8053 74.7524 93.7783 74.3456C94.7168 74.0931 95.7025 73.9556 96.7205 73.9556H109.25C115.453 73.9556 120.5 78.963 120.5 85.1178V104.991Z" fill="#B96D70"/>
<path d="M25.015 31.3789C15.8277 31.3789 8.3535 38.7948 8.3535 47.9102C8.35325 57.0257 15.8277 64.4416 25.015 64.4416C34.202 64.4416 41.6765 57.0257 41.6765 47.9102C41.6765 38.7948 34.2022 31.3789 25.015 31.3789ZM25.0147 57.0002C19.963 57.0002 15.8532 52.9225 15.8532 47.9102C15.8532 42.898 19.963 38.8203 25.0147 38.8203C30.0665 38.8203 34.1763 42.898 34.1763 47.9102C34.1763 52.9225 30.0665 57.0002 25.0147 57.0002Z" fill="#B96D70"/>
<path d="M64 10.8469C51.726 10.8469 41.7405 20.7544 41.7405 32.9325C41.7405 45.1106 51.726 55.0181 64 55.0181C76.274 55.0181 86.2595 45.1106 86.2595 32.9325C86.2595 20.7546 76.274 10.8469 64 10.8469ZM64 47.5767C55.8615 47.5767 49.2405 41.0074 49.2405 32.9325C49.2405 24.8578 55.8615 18.2883 64 18.2883C72.1385 18.2883 78.7595 24.8575 78.7595 32.9325C78.7595 41.0074 72.1385 47.5767 64 47.5767Z" fill="#B96D70"/>
<path d="M102.985 31.3789C93.798 31.3789 86.3235 38.7948 86.3235 47.9102C86.3237 57.0257 93.798 64.4416 102.985 64.4416C112.172 64.4416 119.646 57.0257 119.646 47.9102C119.646 38.7948 112.172 31.3789 102.985 31.3789ZM102.985 57.0002C97.9335 57.0002 93.8235 52.9225 93.8235 47.9102C93.8237 42.898 97.9335 38.8203 102.985 38.8203C108.037 38.8203 112.146 42.898 112.146 47.9102C112.146 52.9225 108.037 57.0002 102.985 57.0002Z" fill="#B96D70"/>
</svg>
