<?xml version="1.0" encoding="UTF-8"?>
<!DOCTYPE svg PUBLIC "-//W3C//DTD SVG 1.1//EN" "http://www.w3.org/Graphics/SVG/1.1/DTD/svg11.dtd">
<!-- Creator: CorelDRAW X7 -->
<svg xmlns="http://www.w3.org/2000/svg" xml:space="preserve" width="8.46243in" height="6.13848in" version="1.1" style="shape-rendering:geometricPrecision; text-rendering:geometricPrecision; image-rendering:optimizeQuality; fill-rule:evenodd; clip-rule:evenodd"
viewBox="0 0 7151 5187"
 xmlns:xlink="http://www.w3.org/1999/xlink">
 <defs>
  <style type="text/css">
   <![CDATA[
    .fil0 {fill:#6C584C}
   ]]>
  </style>
 </defs>
 <g id="Layer_x0020_1">
  <metadata id="CorelCorpID_0Corel-Layer"/>
  <path class="fil0" d="M157 1920l0 -1713c0,-4 -3,-8 -7,-8 -4,0 -8,4 -8,8l0 1713c0,4 4,7 8,7 4,0 7,-3 7,-7z"/>
  <path class="fil0" d="M150 144c-10,0 -18,8 -18,18 0,10 8,18 18,18 10,0 17,-8 17,-18 0,-10 -7,-18 -17,-18z"/>
  <path class="fil0" d="M150 132c14,0 25,-11 25,-24 0,-14 -11,-25 -25,-25 -14,0 -25,11 -25,25 0,13 11,24 25,24z"/>
  <path class="fil0" d="M132 1964c0,10 8,18 18,18 10,0 17,-8 17,-18 0,-10 -7,-17 -17,-17 -10,0 -18,7 -18,17z"/>
  <path class="fil0" d="M150 2043c14,0 25,-11 25,-25 0,-14 -11,-25 -25,-25 -14,0 -25,11 -25,25 0,14 11,25 25,25z"/>
  <path class="fil0" d="M142 3268l0 1713c0,4 4,8 8,8 4,0 7,-4 7,-8l0 -1713c0,-4 -3,-7 -7,-7 -4,0 -8,3 -8,7z"/>
  <path class="fil0" d="M167 3224c0,-10 -7,-18 -17,-18 -10,0 -18,8 -18,18 0,10 8,17 18,17 10,0 17,-7 17,-17z"/>
  <path class="fil0" d="M150 3144c-14,0 -25,11 -25,25 0,14 11,25 25,25 14,0 25,-11 25,-25 0,-14 -11,-25 -25,-25z"/>
  <path class="fil0" d="M150 5043c10,0 17,-8 17,-17 0,-10 -7,-18 -17,-18 -10,0 -18,8 -18,18 0,9 8,17 18,17z"/>
  <path class="fil0" d="M150 5055c-14,0 -25,11 -25,25 0,13 11,25 25,25 14,0 25,-12 25,-25 0,-14 -11,-25 -25,-25z"/>
  <path class="fil0" d="M181 2625c-10,19 -21,38 -31,57 -10,-19 -21,-38 -31,-57 -20,-10 -39,-21 -57,-31 18,-10 37,-21 57,-32 10,-19 21,-38 31,-57 10,19 21,38 31,57 19,11 38,22 57,32 -19,10 -38,21 -57,31zm24 -87c-12,-21 -25,-41 -36,-60 -7,-11 -14,-23 -19,-34 -6,11 -12,23 -19,34 -11,19 -24,39 -36,60 -21,13 -41,26 -61,37 -11,7 -23,13 -34,19 11,5 23,12 34,18 20,12 40,24 61,37 12,21 25,41 36,60 7,12 13,23 19,34 5,-11 12,-22 19,-34 11,-19 24,-39 36,-60 21,-13 41,-25 60,-37 12,-6 23,-13 35,-18 -12,-6 -23,-12 -35,-19 -19,-11 -39,-24 -60,-37z"/>
  <path class="fil0" d="M150 3109c6,7 14,12 22,14 13,3 25,1 33,-3 16,-8 17,-20 18,-19 0,-1 -5,10 -20,14 -8,2 -18,2 -27,-2 -9,-4 -17,-13 -20,-25 -4,-12 -3,-27 2,-40 5,-13 15,-26 27,-38 12,-13 26,-25 40,-40 14,-15 28,-34 35,-57 6,-23 4,-49 -10,-68 -13,-18 -34,-28 -53,-26 -10,0 -19,4 -27,10 -6,5 -11,12 -14,18 -6,14 -6,27 -2,38 7,20 21,27 29,31 8,3 12,3 12,3 0,0 -3,-2 -9,-8 -6,-5 -14,-16 -15,-30 -1,-7 1,-15 6,-22 5,-7 12,-12 21,-11 8,0 19,7 25,16 6,9 8,24 3,39 -8,32 -39,57 -63,87 -5,6 -9,12 -13,18 -4,-6 -8,-12 -13,-18 -24,-30 -55,-55 -64,-87 -4,-15 -2,-30 4,-39 6,-9 17,-16 25,-16 9,-1 16,4 21,11 5,7 7,15 6,22 -1,14 -10,25 -15,30 -6,6 -10,8 -10,8 0,0 5,0 13,-3 7,-4 21,-11 29,-31 3,-11 4,-24 -2,-38 -3,-6 -8,-13 -15,-18 -7,-6 -16,-10 -26,-10 -20,-2 -40,8 -54,26 -14,19 -15,45 -9,68 6,23 21,42 35,57 14,15 28,27 40,40 12,12 21,25 26,38 6,13 6,28 3,40 -3,12 -11,21 -20,25 -10,4 -20,4 -27,2 -16,-4 -20,-15 -20,-14 0,-1 1,11 18,19 8,4 19,6 32,3 8,-2 16,-7 23,-14z"/>
  <path class="fil0" d="M103 2368c10,0 19,-4 26,-9 7,-6 12,-13 15,-19 6,-14 5,-27 2,-37 -8,-21 -22,-28 -29,-31 -8,-4 -13,-3 -13,-3 0,0 4,2 10,7 5,6 14,16 15,31 1,6 -1,15 -6,21 -5,7 -12,12 -21,11 -8,0 -19,-6 -25,-16 -6,-9 -8,-24 -4,-39 9,-32 40,-57 64,-87 5,-6 9,-12 13,-18 4,6 8,12 13,18 24,30 55,55 63,87 5,15 3,30 -3,39 -6,10 -17,16 -25,16 -9,1 -16,-4 -21,-11 -5,-6 -7,-15 -6,-21 1,-15 9,-25 15,-31 6,-5 9,-7 9,-7 0,0 -4,-1 -12,3 -8,3 -22,10 -29,31 -4,10 -4,23 2,37 3,6 8,13 14,19 8,5 17,9 27,9 19,2 40,-7 53,-26 14,-19 16,-44 10,-67 -7,-24 -21,-42 -35,-57 -14,-15 -28,-28 -40,-40 -12,-13 -22,-26 -27,-39 -5,-13 -6,-28 -2,-39 3,-12 11,-21 20,-25 9,-5 19,-5 27,-3 15,4 20,15 20,14 -1,1 -2,-11 -18,-19 -8,-4 -20,-6 -33,-3 -8,2 -16,7 -22,14 -7,-7 -15,-12 -23,-14 -13,-3 -24,-1 -32,3 -17,8 -18,20 -18,19 0,1 4,-10 20,-14 7,-2 17,-2 27,3 9,4 17,13 20,25 3,11 3,26 -3,39 -5,13 -14,26 -26,39 -12,12 -26,25 -40,40 -14,15 -29,33 -35,57 -6,23 -5,48 9,67 14,19 34,28 54,26z"/>
  <path class="fil0" d="M150 2772c-8,-21 -19,-38 -25,-45 -15,-16 -40,-26 -48,-17 -8,9 3,32 16,47 7,7 25,19 41,36 6,7 11,15 16,23 4,-8 10,-16 16,-23 16,-17 34,-29 41,-36 13,-15 24,-38 16,-47 -9,-9 -33,1 -48,17 -7,7 -17,24 -25,45z"/>
  <path class="fil0" d="M150 2415c8,21 18,38 25,45 15,16 39,26 48,17 8,-8 -3,-32 -16,-47 -7,-7 -25,-19 -41,-36 -6,-7 -12,-14 -16,-22 -5,8 -10,15 -16,22 -16,17 -34,29 -41,36 -13,15 -24,39 -16,47 8,9 33,-1 48,-17 6,-7 17,-24 25,-45z"/>
  <path class="fil0" d="M77 2521c-10,10 -25,26 -34,33 8,-6 31,-16 45,-23 6,-13 16,-36 23,-45 -7,10 -24,24 -34,35z"/>
  <path class="fil0" d="M43 2633c9,7 24,23 34,34 10,10 27,24 34,34 -7,-9 -17,-32 -23,-45 -14,-7 -37,-17 -45,-23z"/>
  <path class="fil0" d="M223 2667c10,-11 25,-27 34,-34 -9,6 -32,16 -45,23 -7,13 -17,36 -23,45 7,-10 23,-24 34,-34z"/>
  <path class="fil0" d="M257 2554c-9,-7 -24,-23 -34,-33 -11,-11 -27,-25 -34,-35 6,9 16,32 23,45 13,7 36,17 45,23z"/>
  <path class="fil0" d="M201 2405c10,3 22,1 23,-4 0,-5 -9,-10 -17,-13 -4,-1 -13,-3 -23,-7 -9,-4 -19,-11 -23,-17 3,5 9,15 18,24 7,8 17,15 22,17z"/>
  <path class="fil0" d="M99 2783c-10,-4 -23,-2 -23,3 0,5 9,10 17,13 3,1 13,3 22,7 10,4 20,11 24,17 -4,-5 -10,-15 -18,-23 -8,-9 -18,-16 -22,-17z"/>
  <path class="fil0" d="M99 2405c4,-2 14,-9 22,-17 8,-9 14,-19 18,-24 -4,6 -14,13 -24,17 -9,4 -19,6 -22,7 -8,3 -17,8 -17,13 0,5 13,7 23,4z"/>
  <path class="fil0" d="M201 2783c-5,1 -15,8 -22,17 -9,8 -15,18 -18,23 4,-6 14,-13 23,-17 10,-4 19,-6 23,-7 8,-3 17,-8 17,-13 -1,-5 -13,-7 -23,-3z"/>
  <path class="fil0" d="M7009 1920l0 -1713c0,-4 -4,-8 -8,-8 -4,0 -7,4 -7,8l0 1713c0,4 3,7 7,7 4,0 8,-3 8,-7z"/>
  <path class="fil0" d="M7001 144c-10,0 -17,8 -17,18 0,10 7,18 17,18 10,0 18,-8 18,-18 0,-10 -8,-18 -18,-18z"/>
  <path class="fil0" d="M7001 132c14,0 25,-11 25,-24 0,-14 -11,-25 -25,-25 -13,0 -25,11 -25,25 0,13 12,24 25,24z"/>
  <path class="fil0" d="M6984 1964c0,10 7,18 17,18 10,0 18,-8 18,-18 0,-10 -8,-17 -18,-17 -10,0 -17,7 -17,17z"/>
  <path class="fil0" d="M7001 2043c14,0 25,-11 25,-25 0,-14 -11,-25 -25,-25 -13,0 -25,11 -25,25 0,14 12,25 25,25z"/>
  <path class="fil0" d="M6994 3268l0 1713c0,4 3,8 7,8 4,0 8,-4 8,-8l0 -1713c0,-4 -4,-7 -8,-7 -4,0 -7,3 -7,7z"/>
  <path class="fil0" d="M7019 3224c0,-10 -8,-18 -18,-18 -10,0 -17,8 -17,18 0,10 7,17 17,17 10,0 18,-7 18,-17z"/>
  <path class="fil0" d="M7001 3144c-13,0 -25,11 -25,25 0,14 12,25 25,25 14,0 25,-11 25,-25 0,-14 -11,-25 -25,-25z"/>
  <path class="fil0" d="M7001 5043c10,0 18,-8 18,-17 0,-10 -8,-18 -18,-18 -10,0 -17,8 -17,18 0,9 7,17 17,17z"/>
  <path class="fil0" d="M7001 5055c-13,0 -25,11 -25,25 0,13 12,25 25,25 14,0 25,-12 25,-25 0,-14 -11,-25 -25,-25z"/>
  <path class="fil0" d="M7032 2625c-10,19 -21,38 -31,57 -10,-19 -21,-38 -31,-57 -19,-10 -38,-21 -57,-31 19,-10 38,-21 57,-32 10,-19 21,-38 31,-57 10,19 21,38 31,57 20,11 38,22 57,32 -19,10 -37,21 -57,31zm85 -50c-20,-11 -39,-24 -60,-37 -13,-21 -26,-41 -37,-60 -7,-11 -13,-23 -19,-34 -5,11 -12,23 -19,34 -11,19 -24,39 -36,60 -21,13 -41,26 -60,37 -12,7 -23,13 -35,19 12,5 23,12 35,18 19,12 39,24 60,37 12,21 25,41 36,60 7,12 14,23 19,34 6,-11 12,-22 19,-34 11,-19 24,-39 37,-60 21,-13 40,-25 60,-37 11,-6 23,-13 34,-18 -11,-6 -23,-12 -34,-19z"/>
  <path class="fil0" d="M7048 2819c-10,0 -19,4 -26,10 -7,5 -12,12 -15,18 -6,14 -5,27 -2,38 8,20 22,27 29,31 9,3 13,3 13,3 0,0 -4,-2 -10,-8 -5,-5 -14,-16 -15,-30 -1,-7 1,-15 6,-22 5,-7 12,-12 21,-11 9,0 20,7 25,16 6,9 8,24 4,39 -9,32 -40,57 -64,87 -5,6 -9,12 -13,18 -4,-6 -8,-12 -13,-18 -24,-30 -55,-55 -63,-87 -5,-15 -3,-30 3,-39 6,-9 17,-16 25,-16 9,-1 16,4 21,11 5,7 7,15 6,22 -1,14 -9,25 -15,30 -6,6 -9,8 -9,8 0,0 4,0 12,-3 8,-4 22,-11 29,-31 4,-11 4,-24 -2,-38 -3,-6 -7,-13 -15,-18 -6,-6 -16,-10 -26,-10 -19,-2 -40,8 -53,26 -14,19 -16,45 -10,68 7,23 21,42 35,57 14,15 29,27 40,40 12,12 22,25 27,38 5,13 6,28 2,40 -3,12 -11,21 -20,25 -9,4 -19,4 -27,2 -15,-4 -19,-15 -20,-14 1,-1 2,11 18,19 8,4 20,6 32,3 9,-2 17,-7 23,-14 7,7 15,12 23,14 13,3 24,1 32,-3 17,-8 18,-20 18,-19 0,-1 -4,10 -20,14 -7,2 -17,2 -27,-2 -9,-4 -17,-13 -20,-25 -3,-12 -3,-27 3,-40 5,-13 14,-26 26,-38 12,-13 26,-25 40,-40 14,-15 29,-34 35,-57 6,-23 5,-49 -9,-68 -14,-18 -34,-28 -54,-26z"/>
  <path class="fil0" d="M7001 2078c-6,-7 -14,-12 -23,-14 -12,-3 -24,-1 -32,3 -16,8 -17,20 -18,19 1,1 5,-10 20,-14 8,-2 18,-2 27,3 9,4 17,13 20,25 4,11 3,26 -2,39 -5,13 -15,26 -27,39 -11,12 -26,25 -40,40 -14,15 -28,33 -35,57 -6,23 -4,48 10,67 13,19 34,28 53,26 10,0 20,-4 26,-9 8,-6 12,-13 15,-19 6,-14 6,-27 2,-37 -7,-21 -21,-28 -29,-31 -8,-4 -12,-3 -12,-3 0,0 3,2 9,7 6,6 14,16 15,31 1,6 -1,15 -6,21 -5,7 -12,12 -21,11 -8,0 -19,-6 -25,-16 -6,-9 -8,-24 -3,-39 8,-32 39,-57 63,-87 5,-6 9,-12 13,-18 4,6 8,12 13,18 24,30 55,55 64,87 4,15 2,30 -4,39 -5,10 -16,16 -25,16 -9,1 -16,-4 -21,-11 -5,-6 -7,-15 -6,-21 1,-15 10,-25 15,-31 6,-5 10,-7 10,-7 0,0 -4,-1 -13,3 -7,3 -21,10 -29,31 -3,10 -4,23 2,37 3,6 8,13 15,19 7,5 16,9 26,9 20,2 40,-7 54,-26 14,-19 15,-44 9,-67 -6,-24 -21,-42 -35,-57 -14,-15 -28,-28 -40,-40 -12,-13 -21,-26 -26,-39 -6,-13 -6,-28 -3,-39 3,-12 11,-21 20,-25 10,-5 20,-5 27,-3 16,4 20,15 20,14 0,1 -1,-11 -18,-19 -8,-4 -19,-6 -32,-3 -8,2 -16,7 -23,14z"/>
  <path class="fil0" d="M7001 2772c-8,-21 -18,-38 -25,-45 -15,-16 -40,-26 -48,-17 -8,9 3,32 16,47 7,7 25,19 41,36 6,7 12,15 16,23 5,-8 10,-16 16,-23 16,-17 34,-29 41,-36 13,-15 24,-38 16,-47 -8,-9 -33,1 -48,17 -6,7 -17,24 -25,45z"/>
  <path class="fil0" d="M7001 2415c8,21 19,38 25,45 15,16 40,26 48,17 8,-8 -3,-32 -16,-47 -7,-7 -25,-19 -41,-36 -6,-7 -11,-14 -16,-22 -4,8 -10,15 -16,22 -16,17 -34,29 -41,36 -13,15 -24,39 -16,47 8,9 33,-1 48,-17 7,-7 17,-24 25,-45z"/>
  <path class="fil0" d="M6928 2521c-10,10 -25,26 -34,33 9,-6 32,-16 45,-23 7,-13 17,-36 23,-45 -7,10 -23,24 -34,35z"/>
  <path class="fil0" d="M6894 2633c9,7 24,23 34,34 11,10 27,24 34,34 -6,-9 -16,-32 -23,-45 -13,-7 -36,-17 -45,-23z"/>
  <path class="fil0" d="M7074 2667c10,-11 25,-27 34,-34 -8,6 -31,16 -45,23 -6,13 -16,36 -23,45 8,-10 24,-24 34,-34z"/>
  <path class="fil0" d="M7108 2554c-9,-7 -24,-23 -34,-33 -10,-11 -26,-25 -34,-35 7,9 17,32 23,45 14,7 37,17 45,23z"/>
  <path class="fil0" d="M7052 2405c10,3 22,1 23,-4 0,-5 -9,-10 -17,-13 -3,-1 -13,-3 -22,-7 -10,-4 -20,-11 -24,-17 4,5 10,15 18,24 8,8 18,15 22,17z"/>
  <path class="fil0" d="M6950 2783c-10,-4 -22,-2 -23,3 0,5 9,10 17,13 4,1 13,3 23,7 9,4 19,11 23,17 -3,-5 -9,-15 -17,-23 -9,-9 -18,-16 -23,-17z"/>
  <path class="fil0" d="M6950 2405c5,-2 14,-9 23,-17 8,-9 14,-19 17,-24 -4,6 -14,13 -23,17 -10,4 -19,6 -23,7 -8,3 -17,8 -17,13 1,5 13,7 23,4z"/>
  <path class="fil0" d="M7052 2783c-4,1 -14,8 -22,17 -8,8 -14,18 -18,23 4,-6 14,-13 24,-17 9,-4 19,-6 22,-7 8,-3 17,-8 17,-13 -1,-5 -13,-7 -23,-3z"/>
  <path class="fil0" d="M1749 5113c-36,-20 -56,-54 -53,-86 1,-32 21,-62 43,-79 23,-18 51,-27 76,-30 26,-4 49,-2 69,1 35,6 59,15 78,21 -7,-2 -14,-4 -22,-6 -23,-4 -54,-7 -91,1 -19,4 -39,10 -60,20 -20,11 -42,27 -55,54 -7,14 -8,30 -4,45 4,14 12,27 22,37 22,19 48,26 72,30 18,3 34,1 51,0 -2,1 -3,1 -4,2 -42,10 -87,10 -122,-10zm757 28c-22,-6 -57,-19 -91,-52 -34,-33 -67,-90 -64,-165 0,-37 11,-77 34,-114 23,-38 59,-73 106,-93 47,-20 101,-25 149,-13 49,12 92,40 118,79 27,38 36,86 26,127 -10,41 -39,75 -71,96 -32,20 -69,27 -100,23 -31,-4 -56,-22 -61,-44 -5,-22 4,-40 14,-48 9,-9 17,-8 17,-9 0,1 -8,-1 -19,7 -10,7 -23,26 -20,52 4,26 32,50 66,58 34,8 77,4 116,-17 39,-20 76,-57 93,-108 15,-51 7,-111 -24,-161 -30,-50 -83,-87 -142,-103 -59,-17 -125,-12 -183,13 -58,25 -102,69 -128,115 -26,47 -37,96 -35,140 1,37 10,67 22,95 -27,-17 -62,-31 -105,-33 -38,-3 -79,7 -118,22 -20,9 -40,21 -60,32 0,0 1,-1 1,-1 4,-5 6,-7 6,-7 0,0 -2,2 -6,6 -1,1 -4,3 -5,4 -17,10 -35,17 -51,27 -19,11 -37,21 -56,30 -32,8 -69,12 -108,4 -22,-4 -45,-12 -61,-27 -16,-15 -23,-39 -13,-58 9,-21 28,-35 46,-45 18,-10 36,-17 54,-21 34,-9 63,-9 85,-7 23,2 39,6 49,8 10,3 15,4 15,4 0,0 -4,-2 -13,-7 7,3 12,5 12,5 0,0 -7,-6 -24,-18 -17,-11 -43,-29 -86,-43 -22,-7 -48,-13 -79,-12 -30,1 -65,8 -99,30 -21,15 -39,39 -52,67 0,0 0,0 0,0 -2,-3 -4,-4 -6,-7 -8,-7 -15,-13 -23,-19 -5,-4 -8,-8 -13,-11 -7,-4 -13,-6 -19,-9 -11,-6 -18,-14 -30,-19 -57,-25 -131,-35 -199,-13 -34,10 -68,28 -92,57 -24,28 -37,67 -31,103 5,35 23,64 45,83 22,19 47,27 65,29 36,4 76,-7 103,-32 27,-26 39,-59 39,-88 1,-14 -2,-28 -6,-39 -4,-11 -10,-20 -18,-26 -7,-7 -15,-9 -20,-9 -5,1 -8,3 -8,5 0,4 6,9 8,19 2,5 3,12 2,19 0,8 -1,17 -4,25 -5,18 -16,36 -32,47 -15,12 -37,16 -56,14 -10,-1 -22,-4 -33,-13 -12,-8 -25,-22 -30,-41 -6,-19 -4,-42 9,-64 7,-13 17,-24 29,-34 0,4 0,8 2,11 12,15 42,11 63,2 11,-5 31,-22 58,-35 17,-8 35,-13 52,-16 -19,6 -34,18 -33,31 1,18 33,30 57,30 12,1 37,-7 66,-6 15,0 31,4 45,10 -16,4 -40,8 -65,18 -29,10 -55,27 -63,37 -18,21 -18,55 -2,62 17,8 40,-6 53,-21 6,-7 14,-29 30,-50 13,-20 33,-37 49,-45 2,1 4,3 5,4 -4,12 -11,22 -12,36 -3,25 4,53 18,77 14,24 35,43 60,57 51,30 111,27 160,13 50,-14 92,-40 129,-64 38,-25 73,-49 108,-66 35,-17 70,-28 103,-29 46,-2 85,12 115,29 17,30 38,52 59,68 44,32 83,38 107,40 12,1 21,0 27,0 5,-1 8,-1 8,-1 0,0 -3,0 -8,-1 -6,-1 -15,-3 -26,-6z"/>
  <path class="fil0" d="M2298 4989c0,0 -7,-15 -18,-35 -11,-20 -26,-45 -46,-67 -19,-23 -37,-35 -51,-42 -13,-7 -22,-8 -22,-8 0,0 -1,9 2,24 3,15 11,36 32,60 20,24 46,41 67,52 21,11 36,16 36,16z"/>
  <path class="fil0" d="M2264 5104c-19,34 -5,60 -5,60 0,0 31,0 50,-34 20,-34 16,-79 16,-79 0,0 -41,19 -61,53z"/>
  <path class="fil0" d="M2292 5036c0,0 -15,-4 -38,-4 -24,-1 -55,2 -84,14 -30,12 -46,28 -55,40 -9,12 -11,21 -11,21 0,0 8,3 23,2 15,0 35,-4 62,-15 27,-11 52,-25 71,-37 19,-12 32,-21 32,-21z"/>
  <path class="fil0" d="M2812 4985c2,2 7,2 9,-1 3,-3 3,-7 0,-9 -3,-3 -7,-3 -10,0 -2,3 -2,7 1,10z"/>
  <path class="fil0" d="M2839 4949c4,2 8,1 10,-3 2,-4 1,-9 -3,-10 -4,-2 -8,-1 -10,3 -2,3 -1,8 3,10z"/>
  <path class="fil0" d="M2867 4902c1,-5 -2,-9 -6,-10 -4,-1 -9,2 -10,6 -1,4 2,8 6,10 4,1 9,-2 10,-6z"/>
  <path class="fil0" d="M2865 4846c-5,0 -8,3 -8,8 -1,5 3,9 8,9 5,1 9,-3 9,-8 0,-6 -4,-10 -9,-9z"/>
  <path class="fil0" d="M2852 4811c1,5 6,8 11,7 5,-1 9,-6 7,-11 -1,-6 -6,-9 -11,-7 -5,1 -8,6 -7,11z"/>
  <path class="fil0" d="M2855 4761c-3,-5 -9,-7 -14,-4 -5,3 -7,9 -4,14 2,4 8,6 13,4 5,-2 8,-9 5,-14z"/>
  <path class="fil0" d="M2812 4735c4,4 10,5 15,1 5,-3 6,-10 2,-15 -4,-5 -11,-6 -16,-1 -4,4 -5,10 -1,15z"/>
  <path class="fil0" d="M2779 4689c-4,5 -3,12 1,16 5,3 12,3 16,-2 5,-5 4,-12 -1,-16 -5,-5 -13,-3 -16,2z"/>
  <path class="fil0" d="M2739 4664c-3,6 -1,13 5,16 5,3 13,2 16,-4 4,-6 2,-13 -4,-17 -6,-3 -14,-1 -17,5z"/>
  <path class="fil0" d="M2697 4645c-3,6 1,14 7,16 6,3 14,0 17,-6 3,-7 -1,-15 -7,-17 -7,-3 -15,0 -17,7z"/>
  <path class="fil0" d="M2652 4632c-1,7 3,14 10,16 7,2 14,-2 16,-9 3,-7 -2,-15 -9,-17 -8,-2 -15,3 -17,10z"/>
  <path class="fil0" d="M2606 4625c0,8 5,15 13,16 7,1 14,-4 15,-12 2,-8 -4,-15 -12,-16 -8,-1 -15,4 -16,12z"/>
  <path class="fil0" d="M2268 4911c0,4 3,7 7,7 4,0 7,-3 7,-6 0,-4 -3,-7 -7,-7 -3,0 -7,2 -7,6z"/>
  <path class="fil0" d="M2281 4858c-4,0 -8,2 -9,6 0,5 2,9 6,9 4,1 8,-2 9,-6 1,-4 -2,-8 -6,-9z"/>
  <path class="fil0" d="M2295 4814c-5,-2 -9,0 -11,5 -2,4 1,9 5,10 4,2 9,0 10,-5 2,-4 0,-8 -4,-10z"/>
  <path class="fil0" d="M2303 4776c-3,4 -1,10 3,12 5,2 10,0 12,-4 3,-4 1,-9 -3,-12 -4,-2 -10,-1 -12,4z"/>
  <path class="fil0" d="M2328 4736c-3,4 -2,10 2,13 4,3 10,3 13,-1 3,-5 3,-11 -1,-14 -5,-3 -11,-3 -14,2z"/>
  <path class="fil0" d="M2359 4715c4,4 10,4 14,0 4,-4 5,-10 1,-14 -4,-4 -11,-5 -15,-1 -4,4 -4,11 0,15z"/>
  <path class="fil0" d="M2393 4685c3,5 10,5 15,2 4,-3 6,-10 3,-15 -4,-5 -10,-6 -16,-3 -5,4 -6,11 -2,16z"/>
  <path class="fil0" d="M2431 4660c3,6 10,8 15,6 6,-3 8,-10 6,-16 -3,-6 -10,-8 -16,-5 -6,3 -8,10 -5,15z"/>
  <path class="fil0" d="M2472 4642c2,7 9,10 15,8 6,-2 10,-8 8,-15 -1,-6 -8,-10 -15,-8 -7,2 -10,9 -8,15z"/>
  <path class="fil0" d="M2516 4630c1,8 8,12 14,11 7,-1 12,-7 11,-15 -1,-7 -7,-12 -15,-11 -7,1 -12,9 -10,15z"/>
  <path class="fil0" d="M2560 4625c1,7 7,13 14,13 7,0 13,-6 14,-14 0,-7 -6,-13 -14,-13 -8,0 -14,6 -14,14z"/>
  <path class="fil0" d="M3008 5012c-21,19 -41,39 -46,50 -10,21 -7,52 10,58 17,7 40,-11 49,-30 5,-9 8,-34 14,-60 6,-26 15,-53 25,-68 -9,12 -31,30 -52,50z"/>
  <path class="fil0" d="M2913 5051c-28,13 -63,29 -98,47 -35,19 -58,34 -73,47 -15,12 -21,20 -21,20 0,0 10,4 30,4 19,0 50,-4 88,-24 38,-20 70,-49 89,-73 21,-24 30,-42 30,-42 0,0 -20,10 -45,21z"/>
  <path class="fil0" d="M3449 4914c-23,0 -40,11 -52,23 -25,25 -27,59 -16,78 11,19 27,24 36,26 9,1 13,-1 13,-1 0,0 -4,0 -12,-3 -8,-2 -21,-10 -28,-27 -7,-16 -2,-41 19,-60 10,-9 24,-17 40,-16 15,0 31,10 39,26 8,17 7,38 -1,55 -8,18 -22,32 -37,44 -31,23 -66,35 -97,40 -31,5 -57,2 -75,-1 -18,-4 -27,-7 -27,-7 0,0 9,4 27,10 17,5 44,10 76,8 33,-2 71,-12 107,-36 17,-12 34,-28 44,-50 10,-21 13,-48 2,-72 -11,-23 -35,-38 -58,-37z"/>
  <path class="fil0" d="M1847 5070c29,7 81,3 141,-28 30,-16 58,-32 85,-45 27,-13 53,-20 76,-24 23,-3 43,-3 57,-2 13,1 21,2 21,2 0,0 -7,-3 -21,-5 -13,-3 -33,-6 -58,-5 -24,1 -53,6 -82,18 -29,11 -58,27 -88,42 -57,30 -102,38 -130,37 -14,-1 -25,-3 -31,-4 -7,-2 -10,-3 -10,-3 0,0 3,3 8,6 7,3 16,8 32,11z"/>
  <path class="fil0" d="M1922 5020c33,-12 65,-31 84,-44 -17,11 -51,24 -85,31 -35,6 -68,6 -82,6 -28,2 -62,3 -63,10 -1,7 33,18 64,16 16,0 49,-6 82,-19z"/>
  <path class="fil0" d="M2400 4979c1,1 1,1 1,2 3,-9 8,-25 13,-42 6,-17 12,-36 18,-60 13,-48 53,-77 89,-78 14,0 16,-3 9,-9 -7,-5 -26,-11 -53,-7 -26,4 -61,20 -85,53 -25,34 -35,84 -18,127 8,18 13,24 14,25 1,0 -1,-6 -4,-16 -7,-20 -11,-59 0,-88 9,-28 31,-53 51,-66 19,-14 35,-18 35,-18 0,0 -16,6 -35,23 -19,16 -39,45 -45,78 5,-14 13,-24 20,-34 2,-2 2,-5 4,-6 0,-1 0,-1 0,-1 1,-1 2,-4 3,-5 10,-11 18,-16 18,-16 0,0 -10,7 -21,21 -1,2 -2,5 -4,7 -9,14 -18,34 -20,55 -2,26 5,45 10,55z"/>
  <path class="fil0" d="M1593 4851c25,33 37,100 30,45 -4,-32 -20,-59 -39,-78 -19,-19 -41,-30 -60,-35 -37,-11 -59,0 -38,7 26,11 47,35 62,72 16,37 48,51 62,59 0,-1 0,-1 0,-2 -1,-9 -5,-23 -15,-39 -8,-15 -20,-27 -31,-36 -5,-5 -9,-8 -12,-10 7,4 23,15 38,31 -12,-20 -28,-37 -42,-49 -13,-11 -23,-18 -23,-18 0,0 11,5 25,14 14,9 31,23 43,39z"/>
  <path class="fil0" d="M1672 4874c-8,16 -8,30 -6,38 1,0 1,0 1,1 5,-5 14,-12 23,-18 9,-8 18,-16 26,-31 18,-30 46,-46 72,-48 22,-1 3,-16 -33,-19 -18,-1 -42,2 -65,17 -23,15 -45,44 -44,80 2,14 4,20 5,20 1,1 1,-4 1,-11 0,-15 9,-42 23,-57 14,-16 34,-25 49,-29 16,-5 27,-5 27,-5 0,0 -11,2 -27,9 -15,7 -35,20 -47,39 9,-9 21,-16 30,-20 6,-2 7,-2 10,-3 -4,1 -8,3 -13,6 -11,6 -24,17 -32,31z"/>
  <path class="fil0" d="M1642 5110c5,-13 4,-23 1,-33 -3,-10 -8,-19 -11,-25 0,1 0,1 -1,1 -5,5 -12,13 -15,27 -3,12 -1,25 2,35 3,9 6,15 6,15 0,0 -3,-4 -6,-12 -3,-7 -6,-17 -7,-27 -4,17 -1,35 3,48 4,12 9,20 9,20 0,0 -6,-6 -12,-18 -7,-11 -12,-28 -11,-43 0,-34 39,-73 6,-42 -19,19 -23,46 -19,67 4,22 16,38 29,48 26,18 48,11 35,3 -16,-13 -20,-38 -9,-64z"/>
  <path class="fil0" d="M4053 4870c5,-2 36,-30 68,-35 22,-5 46,-2 63,3 17,5 28,11 28,11 0,0 -12,-5 -31,-7 -18,-3 -44,-3 -68,5 14,-1 29,0 41,1 11,2 18,5 18,5 0,0 -9,-4 -23,-4 -14,-1 -34,0 -50,6 -18,8 -30,18 -35,26 -1,0 -1,0 -1,1 -2,-1 -5,-2 -7,-2 -1,-4 -2,-7 -3,-10zm-75 157c-30,57 -81,93 -133,105 -52,13 -105,6 -145,-13 -41,-19 -70,-51 -85,-84 -15,-32 -14,-66 -3,-91 11,-26 30,-43 50,-50 20,-6 38,-5 51,-1 2,0 2,1 3,1 2,2 1,1 3,3 7,7 16,9 24,12 3,3 6,6 6,5 0,0 -2,-2 -3,-4 18,6 35,9 51,5 25,-6 43,-21 53,-35 9,-15 11,-29 10,-36 -1,-7 -5,-9 -9,-1 -13,19 -40,27 -71,18 -7,-2 -12,0 -18,0 21,-14 35,-30 41,-42 4,-8 6,-13 7,-17 1,-4 2,-6 2,-6 0,0 -1,2 -3,6 -1,3 -4,9 -8,15 -8,13 -24,31 -50,43 -2,1 -5,0 -7,1 0,0 -1,0 -2,0 -1,0 -1,1 -3,1 -24,8 -56,10 -83,-9 -32,-21 -55,-66 -43,-110 12,-43 57,-79 110,-84 53,-6 113,10 163,43 50,32 93,83 111,142 3,11 1,23 3,34 -25,1 -49,5 -69,14 -35,16 -59,43 -70,70 -12,27 -11,54 -3,73 8,20 20,32 30,40 22,15 35,12 34,13 1,-1 -12,-2 -29,-19 -7,-9 -15,-21 -19,-38 -4,-17 -2,-38 10,-58 11,-19 32,-38 60,-48 18,-6 38,-7 60,-6 -1,37 -8,75 -26,108zm-251 -150c5,4 10,9 20,11 13,3 29,0 39,-3 11,-4 18,-8 18,-8 0,0 -5,3 -14,7 -8,4 -20,8 -31,9 20,3 40,-1 55,-7 14,-6 22,-12 22,-12 0,0 -7,7 -19,15 -13,8 -31,15 -50,15 -15,0 -29,-6 -41,-11 -4,-3 -5,-5 -10,-8 -4,-2 -10,-3 -15,-4 9,0 17,-2 26,-4zm-183 158c-15,33 -45,65 -85,84 -41,19 -93,26 -145,13 -53,-12 -103,-48 -133,-105 -18,-33 -25,-71 -26,-108 22,-1 42,0 60,6 27,10 48,29 60,48 12,20 13,41 10,58 -4,17 -12,29 -20,38 -16,17 -29,18 -29,19 0,-1 13,2 35,-13 10,-8 22,-20 29,-40 8,-19 10,-46 -2,-73 -11,-27 -35,-54 -70,-70 -21,-9 -45,-13 -69,-14 1,-11 -1,-23 3,-34 18,-59 60,-110 110,-142 50,-33 110,-49 163,-43 53,5 99,41 111,84 12,44 -12,89 -43,110 -28,19 -59,17 -84,9 -1,0 -2,-1 -3,-1 0,0 -1,0 -2,0 -2,-1 -5,0 -6,-1 -27,-12 -42,-30 -51,-43 -4,-6 -6,-12 -8,-15 -1,-4 -2,-6 -2,-6 0,0 1,2 2,6 1,4 3,9 6,17 7,12 20,28 41,42 -5,0 -10,-2 -17,0 -31,9 -59,1 -71,-18 -5,-8 -8,-6 -10,1 -1,7 1,21 11,36 10,14 28,29 53,35 15,4 33,1 50,-5 0,2 -2,4 -2,4 0,1 3,-2 5,-5 9,-3 17,-5 24,-12 3,-2 2,-1 3,-3 2,0 2,-1 3,-1 14,-4 32,-5 52,1 19,7 39,24 50,50 11,25 12,59 -3,91zm-448 -153c-1,-1 -1,-1 -1,-1 -6,-8 -17,-18 -35,-26 -17,-6 -36,-7 -50,-6 -14,0 -24,4 -24,4 0,0 8,-3 19,-5 11,-1 26,-2 40,-1 -23,-8 -49,-8 -68,-5 -18,2 -30,7 -30,7 0,0 10,-6 28,-11 17,-5 41,-8 63,-3 32,5 63,33 67,35 0,3 -2,6 -2,10 -2,0 -5,1 -7,2zm346 3c-5,3 -6,5 -10,8 -11,5 -26,11 -41,11 -18,0 -37,-7 -49,-15 -13,-8 -19,-15 -19,-15 0,0 8,6 22,12 14,6 35,10 55,7 -12,-1 -24,-5 -32,-9 -8,-4 -13,-7 -13,-7 0,0 6,4 17,8 11,3 26,6 40,3 10,-2 14,-7 20,-11 8,2 17,4 26,4 -6,1 -11,2 -16,4zm1271 176c13,-27 19,-55 18,-82 -2,-55 -29,-105 -70,-129 -42,-25 -90,-21 -121,-2 -16,10 -29,24 -35,38 -7,15 -9,29 -9,42 1,26 11,44 20,54 5,5 8,8 11,10 3,2 4,3 4,3 0,0 -1,-1 -3,-4 -3,-2 -6,-5 -10,-11 -8,-10 -15,-28 -13,-52 1,-23 14,-52 43,-65 27,-14 68,-13 98,9 31,21 50,63 49,107 -1,43 -24,89 -66,105 -43,17 -97,13 -148,-2 -51,-15 -101,-43 -150,-73 -49,-31 -96,-61 -142,-84 -42,-21 -84,-36 -124,-43 8,1 19,2 33,1 15,0 30,-2 49,-10 36,-16 71,-13 94,6 8,7 12,4 10,-3 -2,-8 -9,-22 -25,-35 -17,-13 -42,-24 -72,-24 -27,-1 -56,10 -80,30 2,-2 3,-3 5,-5 7,-11 13,-25 17,-45 3,-19 1,-44 -11,-70 -12,-26 -31,-47 -53,-60 -21,-14 -44,-20 -63,-22 -20,-2 -36,0 -46,2 -11,2 -17,4 -17,4 0,0 6,-1 17,-1 11,0 26,1 44,5 18,5 38,13 55,27 18,13 34,32 44,54 20,44 11,81 4,101 -4,10 -8,18 -11,22 -1,3 -1,3 -2,4 -1,2 -3,5 -4,6 -2,-14 -4,-27 -8,-40 -24,-72 -76,-129 -135,-165 -60,-35 -128,-51 -192,-40 -64,9 -119,56 -131,113 -6,29 0,57 12,79 11,22 29,40 48,51 9,5 19,9 28,11 -6,0 -11,-1 -17,1 -25,4 -53,22 -69,53 -5,9 -7,20 -10,31 -2,-11 -4,-22 -9,-31 -17,-31 -44,-49 -69,-53 -6,-2 -12,-1 -18,-1 10,-2 19,-6 29,-11 19,-11 36,-29 48,-51 11,-22 17,-50 11,-79 -12,-57 -66,-104 -130,-113 -64,-11 -132,5 -192,40 -59,36 -111,93 -135,165 -4,13 -6,26 -9,40 0,-1 -2,-4 -4,-6 0,-1 -1,-1 -2,-4 -2,-4 -6,-12 -10,-22 -7,-20 -17,-57 3,-101 10,-22 26,-41 44,-54 18,-14 38,-22 56,-27 17,-4 33,-5 44,-5 10,0 17,1 17,1 0,0 -6,-2 -17,-4 -11,-2 -27,-4 -46,-2 -19,2 -42,8 -64,22 -21,13 -41,34 -53,60 -11,26 -13,51 -10,70 3,20 10,34 17,45 1,2 2,3 4,5 -23,-20 -53,-31 -79,-30 -30,0 -56,11 -72,24 -16,13 -24,27 -25,35 -2,7 2,10 10,3 22,-19 57,-22 94,-6 18,8 34,10 49,10 13,1 25,0 33,-1 -41,7 -82,22 -124,43 -47,23 -93,53 -142,84 -50,30 -99,58 -150,73 -51,15 -106,19 -148,2 -43,-16 -65,-62 -67,-105 -1,-44 19,-86 49,-107 31,-22 71,-23 99,-9 29,13 42,42 43,65 2,24 -6,42 -13,52 -4,6 -7,9 -10,11 -3,3 -4,4 -4,4 0,0 2,-1 4,-3 3,-2 7,-5 11,-10 9,-10 20,-28 20,-54 1,-13 -2,-27 -8,-42 -7,-14 -19,-28 -35,-38 -32,-19 -79,-23 -121,2 -41,24 -69,74 -70,129 -1,27 4,55 18,82 13,26 37,50 66,63 28,13 59,19 89,18 30,1 61,-3 90,-12 59,-16 113,-45 164,-77 51,-31 95,-61 138,-84 35,-19 68,-32 100,-40 -12,20 -27,49 -33,85 -8,42 3,87 12,104 10,16 25,31 40,38 15,7 28,7 34,0 6,-7 4,-19 0,-32 -4,-13 -10,-26 -16,-38 -7,-12 -27,-36 -37,-71 -9,-29 -5,-63 4,-87 1,-1 3,-2 5,-2 1,44 12,87 33,126 36,70 102,116 167,129 65,14 128,3 177,-23 49,-26 82,-67 98,-109 2,-6 1,-11 2,-17 2,6 1,11 3,17 15,42 49,83 98,109 48,26 111,37 176,23 65,-13 132,-59 168,-129 21,-39 31,-82 33,-126 2,0 3,1 5,2 9,24 12,58 3,87 -9,35 -30,59 -36,71 -7,12 -12,25 -16,38 -4,13 -6,25 0,32 6,7 19,7 34,0 14,-7 30,-22 39,-38 10,-17 20,-62 12,-104 -5,-36 -20,-65 -32,-85 32,8 65,21 100,40 42,23 87,53 138,84 50,32 104,61 163,77 30,9 60,13 91,12 30,1 61,-5 89,-18 29,-13 52,-37 66,-63z"/>
  <path class="fil0" d="M4897 4973c20,-11 46,-28 67,-52 21,-24 29,-45 32,-60 3,-15 1,-24 1,-24 0,0 -9,1 -22,8 -13,7 -31,19 -50,42 -20,22 -35,47 -47,67 -11,20 -17,35 -17,35 0,0 15,-5 36,-16z"/>
  <path class="fil0" d="M4833 5051c0,0 -4,45 16,79 20,34 50,34 50,34 0,0 15,-26 -5,-60 -19,-34 -61,-53 -61,-53z"/>
  <path class="fil0" d="M4989 5046c-29,-12 -61,-15 -84,-14 -23,0 -39,4 -39,4 0,0 13,9 32,21 20,12 45,26 71,37 27,11 48,15 63,15 14,1 23,-2 23,-2 0,0 -2,-9 -11,-21 -9,-12 -26,-28 -55,-40z"/>
  <path class="fil0" d="M4338 4975c-3,2 -3,6 -1,9 3,3 7,3 10,1 3,-3 3,-7 0,-10 -2,-3 -6,-3 -9,0z"/>
  <path class="fil0" d="M4323 4939c-2,-4 -7,-5 -10,-3 -4,1 -6,6 -4,10 2,4 7,5 11,3 3,-2 5,-7 3,-10z"/>
  <path class="fil0" d="M4307 4898c-1,-4 -5,-7 -9,-6 -5,1 -8,5 -7,10 2,4 6,7 11,6 4,-2 7,-6 5,-10z"/>
  <path class="fil0" d="M4294 4863c5,0 8,-4 8,-9 0,-5 -4,-8 -9,-8 -5,-1 -9,3 -9,9 0,5 5,9 10,8z"/>
  <path class="fil0" d="M4296 4818c5,1 10,-2 11,-7 1,-5 -2,-10 -7,-11 -5,-2 -11,1 -12,7 -1,5 3,10 8,11z"/>
  <path class="fil0" d="M4322 4771c2,-5 1,-11 -4,-14 -5,-3 -12,-1 -14,4 -3,5 0,12 5,14 5,2 10,0 13,-4z"/>
  <path class="fil0" d="M4330 4721c-4,5 -3,12 2,15 4,4 11,3 15,-1 3,-5 3,-11 -2,-15 -4,-5 -11,-4 -15,1z"/>
  <path class="fil0" d="M4378 4705c5,-4 6,-11 2,-16 -4,-5 -11,-7 -16,-2 -5,4 -6,11 -2,16 5,5 12,5 16,2z"/>
  <path class="fil0" d="M4415 4680c5,-3 7,-10 4,-16 -3,-6 -10,-8 -16,-5 -7,4 -8,11 -5,17 4,6 11,7 17,4z"/>
  <path class="fil0" d="M4455 4661c6,-2 9,-10 7,-16 -3,-7 -10,-10 -17,-7 -7,2 -10,10 -7,17 3,6 10,9 17,6z"/>
  <path class="fil0" d="M4497 4648c7,-2 11,-9 10,-16 -2,-7 -10,-12 -17,-10 -8,2 -12,10 -10,17 3,7 10,11 17,9z"/>
  <path class="fil0" d="M4540 4641c8,-1 13,-8 13,-16 -1,-8 -8,-13 -16,-12 -8,1 -14,8 -13,16 2,8 9,13 16,12z"/>
  <path class="fil0" d="M4877 4912c0,3 3,6 7,6 3,0 6,-3 6,-7 0,-4 -3,-6 -7,-6 -4,0 -6,3 -6,7z"/>
  <path class="fil0" d="M4880 4873c4,0 7,-4 6,-9 0,-4 -4,-6 -8,-6 -4,1 -7,5 -7,9 1,4 5,7 9,6z"/>
  <path class="fil0" d="M4870 4829c4,-1 6,-6 5,-10 -2,-5 -7,-7 -11,-5 -4,2 -6,6 -5,10 2,5 6,7 11,5z"/>
  <path class="fil0" d="M4852 4788c5,-2 6,-8 4,-12 -3,-5 -8,-6 -12,-4 -5,3 -6,8 -4,12 3,4 8,6 12,4z"/>
  <path class="fil0" d="M4829 4749c4,-3 5,-9 1,-13 -3,-5 -9,-5 -13,-2 -4,3 -5,9 -2,14 3,4 9,4 14,1z"/>
  <path class="fil0" d="M4785 4715c4,4 11,4 14,0 5,-4 5,-11 0,-15 -4,-4 -10,-3 -14,1 -4,4 -4,10 0,14z"/>
  <path class="fil0" d="M4751 4687c5,3 11,3 15,-2 3,-5 2,-12 -3,-16 -5,-3 -12,-2 -15,3 -3,5 -2,12 3,15z"/>
  <path class="fil0" d="M4713 4666c5,2 12,0 15,-6 3,-5 1,-12 -6,-15 -5,-3 -12,-1 -15,5 -2,6 0,13 6,16z"/>
  <path class="fil0" d="M4671 4650c6,2 13,-1 16,-8 2,-6 -2,-13 -9,-15 -6,-2 -13,2 -15,8 -1,7 2,13 8,15z"/>
  <path class="fil0" d="M4628 4641c7,1 14,-3 15,-11 1,-6 -3,-14 -11,-15 -7,-1 -14,4 -15,11 0,8 5,14 11,15z"/>
  <path class="fil0" d="M4584 4638c7,0 14,-6 14,-13 1,-8 -5,-14 -13,-14 -8,0 -14,6 -14,13 0,8 6,14 13,14z"/>
  <path class="fil0" d="M4151 5012c-21,-20 -44,-38 -53,-50 11,15 19,42 25,68 6,26 10,51 14,60 9,19 32,37 49,30 17,-6 20,-37 10,-58 -5,-11 -24,-31 -45,-50z"/>
  <path class="fil0" d="M4417 5145c-15,-13 -38,-28 -73,-47 -35,-18 -71,-34 -98,-47 -25,-11 -46,-21 -46,-21 0,0 10,18 30,42 20,24 51,53 89,73 39,20 69,24 89,24 20,0 29,-4 29,-4 0,0 -6,-8 -20,-20z"/>
  <path class="fil0" d="M3805 5099c-30,-5 -66,-17 -97,-40 -15,-12 -29,-26 -36,-44 -8,-17 -9,-38 -1,-55 8,-16 24,-26 39,-26 15,-1 30,7 40,16 21,19 25,44 18,60 -6,17 -19,25 -27,27 -8,3 -13,3 -13,3 0,0 4,2 14,1 9,-2 25,-7 36,-26 11,-19 9,-53 -16,-78 -12,-12 -30,-23 -52,-23 -23,-1 -47,14 -58,37 -12,24 -8,51 2,72 10,22 27,38 44,50 35,24 74,34 106,36 33,2 59,-3 77,-8 18,-6 27,-10 27,-10 0,0 -10,3 -28,7 -18,3 -44,6 -75,1z"/>
  <path class="fil0" d="M5010 4973c23,4 49,11 76,24 27,13 55,29 85,45 60,31 111,35 141,28 15,-3 25,-8 31,-11 6,-4 9,-6 9,-6 0,0 -4,1 -10,3 -7,1 -17,3 -31,4 -29,1 -73,-7 -131,-37 -29,-15 -58,-31 -87,-42 -29,-12 -58,-17 -82,-18 -25,-1 -45,2 -58,5 -14,2 -22,5 -22,5 0,0 8,-1 22,-2 14,-1 33,-1 57,2z"/>
  <path class="fil0" d="M5383 5023c-2,-7 -36,-8 -64,-10 -14,0 -47,0 -81,-6 -34,-7 -69,-20 -86,-31 20,13 52,32 85,44 32,13 66,19 81,19 31,2 66,-9 65,-16z"/>
  <path class="fil0" d="M5409 5113c-35,20 -79,20 -121,10 -1,-1 -3,-1 -4,-2 16,1 33,3 50,0 24,-4 51,-11 72,-30 11,-10 19,-23 23,-37 4,-15 2,-31 -4,-45 -13,-27 -35,-43 -56,-54 -20,-10 -40,-16 -59,-20 -37,-8 -68,-5 -91,-1 -9,2 -16,4 -22,6 19,-6 43,-15 77,-21 21,-3 44,-5 69,-1 26,3 53,12 77,30 22,17 41,47 43,79 2,32 -18,66 -54,86zm379 -212c-69,-22 -143,-12 -199,13 -12,5 -20,13 -30,19 -7,3 -13,5 -19,9 -5,3 -8,7 -13,11 -9,6 -16,12 -23,19 -2,3 -4,4 -6,6 0,1 0,1 -1,1 -12,-28 -30,-52 -52,-67 -33,-22 -69,-29 -99,-30 -30,-1 -56,5 -78,12 -43,14 -70,32 -87,43 -17,12 -24,18 -24,18 0,0 5,-2 13,-5 -9,5 -14,7 -14,7 0,0 6,-1 15,-4 11,-2 27,-6 49,-8 23,-2 52,-2 86,7 17,4 36,11 54,21 18,10 36,24 46,45 9,19 3,43 -14,58 -16,15 -38,23 -61,27 -38,8 -75,4 -107,-4 -19,-9 -38,-19 -56,-30 -17,-10 -34,-17 -51,-27 -2,-1 -4,-3 -5,-4 -4,-4 -7,-6 -7,-6 0,0 2,2 6,7 0,0 1,1 2,1 -20,-11 -40,-23 -61,-32 -39,-15 -79,-25 -117,-22 -43,2 -78,16 -106,33 13,-28 22,-58 23,-95 2,-44 -9,-93 -36,-140 -26,-46 -69,-90 -127,-115 -58,-25 -124,-30 -183,-13 -59,16 -112,53 -143,103 -30,50 -39,110 -23,161 17,51 53,88 92,108 40,21 82,25 117,17 34,-8 62,-32 65,-58 4,-26 -9,-45 -20,-52 -10,-8 -18,-6 -18,-7 0,1 8,0 17,9 9,8 19,26 13,48 -5,22 -30,40 -60,44 -32,4 -68,-3 -101,-23 -32,-21 -60,-55 -71,-96 -9,-41 0,-89 26,-127 26,-39 70,-67 118,-79 49,-12 103,-7 150,13 47,20 82,55 105,93 23,37 34,77 35,114 2,75 -30,132 -64,165 -35,33 -70,46 -92,52 -11,3 -19,5 -25,6 -6,1 -9,1 -9,1 0,0 3,0 9,1 6,0 15,1 27,0 24,-2 63,-8 107,-40 20,-16 42,-38 59,-68 30,-17 69,-31 115,-29 33,1 68,12 103,29 35,17 69,41 107,66 38,24 80,50 130,64 49,14 109,17 160,-13 25,-14 46,-33 60,-57 14,-24 20,-52 18,-77 -2,-14 -8,-24 -13,-36 2,-1 3,-3 5,-4 17,8 37,25 50,45 16,21 24,43 30,50 12,15 36,29 53,21 16,-7 15,-41 -2,-62 -8,-10 -34,-27 -63,-37 -25,-10 -50,-14 -66,-18 14,-6 30,-10 46,-10 28,-1 54,7 66,6 24,0 55,-12 57,-30 1,-13 -14,-25 -33,-31 17,3 35,8 51,16 27,13 48,30 58,35 21,9 52,13 63,-2 2,-3 3,-7 3,-11 12,10 22,21 29,34 13,22 15,45 9,64 -6,19 -18,33 -30,41 -12,9 -24,12 -34,13 -19,2 -40,-2 -55,-14 -16,-11 -28,-29 -33,-47 -2,-8 -4,-17 -4,-25 0,-7 1,-14 2,-19 3,-10 9,-15 9,-19 -1,-2 -3,-4 -9,-5 -5,0 -13,2 -20,9 -7,6 -13,15 -18,26 -4,11 -6,25 -6,39 0,29 12,62 39,88 28,25 68,36 104,32 18,-2 42,-10 65,-29 22,-19 40,-48 45,-83 5,-36 -7,-75 -31,-103 -24,-29 -58,-47 -92,-57z"/>
  <path class="fil0" d="M4771 4990c1,-1 6,-7 13,-25 17,-43 7,-93 -17,-127 -25,-33 -60,-49 -86,-53 -27,-4 -45,2 -52,7 -8,6 -5,9 9,9 36,1 76,30 88,78 6,24 12,43 18,60 6,17 11,33 13,42 1,-1 1,-1 1,-2 6,-10 13,-29 11,-55 -2,-21 -11,-40 -21,-55 -1,-2 -2,-5 -4,-7 -11,-14 -21,-21 -21,-21 0,0 9,5 18,16 1,1 2,4 3,5 1,0 1,0 1,1 1,1 2,4 3,6 8,10 16,20 20,34 -5,-33 -25,-62 -44,-78 -19,-17 -35,-23 -35,-23 0,0 16,4 35,18 20,13 42,38 51,66 10,29 6,68 0,88 -3,10 -6,16 -4,16z"/>
  <path class="fil0" d="M5566 4851c12,-16 29,-30 43,-39 14,-9 25,-14 25,-14 0,0 -10,7 -24,18 -13,12 -30,29 -41,49 15,-16 31,-27 38,-31 -3,2 -8,5 -13,10 -10,9 -22,21 -31,36 -9,16 -13,30 -14,39 0,1 0,1 0,2 14,-8 46,-22 61,-59 16,-37 36,-61 63,-72 21,-7 -1,-18 -39,-7 -18,5 -40,16 -59,35 -19,19 -35,46 -40,78 -6,55 5,-12 31,-45z"/>
  <path class="fil0" d="M5370 4816c27,2 55,18 72,48 9,15 17,23 27,31 9,6 18,13 23,18 0,-1 0,-1 0,-1 3,-8 3,-22 -5,-38 -8,-14 -21,-25 -32,-31 -5,-3 -10,-5 -13,-6 3,1 4,1 9,3 9,4 21,11 31,20 -13,-19 -32,-32 -48,-39 -15,-7 -26,-9 -26,-9 0,0 11,0 26,5 16,4 36,13 49,29 15,15 23,42 23,57 1,7 0,12 1,11 1,0 4,-6 5,-20 2,-36 -20,-65 -43,-80 -24,-15 -48,-18 -66,-17 -36,3 -54,18 -33,19z"/>
  <path class="fil0" d="M5559 5098c1,15 -5,32 -11,43 -6,12 -13,18 -13,18 0,0 5,-8 9,-20 5,-13 7,-31 4,-48 -1,10 -4,20 -7,27 -4,8 -6,12 -6,12 0,0 3,-6 6,-15 3,-10 5,-23 2,-35 -4,-14 -10,-22 -16,-27 0,0 0,0 -1,-1 -2,6 -7,15 -10,25 -3,10 -4,20 1,33 11,26 7,51 -9,64 -13,8 9,15 35,-3 12,-10 25,-26 29,-48 4,-21 -1,-48 -19,-67 -34,-31 6,8 6,42z"/>
  <path class="fil0" d="M314 5081c-4,0 -7,3 -7,7 0,5 3,8 7,8l789 0c4,0 7,-3 7,-8 0,-4 -3,-7 -7,-7l-789 0z"/>
  <path class="fil0" d="M269 5071c-9,0 -17,8 -17,17 0,10 8,18 17,18 10,0 18,-8 18,-18 0,-9 -8,-17 -18,-17z"/>
  <path class="fil0" d="M215 5063c-14,0 -25,12 -25,25 0,14 11,25 25,25 14,0 25,-11 25,-25 0,-13 -11,-25 -25,-25z"/>
  <path class="fil0" d="M1148 5071c-10,0 -18,8 -18,17 0,10 8,18 18,18 9,0 17,-8 17,-18 0,-9 -8,-17 -17,-17z"/>
  <path class="fil0" d="M1202 5063c-14,0 -25,12 -25,25 0,14 11,25 25,25 13,0 24,-11 24,-25 0,-13 -11,-25 -24,-25z"/>
  <path class="fil0" d="M6049 5081c-4,0 -8,3 -8,7 0,5 4,8 8,8l789 0c4,0 7,-3 7,-8 0,-4 -3,-7 -7,-7l-789 0z"/>
  <path class="fil0" d="M6004 5071c-10,0 -18,8 -18,17 0,10 8,18 18,18 10,0 18,-8 18,-18 0,-9 -8,-17 -18,-17z"/>
  <path class="fil0" d="M5949 5063c-13,0 -24,12 -24,25 0,14 11,25 24,25 14,0 25,-11 25,-25 0,-13 -11,-25 -25,-25z"/>
  <path class="fil0" d="M6882 5071c-9,0 -17,8 -17,17 0,10 8,18 17,18 10,0 18,-8 18,-18 0,-9 -8,-17 -18,-17z"/>
  <path class="fil0" d="M6936 5063c-14,0 -25,12 -25,25 0,14 11,25 25,25 14,0 25,-11 25,-25 0,-13 -11,-25 -25,-25z"/>
  <path class="fil0" d="M3105 318c-4,1 -35,30 -67,35 -22,4 -46,2 -63,-4 -18,-5 -28,-11 -28,-11 0,0 12,5 30,8 19,2 45,2 68,-6 -14,2 -29,1 -40,-1 -11,-2 -19,-4 -19,-4 0,0 10,3 24,4 14,1 33,-1 50,-7 18,-8 29,-18 35,-26 0,0 0,0 1,0 2,0 5,1 7,1 0,4 2,7 2,11zm76 -158c30,-57 80,-93 133,-105 52,-13 104,-6 145,13 40,20 70,51 85,84 15,32 14,66 3,92 -11,25 -31,42 -50,49 -20,7 -38,5 -52,1 -1,0 -1,-1 -3,-1 -1,-2 -1,-1 -3,-3 -7,-6 -15,-8 -24,-12 -2,-2 -5,-5 -5,-5 0,0 2,3 2,4 -17,-6 -35,-9 -50,-5 -25,6 -43,21 -53,36 -10,14 -12,28 -11,35 2,7 5,9 10,1 12,-19 40,-27 71,-18 7,2 12,0 17,0 -21,14 -34,30 -41,43 -3,7 -5,12 -6,16 -1,4 -2,6 -2,6 0,0 1,-2 2,-5 2,-4 4,-10 8,-16 9,-13 24,-31 51,-42 1,-1 4,-1 6,-2 1,0 2,0 2,0 1,0 2,0 3,-1 25,-8 56,-10 84,9 31,21 55,67 43,110 -12,44 -58,79 -111,84 -53,6 -113,-10 -163,-42 -50,-33 -92,-83 -110,-143 -4,-11 -2,-22 -3,-33 24,-2 48,-6 69,-15 35,-16 59,-43 70,-69 12,-27 10,-55 2,-74 -7,-20 -19,-32 -29,-40 -22,-14 -35,-12 -35,-13 0,1 13,2 29,19 8,9 16,22 20,39 3,16 2,37 -10,57 -12,20 -33,38 -60,48 -18,6 -38,7 -60,7 1,-38 8,-76 26,-109zm251 150c-6,-4 -10,-9 -20,-11 -14,-2 -29,0 -40,3 -11,4 -17,8 -17,8 0,0 5,-3 13,-7 8,-4 20,-7 32,-9 -20,-3 -41,1 -55,7 -14,6 -22,12 -22,12 0,0 6,-7 19,-15 12,-8 31,-15 49,-14 15,-1 30,5 41,11 4,2 5,4 10,7 5,2 10,3 16,5 -9,0 -18,1 -26,3zm183 -158c15,-33 44,-64 85,-84 40,-19 93,-26 145,-13 52,12 103,48 133,105 18,33 25,71 26,109 -22,0 -42,-1 -60,-7 -28,-10 -49,-28 -60,-48 -12,-20 -14,-41 -10,-57 4,-17 12,-30 19,-39 17,-17 30,-18 29,-19 1,1 -12,-1 -34,13 -10,8 -22,20 -30,40 -8,19 -9,47 3,74 11,26 35,53 70,69 20,9 44,13 69,15 -2,11 0,22 -3,33 -18,60 -61,110 -111,143 -50,32 -110,48 -163,42 -53,-5 -98,-40 -110,-84 -12,-43 11,-89 43,-110 27,-19 59,-17 83,-9 2,1 2,1 3,1 1,0 2,0 2,0 2,1 5,1 7,2 26,11 42,29 50,42 4,6 7,12 8,16 2,3 3,5 3,5 0,0 -1,-2 -2,-6 -1,-4 -3,-9 -7,-16 -6,-13 -20,-29 -41,-43 6,0 11,2 18,0 31,-9 58,-1 71,18 4,8 8,6 9,-1 1,-7 -1,-21 -10,-35 -10,-15 -28,-30 -53,-36 -16,-4 -33,-1 -51,5 1,-1 3,-4 3,-4 0,0 -3,3 -6,5 -8,4 -17,6 -24,12 -2,2 -1,1 -3,3 -1,0 -1,1 -3,1 -13,4 -31,6 -51,-1 -20,-7 -39,-24 -50,-49 -11,-26 -12,-60 3,-92zm448 154c0,0 0,0 1,0 5,8 17,18 35,26 16,6 36,8 50,7 14,-1 23,-4 23,-4 0,0 -7,2 -18,4 -12,2 -27,3 -41,1 24,8 50,8 68,6 19,-3 31,-8 31,-8 0,0 -11,6 -28,11 -17,6 -41,8 -63,4 -32,-5 -63,-34 -68,-35 1,-4 2,-7 3,-11 2,0 5,-1 7,-1zm-347 -4c5,-3 6,-5 10,-7 12,-6 26,-12 41,-11 19,-1 37,6 50,14 12,8 19,15 19,15 0,0 -8,-6 -22,-12 -15,-6 -35,-10 -55,-7 11,2 23,5 31,9 9,4 14,7 14,7 0,0 -7,-4 -18,-8 -10,-3 -26,-5 -39,-3 -10,2 -15,7 -20,11 -9,-2 -17,-3 -26,-3 5,-2 11,-3 15,-5zm-1270 -176c-14,27 -19,55 -18,83 1,54 29,104 70,128 42,25 89,21 121,2 16,-10 28,-24 35,-38 6,-15 9,-29 8,-42 0,-26 -11,-44 -20,-53 -4,-5 -8,-9 -11,-11 -2,-2 -4,-3 -4,-3 0,0 1,2 4,4 3,2 6,6 10,11 7,10 15,28 13,52 -1,23 -14,52 -43,65 -28,14 -68,13 -99,-8 -30,-22 -50,-64 -49,-107 2,-44 24,-89 67,-106 42,-17 97,-13 148,2 51,16 100,43 150,73 49,31 95,61 142,85 41,21 83,35 124,42 -8,0 -20,-1 -33,-1 -15,0 -31,2 -49,10 -37,16 -72,13 -94,-5 -8,-8 -12,-5 -10,2 1,8 9,22 25,35 16,13 42,24 72,25 26,0 56,-11 79,-31 -2,2 -3,3 -4,6 -7,10 -14,24 -17,44 -3,19 -1,45 10,70 12,26 32,47 53,60 22,14 45,20 64,22 19,2 35,1 46,-1 11,-2 17,-4 17,-4 0,0 -7,0 -17,0 -11,0 -27,0 -44,-5 -18,-4 -38,-13 -56,-26 -18,-14 -34,-33 -44,-54 -20,-45 -10,-81 -3,-102 4,-10 8,-17 10,-22 1,-3 2,-3 2,-4 2,-2 4,-5 4,-5 3,13 5,26 9,39 24,72 76,129 135,165 60,35 128,51 192,40 64,-9 118,-56 130,-113 6,-28 0,-56 -11,-79 -12,-22 -29,-39 -48,-51 -10,-5 -19,-9 -29,-11 6,0 12,1 18,0 25,-5 52,-23 69,-54 5,-9 7,-20 9,-31 3,11 5,22 10,31 16,31 44,49 69,54 6,1 11,0 17,0 -9,2 -19,6 -28,11 -19,12 -37,29 -48,51 -12,23 -18,51 -12,79 12,57 67,104 131,113 64,11 132,-5 192,-40 59,-36 111,-93 135,-165 4,-13 6,-26 8,-39 1,0 3,3 4,5 1,1 1,1 2,4 3,5 7,12 11,22 7,21 16,57 -4,102 -10,21 -26,40 -44,54 -17,13 -37,22 -55,26 -18,5 -33,5 -44,5 -11,0 -17,0 -17,0 0,0 6,2 17,4 10,2 26,3 46,1 19,-2 42,-8 63,-22 22,-13 41,-34 53,-60 12,-25 14,-51 11,-70 -4,-20 -10,-34 -17,-44 -2,-3 -3,-4 -5,-6 24,20 53,31 80,31 30,-1 55,-12 72,-25 16,-13 23,-27 25,-35 2,-7 -2,-10 -10,-2 -23,18 -58,21 -94,5 -19,-8 -35,-10 -49,-10 -14,0 -25,1 -33,1 40,-7 82,-21 124,-42 46,-24 93,-54 142,-85 49,-30 99,-57 150,-73 51,-15 105,-19 148,-2 42,17 65,62 66,106 1,43 -18,85 -49,107 -30,21 -71,22 -98,8 -29,-13 -42,-42 -43,-65 -2,-24 5,-42 13,-52 4,-5 7,-9 10,-11 2,-2 3,-4 3,-4 0,0 -1,1 -4,3 -3,2 -6,6 -11,11 -9,9 -19,27 -20,53 0,13 2,27 9,42 6,14 19,28 35,38 31,19 79,23 121,-2 41,-24 68,-74 70,-128 1,-28 -5,-56 -18,-83 -14,-26 -37,-50 -66,-63 -28,-13 -59,-18 -89,-18 -31,0 -61,4 -91,12 -59,16 -113,46 -163,77 -51,31 -96,61 -138,84 -35,19 -68,32 -100,40 11,-20 27,-48 32,-84 8,-43 -2,-88 -12,-104 -9,-17 -25,-32 -39,-39 -15,-7 -28,-6 -34,0 -6,8 -4,19 0,32 4,13 9,27 16,39 6,11 27,35 36,70 9,30 6,64 -3,88 -2,0 -3,1 -5,1 -2,-43 -12,-87 -33,-126 -36,-69 -103,-116 -168,-129 -65,-14 -128,-3 -176,23 -49,26 -83,67 -98,109 -2,6 -1,12 -3,17 -1,-5 0,-11 -2,-17 -16,-42 -49,-83 -98,-109 -49,-26 -112,-37 -177,-23 -65,13 -131,60 -167,129 -21,39 -32,83 -33,126 -2,0 -4,-1 -5,-1 -9,-24 -13,-58 -4,-88 10,-35 30,-59 37,-70 6,-12 12,-26 16,-39 4,-13 6,-24 0,-32 -6,-6 -19,-7 -34,0 -15,7 -30,22 -40,39 -9,16 -20,61 -12,104 6,36 21,64 33,84 -32,-8 -65,-21 -100,-40 -43,-23 -87,-53 -138,-84 -51,-31 -105,-61 -164,-77 -29,-8 -60,-12 -90,-12 -30,0 -61,5 -89,18 -29,13 -53,37 -66,63z"/>
  <path class="fil0" d="M2262 214c-20,11 -47,29 -67,52 -21,24 -29,46 -32,60 -3,15 -2,24 -2,24 0,0 9,-1 22,-8 14,-7 32,-19 51,-41 20,-23 35,-48 46,-68 11,-20 18,-34 18,-34 0,0 -15,4 -36,15z"/>
  <path class="fil0" d="M2325 136c0,0 4,-45 -16,-79 -19,-34 -50,-34 -50,-34 0,0 -14,26 5,60 20,34 61,53 61,53z"/>
  <path class="fil0" d="M2170 141c29,12 60,15 84,15 23,-1 38,-5 38,-5 0,0 -13,-9 -32,-21 -19,-11 -44,-26 -71,-37 -27,-11 -47,-14 -62,-15 -15,0 -23,2 -23,2 0,0 2,9 11,21 9,12 25,28 55,40z"/>
  <path class="fil0" d="M2821 213c3,-3 3,-7 0,-10 -2,-3 -7,-3 -9,0 -3,2 -3,7 -1,9 3,3 7,3 10,1z"/>
  <path class="fil0" d="M2836 248c2,4 6,5 10,4 4,-2 5,-7 3,-11 -2,-3 -6,-5 -10,-3 -4,2 -5,7 -3,10z"/>
  <path class="fil0" d="M2867 286c-1,-5 -6,-8 -10,-6 -4,1 -7,5 -6,10 1,4 6,7 10,6 4,-1 7,-6 6,-10z"/>
  <path class="fil0" d="M2865 324c-5,0 -9,5 -8,9 0,5 3,9 8,9 5,0 9,-4 9,-9 0,-5 -4,-9 -9,-9z"/>
  <path class="fil0" d="M2863 369c-5,-1 -10,3 -11,7 -1,5 2,10 7,12 5,1 10,-2 11,-8 2,-5 -2,-10 -7,-11z"/>
  <path class="fil0" d="M2837 417c-3,5 -1,11 4,13 5,3 11,2 14,-4 3,-5 0,-12 -5,-14 -5,-2 -11,0 -13,5z"/>
  <path class="fil0" d="M2827 451c-5,-4 -11,-3 -15,2 -4,4 -3,11 1,15 5,4 12,3 16,-1 4,-5 3,-12 -2,-16z"/>
  <path class="fil0" d="M2780 483c-4,3 -5,11 -1,16 3,5 11,6 16,2 5,-5 6,-12 1,-17 -4,-5 -11,-5 -16,-1z"/>
  <path class="fil0" d="M2744 507c-6,3 -8,11 -5,17 3,5 11,8 17,4 6,-3 8,-11 4,-17 -3,-5 -11,-7 -16,-4z"/>
  <path class="fil0" d="M2704 526c-6,2 -10,10 -7,16 2,7 10,10 17,8 6,-3 10,-11 7,-17 -3,-7 -11,-10 -17,-7z"/>
  <path class="fil0" d="M2662 539c-7,2 -11,9 -10,16 2,7 9,12 17,10 7,-2 12,-9 9,-16 -2,-8 -9,-12 -16,-10z"/>
  <path class="fil0" d="M2619 546c-8,1 -13,8 -13,16 1,8 8,13 16,13 8,-1 14,-9 12,-16 -1,-8 -8,-13 -15,-13z"/>
  <path class="fil0" d="M2282 276c0,-4 -3,-7 -7,-7 -4,0 -7,3 -7,7 0,4 4,7 7,7 4,0 7,-4 7,-7z"/>
  <path class="fil0" d="M2278 314c-4,1 -6,5 -6,9 1,4 5,7 9,6 4,-1 7,-5 6,-9 -1,-4 -5,-7 -9,-6z"/>
  <path class="fil0" d="M2289 358c-4,1 -7,6 -5,10 2,5 6,7 11,5 4,-1 6,-6 4,-10 -1,-4 -6,-7 -10,-5z"/>
  <path class="fil0" d="M2306 399c-4,3 -6,8 -3,13 2,4 8,5 12,3 4,-3 6,-8 3,-12 -2,-4 -7,-6 -12,-4z"/>
  <path class="fil0" d="M2330 438c-4,3 -5,9 -2,13 3,5 9,6 14,2 4,-3 4,-9 1,-13 -3,-4 -9,-5 -13,-2z"/>
  <path class="fil0" d="M2373 472c-4,-3 -10,-3 -14,0 -4,4 -4,11 0,15 4,4 11,4 15,0 4,-5 3,-11 -1,-15z"/>
  <path class="fil0" d="M2408 500c-5,-3 -12,-2 -15,2 -4,5 -3,12 2,16 6,3 12,2 16,-3 3,-5 1,-12 -3,-15z"/>
  <path class="fil0" d="M2446 522c-5,-3 -12,-1 -15,5 -3,6 -1,12 5,15 6,3 13,1 16,-5 2,-6 0,-13 -6,-15z"/>
  <path class="fil0" d="M2487 537c-6,-2 -13,2 -15,8 -2,6 1,13 8,15 7,3 14,-1 15,-8 2,-7 -2,-13 -8,-15z"/>
  <path class="fil0" d="M2530 546c-6,-1 -13,4 -14,11 -2,7 3,14 10,15 8,1 14,-4 15,-11 1,-7 -4,-14 -11,-15z"/>
  <path class="fil0" d="M2574 549c-7,0 -13,6 -14,13 0,8 6,14 14,14 8,1 14,-6 14,-13 -1,-8 -7,-13 -14,-14z"/>
  <path class="fil0" d="M3008 176c21,19 43,37 52,49 -10,-14 -19,-42 -25,-68 -6,-26 -9,-50 -14,-60 -9,-19 -32,-37 -49,-30 -17,6 -20,37 -10,58 5,11 25,31 46,51z"/>
  <path class="fil0" d="M2742 43c15,12 38,28 73,46 35,18 70,34 98,47 25,11 45,21 45,21 0,0 -9,-18 -30,-42 -19,-23 -51,-53 -89,-72 -38,-20 -69,-25 -88,-25 -20,0 -30,4 -30,4 0,0 6,8 21,21z"/>
  <path class="fil0" d="M3353 88c31,5 66,17 97,40 15,12 29,27 37,44 8,18 9,38 1,55 -8,17 -24,27 -39,27 -16,0 -30,-7 -40,-17 -21,-18 -26,-44 -19,-60 7,-17 20,-24 28,-27 8,-3 12,-3 12,-3 0,1 -4,-2 -13,0 -9,1 -25,6 -36,26 -11,18 -9,52 16,77 12,12 29,23 52,24 23,0 47,-15 58,-38 11,-24 8,-51 -2,-72 -10,-22 -27,-38 -44,-50 -36,-24 -74,-34 -107,-36 -32,-2 -59,3 -76,9 -18,5 -27,10 -27,10 0,0 9,-4 27,-7 18,-4 44,-6 75,-2z"/>
  <path class="fil0" d="M2149 214c-23,-3 -49,-11 -76,-24 -27,-12 -55,-29 -85,-44 -60,-32 -112,-36 -141,-29 -16,3 -25,8 -32,11 -5,4 -8,6 -8,6 0,0 3,-1 10,-3 6,-1 17,-3 31,-4 28,-1 73,7 130,37 30,15 59,31 88,42 29,12 58,18 82,18 25,1 45,-1 58,-4 14,-3 21,-6 21,-6 0,0 -8,2 -21,3 -14,0 -34,1 -57,-3z"/>
  <path class="fil0" d="M1776 164c1,7 35,8 63,10 14,0 47,0 82,7 34,6 68,20 85,30 -19,-12 -51,-31 -84,-44 -33,-13 -66,-19 -82,-19 -31,-2 -65,9 -64,16z"/>
  <path class="fil0" d="M1749 74c35,-20 80,-20 122,-10 1,1 2,2 4,2 -17,-1 -33,-2 -51,0 -24,4 -50,11 -72,31 -10,9 -18,22 -22,37 -4,14 -3,31 4,44 13,27 35,43 55,54 21,10 41,17 60,20 37,8 68,5 91,1 8,-2 15,-4 22,-6 -19,7 -43,15 -78,21 -20,3 -43,5 -69,2 -25,-4 -53,-13 -76,-31 -22,-17 -42,-47 -43,-79 -3,-32 17,-66 53,-86zm-378 213c68,21 142,11 199,-14 12,-5 19,-13 30,-19 6,-3 12,-5 19,-9 5,-3 8,-7 13,-10 8,-7 15,-13 23,-20 2,-2 4,-4 6,-6 0,0 0,-1 0,-1 13,28 31,52 52,67 34,22 69,29 99,30 31,1 57,-5 79,-11 43,-15 69,-33 86,-44 17,-12 24,-18 24,-18 0,0 -5,2 -12,5 9,-4 13,-7 13,-7 0,0 -5,1 -15,4 -10,3 -26,6 -49,8 -22,2 -51,2 -85,-7 -18,-4 -36,-11 -54,-21 -18,-10 -37,-24 -46,-44 -10,-20 -3,-43 13,-59 16,-15 39,-23 61,-27 39,-8 76,-4 108,4 19,10 37,20 56,30 16,10 34,18 51,27 1,1 4,3 5,4 4,4 6,6 6,6 0,0 -2,-2 -6,-6 0,-1 -1,-1 -1,-2 20,11 40,23 60,32 39,16 80,25 118,23 43,-3 78,-17 105,-34 -12,28 -21,59 -22,95 -2,44 9,94 35,140 26,46 70,90 128,115 58,25 124,30 183,14 59,-17 112,-53 142,-104 31,-50 39,-109 24,-161 -17,-51 -54,-88 -93,-108 -39,-21 -82,-25 -116,-17 -34,8 -62,32 -66,59 -3,26 10,44 20,51 11,8 19,6 19,7 0,-1 -8,0 -17,-9 -10,-7 -19,-26 -14,-48 5,-21 30,-39 61,-44 31,-4 68,3 100,24 32,20 61,54 71,95 10,41 1,89 -26,127 -26,39 -69,67 -118,79 -48,12 -102,8 -149,-13 -47,-20 -83,-55 -106,-92 -23,-38 -34,-78 -34,-115 -3,-75 30,-132 64,-164 34,-34 69,-47 91,-53 11,-3 20,-5 26,-6 5,0 8,-1 8,-1 0,0 -3,0 -8,-1 -6,0 -15,-1 -27,0 -24,2 -63,9 -107,41 -21,15 -42,38 -59,67 -30,17 -69,31 -115,30 -33,-2 -68,-12 -103,-30 -35,-17 -70,-41 -108,-66 -37,-24 -79,-50 -129,-64 -49,-14 -109,-16 -160,13 -25,14 -46,33 -60,57 -14,24 -21,52 -18,78 1,13 8,24 12,36 -1,1 -3,2 -5,3 -16,-8 -36,-25 -49,-44 -16,-22 -24,-43 -30,-51 -13,-15 -36,-29 -53,-21 -16,7 -16,41 2,62 8,10 34,27 63,38 25,9 49,13 65,17 -14,7 -30,11 -45,11 -29,1 -54,-7 -66,-7 -24,0 -56,12 -57,30 -1,13 14,25 33,31 -17,-3 -35,-8 -52,-16 -27,-13 -47,-30 -58,-34 -21,-9 -51,-13 -63,1 -2,3 -2,7 -2,11 -12,-10 -22,-21 -29,-33 -13,-23 -15,-46 -9,-64 5,-20 18,-34 30,-42 11,-8 23,-11 33,-12 19,-3 41,2 56,13 16,11 27,29 32,47 3,9 4,17 4,25 1,8 0,14 -2,19 -2,10 -8,15 -8,19 0,3 3,5 8,5 5,0 13,-2 20,-8 8,-7 14,-16 18,-27 4,-11 7,-24 6,-39 0,-28 -12,-62 -39,-87 -27,-26 -67,-37 -103,-32 -18,2 -43,9 -65,28 -22,19 -40,48 -45,83 -6,36 7,75 31,103 24,29 58,47 92,58z"/>
  <path class="fil0" d="M2388 198c-1,0 -6,7 -14,25 -17,43 -7,93 18,126 24,34 59,50 85,53 27,4 46,-2 53,-7 7,-5 5,-9 -9,-9 -36,0 -76,-29 -89,-78 -6,-24 -12,-43 -18,-60 -5,-17 -10,-32 -13,-41 0,0 0,0 -1,1 -5,11 -12,29 -10,55 2,21 11,41 20,55 2,2 3,5 4,7 11,14 21,22 21,22 0,0 -8,-6 -18,-17 -1,-1 -2,-4 -3,-5 0,0 0,0 0,-1 -2,-1 -2,-4 -4,-6 -7,-10 -15,-20 -20,-33 6,32 26,61 45,78 19,16 35,22 35,22 0,0 -16,-4 -35,-17 -20,-13 -42,-38 -51,-67 -11,-29 -7,-68 0,-88 3,-10 5,-16 4,-15z"/>
  <path class="fil0" d="M1593 336c-12,17 -29,30 -43,39 -14,9 -25,14 -25,14 0,0 10,-6 23,-18 14,-12 30,-29 42,-49 -15,16 -31,27 -38,31 3,-2 7,-5 12,-10 11,-8 23,-21 31,-36 10,-16 14,-30 15,-39 0,-1 0,-1 0,-1 -14,7 -46,21 -62,58 -15,37 -36,61 -62,72 -21,7 1,18 38,7 19,-5 41,-16 60,-35 19,-19 35,-45 39,-78 7,-55 -5,13 -30,45z"/>
  <path class="fil0" d="M1788 371c-26,-2 -54,-17 -72,-48 -8,-15 -17,-23 -26,-30 -9,-7 -18,-14 -23,-19 0,1 0,1 -1,2 -2,7 -2,22 6,37 8,14 21,25 32,31 5,3 9,5 13,6 -3,-1 -4,-1 -10,-3 -9,-4 -21,-11 -30,-20 12,19 32,32 47,39 16,7 27,10 27,10 0,0 -11,-1 -27,-5 -15,-5 -35,-14 -49,-30 -14,-15 -23,-42 -23,-57 0,-7 0,-12 -1,-11 -1,1 -3,6 -5,21 -1,35 21,64 44,79 23,15 47,18 65,17 36,-2 55,-18 33,-19z"/>
  <path class="fil0" d="M1600 90c-1,-16 4,-33 11,-44 6,-11 12,-18 12,-18 0,0 -5,8 -9,21 -4,12 -7,30 -3,48 1,-10 4,-21 7,-28 3,-8 6,-12 6,-12 0,0 -3,6 -6,15 -3,10 -5,23 -2,35 3,14 10,23 15,27 1,0 1,1 1,1 3,-6 8,-15 11,-25 3,-10 4,-20 -1,-33 -11,-26 -7,-51 9,-63 13,-9 -9,-16 -35,3 -13,9 -25,26 -29,47 -4,22 0,48 19,68 33,30 -6,-9 -6,-42z"/>
  <path class="fil0" d="M4861 199c0,0 6,14 17,34 12,20 27,45 47,68 19,22 37,34 50,41 13,7 22,8 22,8 0,0 2,-9 -1,-24 -3,-14 -11,-36 -32,-60 -21,-23 -47,-41 -67,-52 -21,-11 -36,-15 -36,-15z"/>
  <path class="fil0" d="M4894 83c20,-34 5,-60 5,-60 0,0 -30,0 -50,34 -20,34 -16,79 -16,79 0,0 42,-19 61,-53z"/>
  <path class="fil0" d="M4866 151c0,0 16,4 39,5 23,0 55,-3 84,-15 29,-12 46,-28 55,-40 9,-12 11,-21 11,-21 0,0 -9,-2 -23,-2 -15,1 -36,4 -63,15 -26,11 -51,26 -71,37 -19,12 -32,21 -32,21z"/>
  <path class="fil0" d="M4338 213c3,2 7,2 9,-1 3,-2 3,-7 0,-9 -3,-3 -7,-3 -10,0 -2,3 -2,7 1,10z"/>
  <path class="fil0" d="M4320 238c-4,-2 -9,0 -11,3 -2,4 0,9 4,11 3,1 8,0 10,-4 2,-3 0,-8 -3,-10z"/>
  <path class="fil0" d="M4291 286c-1,4 2,9 7,10 4,1 8,-2 9,-6 2,-5 -1,-9 -5,-10 -5,-2 -9,1 -11,6z"/>
  <path class="fil0" d="M4293 342c5,0 9,-4 9,-9 0,-4 -3,-9 -8,-9 -5,0 -10,4 -10,9 0,5 4,9 9,9z"/>
  <path class="fil0" d="M4296 369c-5,1 -9,6 -8,11 1,6 7,9 12,8 5,-2 8,-7 7,-12 -1,-4 -6,-8 -11,-7z"/>
  <path class="fil0" d="M4322 417c-3,-5 -8,-7 -13,-5 -5,2 -8,9 -5,14 2,6 9,7 14,4 5,-2 6,-8 4,-13z"/>
  <path class="fil0" d="M4332 451c-5,4 -6,11 -2,16 4,4 11,5 15,1 5,-4 5,-11 2,-15 -4,-5 -11,-6 -15,-2z"/>
  <path class="fil0" d="M4380 499c4,-5 3,-13 -2,-16 -4,-4 -11,-4 -16,1 -4,5 -3,12 2,17 5,4 12,3 16,-2z"/>
  <path class="fil0" d="M4419 524c3,-6 1,-14 -4,-17 -6,-3 -13,-1 -17,4 -3,6 -2,14 5,17 6,4 13,1 16,-4z"/>
  <path class="fil0" d="M4462 542c2,-6 -1,-14 -7,-16 -7,-3 -14,0 -17,7 -3,6 0,14 7,17 7,2 14,-1 17,-8z"/>
  <path class="fil0" d="M4507 555c1,-7 -3,-14 -10,-16 -7,-2 -14,2 -17,10 -2,7 2,14 10,16 7,2 15,-3 17,-10z"/>
  <path class="fil0" d="M4553 562c0,-8 -5,-15 -13,-16 -7,0 -14,5 -16,13 -1,7 5,15 13,16 8,0 15,-5 16,-13z"/>
  <path class="fil0" d="M4890 276c0,-4 -3,-7 -6,-7 -4,0 -7,3 -7,7 0,3 2,7 6,7 4,0 7,-3 7,-7z"/>
  <path class="fil0" d="M4878 329c4,1 8,-2 8,-6 1,-4 -2,-8 -6,-9 -4,-1 -8,2 -9,6 0,4 3,8 7,9z"/>
  <path class="fil0" d="M4864 373c4,2 9,0 11,-5 1,-4 -1,-9 -5,-10 -5,-2 -9,1 -11,5 -1,4 1,9 5,10z"/>
  <path class="fil0" d="M4856 412c2,-5 1,-10 -4,-13 -4,-2 -9,0 -12,4 -2,4 -1,9 4,12 4,2 9,1 12,-3z"/>
  <path class="fil0" d="M4830 451c4,-4 3,-10 -1,-13 -5,-3 -11,-2 -14,2 -3,4 -2,10 2,13 4,4 10,3 13,-2z"/>
  <path class="fil0" d="M4799 472c-3,-3 -10,-3 -14,0 -4,4 -4,10 0,15 4,4 10,4 14,0 5,-4 5,-11 0,-15z"/>
  <path class="fil0" d="M4766 502c-4,-4 -10,-5 -15,-2 -5,3 -6,10 -3,15 3,5 10,6 15,3 5,-4 6,-11 3,-16z"/>
  <path class="fil0" d="M4728 527c-3,-6 -10,-8 -15,-5 -6,2 -8,9 -6,15 3,6 10,8 15,5 7,-3 9,-9 6,-15z"/>
  <path class="fil0" d="M4687 545c-3,-6 -10,-10 -16,-8 -6,2 -9,8 -8,15 2,7 9,11 15,8 7,-2 11,-9 9,-15z"/>
  <path class="fil0" d="M4643 557c-1,-7 -8,-12 -15,-11 -6,1 -11,8 -11,15 1,7 8,12 15,11 8,-1 12,-8 11,-15z"/>
  <path class="fil0" d="M4598 562c0,-7 -7,-13 -14,-13 -7,1 -13,6 -13,14 0,7 6,14 14,13 8,0 14,-6 13,-14z"/>
  <path class="fil0" d="M4151 176c21,-20 40,-40 45,-51 10,-21 7,-52 -10,-58 -17,-7 -40,11 -49,30 -4,10 -8,34 -14,60 -6,26 -14,54 -25,68 9,-12 32,-30 53,-49z"/>
  <path class="fil0" d="M4246 136c27,-13 63,-29 98,-47 35,-18 58,-34 73,-46 14,-13 20,-21 20,-21 0,0 -9,-4 -29,-4 -20,0 -50,5 -89,25 -38,19 -69,49 -89,72 -20,24 -30,42 -30,42 0,0 21,-10 46,-21z"/>
  <path class="fil0" d="M3710 274c22,-1 40,-12 52,-24 25,-25 27,-59 16,-77 -11,-20 -27,-25 -36,-26 -10,-2 -14,1 -14,0 0,0 5,0 13,3 8,3 21,10 27,27 7,16 3,42 -18,60 -10,10 -25,17 -40,17 -15,0 -31,-10 -39,-27 -8,-17 -7,-37 1,-55 7,-17 21,-32 36,-44 31,-23 67,-35 97,-40 31,-4 57,-2 75,2 18,3 28,7 28,7 0,0 -9,-5 -27,-10 -18,-6 -44,-11 -77,-9 -32,2 -71,12 -106,36 -17,12 -34,28 -44,50 -10,21 -14,48 -2,72 11,23 35,38 58,38z"/>
  <path class="fil0" d="M5312 117c-30,-7 -81,-3 -141,29 -30,15 -58,32 -85,44 -27,13 -53,21 -76,24 -24,4 -43,3 -57,3 -14,-1 -22,-3 -22,-3 0,0 8,3 22,6 13,3 33,5 58,4 24,0 53,-6 82,-18 29,-11 58,-27 87,-42 58,-30 102,-38 131,-37 14,1 24,3 31,4 6,2 10,3 10,3 0,0 -3,-2 -9,-6 -6,-3 -16,-8 -31,-11z"/>
  <path class="fil0" d="M5237 167c-33,13 -65,32 -85,44 17,-10 52,-24 86,-30 34,-7 67,-7 81,-7 28,-2 62,-3 64,-10 1,-7 -34,-18 -65,-16 -15,0 -49,6 -81,19z"/>
  <path class="fil0" d="M5420 239c-24,18 -51,27 -77,31 -25,3 -48,1 -69,-2 -34,-6 -58,-14 -77,-21 7,2 13,4 22,6 23,4 54,7 91,-1 19,-3 39,-10 59,-20 21,-11 43,-27 56,-54 6,-13 8,-30 4,-44 -4,-15 -12,-28 -23,-37 -21,-20 -48,-27 -72,-31 -17,-2 -34,-1 -50,0 1,0 3,-1 4,-2 42,-10 86,-10 121,10 36,20 56,54 54,86 -2,32 -21,62 -43,79zm381 -224c-36,-5 -76,6 -104,32 -27,25 -39,59 -39,87 0,15 2,28 6,39 5,11 11,20 18,27 7,6 15,8 20,8 6,0 8,-2 9,-5 0,-4 -6,-9 -9,-19 -1,-5 -2,-11 -2,-19 0,-8 2,-16 4,-25 5,-18 17,-36 33,-47 15,-11 36,-16 55,-13 10,1 22,4 34,12 12,8 24,22 30,42 6,18 4,41 -9,64 -7,12 -17,23 -29,33 0,-4 -1,-8 -3,-11 -11,-14 -42,-10 -63,-1 -10,4 -31,21 -58,34 -16,8 -34,13 -51,16 19,-6 34,-18 33,-31 -2,-18 -33,-30 -57,-30 -12,0 -38,8 -66,7 -16,0 -32,-5 -46,-11 16,-4 41,-8 66,-17 29,-11 55,-28 63,-38 17,-21 18,-55 2,-62 -17,-8 -41,6 -53,21 -6,8 -14,29 -30,51 -13,19 -33,36 -50,44 -2,-1 -3,-2 -5,-3 5,-12 11,-23 13,-36 2,-26 -4,-54 -18,-78 -14,-24 -35,-43 -60,-57 -51,-29 -111,-27 -160,-13 -50,14 -92,40 -130,64 -38,25 -72,49 -107,66 -35,18 -70,28 -103,30 -46,1 -85,-13 -115,-30 -17,-29 -39,-52 -59,-67 -44,-32 -83,-39 -107,-41 -12,-1 -21,0 -27,0 -6,1 -9,1 -9,1 0,0 3,1 9,1 6,1 14,3 25,6 22,6 57,19 92,53 34,32 66,89 64,164 -1,37 -12,77 -35,115 -23,37 -58,72 -105,92 -47,21 -101,25 -150,13 -48,-12 -92,-40 -118,-79 -26,-38 -35,-86 -26,-127 11,-41 39,-75 71,-95 33,-21 69,-28 101,-24 30,5 55,23 60,44 6,22 -4,41 -13,48 -9,9 -17,8 -17,9 0,-1 8,1 18,-7 11,-7 24,-25 20,-51 -3,-27 -31,-51 -65,-59 -35,-8 -77,-4 -117,17 -39,20 -75,57 -92,108 -16,52 -7,111 23,161 31,51 84,87 143,104 59,16 125,11 183,-14 58,-25 101,-69 127,-115 27,-46 38,-96 36,-140 -1,-36 -10,-67 -23,-95 28,17 63,31 106,34 38,2 78,-7 117,-23 21,-9 41,-21 61,-32 -1,1 -2,1 -2,2 -4,4 -6,6 -6,6 0,0 3,-2 7,-6 1,-1 3,-3 5,-4 17,-9 34,-17 51,-27 18,-10 37,-20 56,-30 32,-8 69,-12 107,-4 23,4 45,12 61,27 17,16 23,39 14,59 -10,20 -28,34 -46,44 -18,10 -37,17 -54,21 -34,9 -63,9 -86,7 -22,-2 -38,-5 -49,-8 -9,-3 -15,-4 -15,-4 0,0 5,3 14,7 -8,-3 -13,-5 -13,-5 0,0 7,6 24,18 17,11 44,29 87,44 22,6 48,12 78,11 30,-1 66,-7 99,-30 22,-15 40,-39 52,-67 1,0 1,1 1,1 2,2 4,4 6,6 7,7 14,13 23,20 4,3 8,7 13,10 6,4 12,6 19,9 10,6 18,14 30,19 56,25 130,35 199,14 34,-11 68,-29 92,-58 24,-28 36,-67 31,-103 -5,-35 -23,-64 -45,-83 -23,-19 -47,-26 -65,-28z"/>
  <path class="fil0" d="M4758 208c0,-1 0,-1 -1,-1 -2,9 -7,24 -13,41 -6,17 -12,36 -18,60 -12,49 -52,78 -88,78 -14,0 -17,4 -9,9 7,5 25,11 52,7 26,-3 61,-19 86,-53 24,-33 34,-83 17,-126 -7,-18 -12,-25 -13,-25 -2,-1 1,5 4,15 6,20 10,59 0,88 -9,29 -31,54 -51,67 -19,13 -35,17 -35,17 0,0 16,-6 35,-22 19,-17 39,-46 44,-78 -4,13 -12,23 -20,33 -1,2 -2,5 -3,6 0,1 0,1 -1,1 -1,1 -2,4 -3,5 -9,11 -18,17 -18,17 0,0 10,-8 21,-22 2,-2 3,-5 4,-7 10,-14 19,-34 21,-55 2,-26 -5,-44 -11,-55z"/>
  <path class="fil0" d="M5566 336c-26,-32 -37,-100 -31,-45 5,33 21,59 40,78 19,19 41,30 59,35 38,11 60,0 39,-7 -27,-11 -47,-35 -63,-72 -15,-37 -47,-51 -61,-58 0,0 0,0 0,1 1,9 5,23 14,39 9,15 21,28 31,36 5,5 10,8 13,10 -7,-4 -23,-15 -38,-31 11,20 28,37 41,49 14,12 24,18 24,18 0,0 -11,-5 -25,-14 -14,-9 -31,-22 -43,-39z"/>
  <path class="fil0" d="M5487 313c8,-15 8,-30 5,-37 0,-1 0,-1 0,-2 -5,5 -14,12 -23,19 -10,7 -18,15 -27,30 -17,31 -45,46 -72,48 -21,1 -3,17 33,19 18,1 42,-2 66,-17 23,-15 45,-44 43,-79 -1,-15 -4,-20 -5,-21 -1,-1 0,4 -1,11 0,15 -8,42 -23,57 -13,16 -33,25 -49,30 -15,4 -26,5 -26,5 0,0 11,-3 26,-10 16,-7 35,-20 48,-39 -10,9 -22,16 -31,20 -5,2 -6,2 -9,3 3,-1 8,-3 13,-6 11,-6 24,-17 32,-31z"/>
  <path class="fil0" d="M5517 77c-5,13 -4,23 -1,33 3,10 8,19 10,25 1,0 1,-1 1,-1 6,-4 12,-13 16,-27 3,-12 1,-25 -2,-35 -3,-9 -6,-15 -6,-15 0,0 2,4 6,12 3,7 6,18 7,28 3,-18 1,-36 -4,-48 -4,-13 -9,-21 -9,-21 0,0 7,7 13,18 6,11 12,28 11,44 0,33 -40,72 -6,42 18,-20 23,-46 19,-68 -4,-21 -17,-38 -29,-47 -26,-19 -48,-12 -35,-3 16,12 20,37 9,63z"/>
  <path class="fil0" d="M1103 106c4,0 7,-3 7,-7 0,-4 -3,-8 -7,-8l-789 0c-4,0 -7,4 -7,8 0,4 3,7 7,7l789 0z"/>
  <path class="fil0" d="M269 116c10,0 18,-7 18,-17 0,-10 -8,-18 -18,-18 -9,0 -17,8 -17,18 0,10 8,17 17,17z"/>
  <path class="fil0" d="M215 124c14,0 25,-11 25,-25 0,-14 -11,-25 -25,-25 -14,0 -25,11 -25,25 0,14 11,25 25,25z"/>
  <path class="fil0" d="M1148 81c-10,0 -18,8 -18,18 0,10 8,17 18,17 9,0 17,-7 17,-17 0,-10 -8,-18 -17,-18z"/>
  <path class="fil0" d="M1202 74c-14,0 -25,11 -25,25 0,14 11,25 25,25 13,0 24,-11 24,-25 0,-14 -11,-25 -24,-25z"/>
  <path class="fil0" d="M6838 106c4,0 7,-3 7,-7 0,-4 -3,-8 -7,-8l-789 0c-4,0 -8,4 -8,8 0,4 4,7 8,7l789 0z"/>
  <path class="fil0" d="M6004 116c10,0 18,-7 18,-17 0,-10 -8,-18 -18,-18 -10,0 -18,8 -18,18 0,10 8,17 18,17z"/>
  <path class="fil0" d="M5949 74c-13,0 -24,11 -24,25 0,14 11,25 24,25 14,0 25,-11 25,-25 0,-14 -11,-25 -25,-25z"/>
  <path class="fil0" d="M6882 116c10,0 18,-7 18,-17 0,-10 -8,-18 -18,-18 -9,0 -17,8 -17,18 0,10 8,17 17,17z"/>
  <path class="fil0" d="M6936 124c14,0 25,-11 25,-25 0,-14 -11,-25 -25,-25 -14,0 -25,11 -25,25 0,14 11,25 25,25z"/>
  <path class="fil0" d="M385 371c0,3 2,5 5,5l51 0 0 471c0,3 2,5 5,5 3,0 5,-2 5,-5l0 -471 471 0c3,0 6,-2 6,-5 0,-3 -3,-5 -6,-5l-471 0 0 -52c0,-3 -2,-5 -5,-5 -3,0 -5,2 -5,5l0 52 -51 0c-3,0 -5,2 -5,5z"/>
  <path class="fil0" d="M965 371c0,-7 -5,-12 -12,-12 -7,0 -12,5 -12,12 0,6 5,12 12,12 7,0 12,-6 12,-12z"/>
  <path class="fil0" d="M990 388c9,0 17,-8 17,-17 0,-9 -8,-17 -17,-17 -9,0 -17,8 -17,17 0,9 8,17 17,17z"/>
  <path class="fil0" d="M359 359c-6,0 -12,5 -12,12 0,6 6,12 12,12 7,0 12,-6 12,-12 0,-7 -5,-12 -12,-12z"/>
  <path class="fil0" d="M323 388c9,0 16,-8 16,-17 0,0 0,0 0,0 0,0 1,0 1,0 0,-10 -8,-17 -17,-17 -10,0 -17,7 -17,17 0,0 0,0 0,0 0,0 0,0 0,0 0,9 7,17 17,17z"/>
  <path class="fil0" d="M318 438l0 532c0,3 2,6 5,6 2,0 5,-3 5,-6l0 -532c0,-3 -3,-5 -5,-5 -3,0 -5,2 -5,5z"/>
  <path class="fil0" d="M323 1013c6,0 12,-5 12,-12 0,-7 -6,-12 -12,-12 -7,0 -12,5 -12,12 0,7 5,12 12,12z"/>
  <path class="fil0" d="M323 1021c-10,0 -17,8 -17,17 0,9 7,17 17,17 9,0 17,-8 17,-17 0,-9 -8,-17 -17,-17z"/>
  <path class="fil0" d="M323 395c-7,0 -12,6 -12,12 0,7 5,12 12,12 6,0 12,-5 12,-12 0,-6 -6,-12 -12,-12z"/>
  <path class="fil0" d="M1046 242l-533 0c-3,0 -5,2 -5,5 0,3 2,5 5,5l533 0c2,0 5,-2 5,-5 0,-3 -3,-5 -5,-5z"/>
  <path class="fil0" d="M1076 235c-7,0 -12,6 -12,12 0,7 5,12 12,12 7,0 12,-5 12,-12 0,-6 -5,-12 -12,-12z"/>
  <path class="fil0" d="M1096 247c0,10 8,17 17,17 9,0 17,-7 17,-17 0,-9 -8,-17 -17,-17 -9,0 -17,8 -17,17z"/>
  <path class="fil0" d="M482 235c-6,0 -12,6 -12,12 0,7 6,12 12,12 7,0 12,-5 12,-12 0,-6 -5,-12 -12,-12z"/>
  <path class="fil0" d="M446 264c9,0 17,-7 17,-17 0,0 0,0 0,0 0,0 0,0 0,0 0,-10 -8,-17 -17,-17 -10,0 -17,7 -17,17l0 0c0,0 0,0 0,0 0,10 7,17 17,17z"/>
  <path class="fil0" d="M458 877c0,-6 -6,-12 -12,-12 -7,0 -12,6 -12,12 0,7 5,12 12,12 6,0 12,-5 12,-12z"/>
  <path class="fil0" d="M446 897c-10,0 -17,8 -17,17 0,10 7,17 17,17 9,0 17,-7 17,-17 0,-9 -8,-17 -17,-17z"/>
  <path class="fil0" d="M434 284c0,6 5,12 12,12 6,-1 12,-6 12,-12 0,-7 -6,-12 -12,-12 -7,0 -12,5 -12,12z"/>
  <path class="fil0" d="M6766 4816c0,-2 -2,-5 -5,-5l-51 0 0 -470c0,-3 -2,-6 -5,-6 -3,0 -5,3 -5,6l0 470 -471 0c-3,0 -6,3 -6,5 0,3 3,5 6,5l471 0 0 52c0,3 2,5 5,5 3,0 5,-2 5,-5l0 -52 51 0c3,0 5,-2 5,-5z"/>
  <path class="fil0" d="M6186 4816c0,7 6,12 12,12 7,0 12,-5 12,-12 0,-6 -5,-12 -12,-12 -6,0 -12,6 -12,12z"/>
  <path class="fil0" d="M6161 4800c-9,0 -17,7 -17,16 0,10 8,17 17,17 9,0 17,-7 17,-17 0,-9 -8,-16 -17,-16z"/>
  <path class="fil0" d="M6780 4816c0,7 5,12 12,12 6,0 12,-5 12,-12 0,-6 -6,-12 -12,-12 -7,0 -12,6 -12,12z"/>
  <path class="fil0" d="M6828 4800c-9,0 -17,7 -17,16 0,0 0,0 0,0l0 1c0,9 8,17 17,17 10,0 17,-8 17,-17l0 0c0,-1 0,-1 0,-1 0,-9 -7,-16 -17,-16z"/>
  <path class="fil0" d="M6833 4750l0 -533c0,-3 -2,-5 -5,-5 -2,0 -5,2 -5,5l0 533c0,2 3,5 5,5 3,0 5,-3 5,-5z"/>
  <path class="fil0" d="M6828 4174c-6,0 -12,6 -12,12 0,7 6,12 12,12 7,0 12,-5 12,-12 0,-6 -5,-12 -12,-12z"/>
  <path class="fil0" d="M6845 4149c0,-9 -7,-17 -17,-17 -9,0 -17,8 -17,17 0,10 8,17 17,17 10,0 17,-7 17,-17z"/>
  <path class="fil0" d="M6828 4792c7,0 12,-5 12,-12 0,-7 -5,-12 -12,-12 -6,0 -12,5 -12,12 0,7 6,12 12,12z"/>
  <path class="fil0" d="M6105 4945l533 0c3,0 5,-2 5,-5 0,-3 -2,-5 -5,-5l-533 0c-2,0 -5,2 -5,5 0,3 3,5 5,5z"/>
  <path class="fil0" d="M6063 4940c0,7 5,12 12,12 7,0 12,-5 12,-12 0,-6 -5,-12 -12,-12 -7,0 -12,6 -12,12z"/>
  <path class="fil0" d="M6055 4940c0,-9 -8,-17 -17,-17 -10,0 -17,8 -17,17 0,9 7,17 17,17 9,0 17,-8 17,-17z"/>
  <path class="fil0" d="M6669 4952c6,0 12,-5 12,-12 0,-6 -6,-12 -12,-12 -7,0 -12,6 -12,12 0,7 5,12 12,12z"/>
  <path class="fil0" d="M6705 4923c-9,0 -17,8 -17,17l0 0 0 0c0,10 8,17 17,17 10,0 17,-7 17,-17 0,0 0,0 0,0 0,0 0,0 0,0 0,-9 -7,-17 -17,-17z"/>
  <path class="fil0" d="M6693 4310c0,7 6,12 12,12 7,0 12,-5 12,-12 0,-6 -5,-12 -12,-12 -6,0 -12,6 -12,12z"/>
  <path class="fil0" d="M6705 4290c10,0 17,-8 17,-17 0,-9 -7,-17 -17,-17 -9,0 -17,8 -17,17 0,9 8,17 17,17z"/>
  <path class="fil0" d="M6717 4904c0,-7 -5,-12 -12,-12 -6,0 -12,5 -12,12 0,6 6,12 12,12 7,0 12,-6 12,-12z"/>
  <path class="fil0" d="M6761 366l-51 0 0 -52c0,-3 -2,-5 -5,-5 -3,0 -5,2 -5,5l0 52 -471 0c-3,0 -6,2 -6,5 0,3 3,5 6,5l471 0 0 471c0,3 2,5 5,5 3,0 5,-2 5,-5l0 -471 51 0c3,0 5,-2 5,-5 0,-3 -2,-5 -5,-5z"/>
  <path class="fil0" d="M6198 359c-6,0 -12,5 -12,12 0,6 6,12 12,12 7,0 12,-6 12,-12 0,-7 -5,-12 -12,-12z"/>
  <path class="fil0" d="M6161 354c-9,0 -17,8 -17,17 0,9 8,17 17,17 9,0 17,-8 17,-17 0,-9 -8,-17 -17,-17z"/>
  <path class="fil0" d="M6792 359c-7,0 -12,5 -12,12 0,6 5,12 12,12 6,0 12,-6 12,-12 0,-7 -6,-12 -12,-12z"/>
  <path class="fil0" d="M6823 438l0 532c0,3 3,6 5,6 3,0 5,-3 5,-6l0 -532c0,-3 -2,-5 -5,-5 -2,0 -5,2 -5,5z"/>
  <path class="fil0" d="M6828 1013c7,0 12,-5 12,-12 0,-7 -5,-12 -12,-12 -6,0 -12,5 -12,12 0,7 6,12 12,12z"/>
  <path class="fil0" d="M6828 1055c10,0 17,-8 17,-17 0,-9 -7,-17 -17,-17 -9,0 -17,8 -17,17 0,9 8,17 17,17z"/>
  <path class="fil0" d="M6828 395c-6,0 -12,6 -12,12 0,7 6,12 12,12 7,0 12,-5 12,-12 0,-6 -5,-12 -12,-12z"/>
  <path class="fil0" d="M6845 371c0,-10 -7,-17 -17,-17 -9,0 -17,7 -17,17 0,0 0,0 0,0 0,0 0,0 0,0 0,9 8,17 17,17 10,0 17,-8 17,-17 0,0 0,0 0,0 0,0 0,0 0,0z"/>
  <path class="fil0" d="M6643 247c0,-3 -2,-5 -5,-5l-533 0c-2,0 -5,2 -5,5 0,3 3,5 5,5l533 0c3,0 5,-2 5,-5z"/>
  <path class="fil0" d="M6075 235c-7,0 -12,6 -12,12 0,7 5,12 12,12 7,0 12,-5 12,-12 0,-6 -5,-12 -12,-12z"/>
  <path class="fil0" d="M6038 264c9,0 17,-7 17,-17 0,-9 -8,-17 -17,-17 -10,0 -17,8 -17,17 0,10 7,17 17,17z"/>
  <path class="fil0" d="M6669 235c-7,0 -12,6 -12,12 0,7 5,12 12,12 6,0 12,-5 12,-12 0,-6 -6,-12 -12,-12z"/>
  <path class="fil0" d="M6717 877c0,-6 -5,-12 -12,-12 -6,0 -12,6 -12,12 0,7 6,12 12,12 7,0 12,-5 12,-12z"/>
  <path class="fil0" d="M6705 931c10,0 17,-7 17,-17 0,-9 -7,-17 -17,-17 -9,0 -17,8 -17,17 0,10 8,17 17,17z"/>
  <path class="fil0" d="M6693 284c0,6 6,12 12,12 7,-1 12,-6 12,-12 0,-7 -5,-12 -12,-12 -6,0 -12,5 -12,12z"/>
  <path class="fil0" d="M6705 230c-9,0 -17,7 -17,17 0,0 0,0 0,0 0,0 0,0 0,0 0,10 8,17 17,17 10,0 17,-7 17,-17 0,0 0,0 0,0 0,0 0,0 0,0 0,-10 -7,-17 -17,-17z"/>
  <path class="fil0" d="M928 4816c0,-2 -3,-5 -6,-5l-471 0 0 -470c0,-3 -2,-6 -5,-6 -3,0 -5,3 -5,6l0 470 -51 0c-3,0 -5,3 -5,5 0,3 2,5 5,5l51 0 0 52c0,3 2,5 5,5 3,0 5,-2 5,-5l0 -52 471 0c3,0 6,-2 6,-5z"/>
  <path class="fil0" d="M953 4828c7,0 12,-5 12,-12 0,-6 -5,-12 -12,-12 -7,0 -12,6 -12,12 0,7 5,12 12,12z"/>
  <path class="fil0" d="M990 4833c9,0 17,-7 17,-17 0,-9 -8,-16 -17,-16 -9,0 -17,7 -17,16 0,10 8,17 17,17z"/>
  <path class="fil0" d="M347 4816c0,7 6,12 12,12 7,0 12,-5 12,-12 0,-6 -5,-12 -12,-12 -6,0 -12,6 -12,12z"/>
  <path class="fil0" d="M328 4750l0 -533c0,-3 -3,-5 -5,-5 -3,0 -5,2 -5,5l0 533c0,2 2,5 5,5 2,0 5,-3 5,-5z"/>
  <path class="fil0" d="M323 4174c-7,0 -12,6 -12,12 0,7 5,12 12,12 6,0 12,-5 12,-12 0,-6 -6,-12 -12,-12z"/>
  <path class="fil0" d="M323 4132c-10,0 -17,8 -17,17 0,10 7,17 17,17 9,0 17,-7 17,-17 0,-9 -8,-17 -17,-17z"/>
  <path class="fil0" d="M323 4792c6,0 12,-5 12,-12 0,-7 -6,-12 -12,-12 -7,0 -12,5 -12,12 0,7 5,12 12,12z"/>
  <path class="fil0" d="M323 4834c9,0 17,-8 17,-17l-1 -1c0,0 0,0 0,0 0,-9 -7,-16 -16,-16 -10,0 -17,7 -17,16 0,0 0,0 0,1l0 0c0,9 7,17 17,17z"/>
  <path class="fil0" d="M1046 4945c2,0 5,-2 5,-5 0,-3 -3,-5 -5,-5l-533 0c-3,0 -5,2 -5,5 0,3 2,5 5,5l533 0z"/>
  <path class="fil0" d="M1064 4940c0,7 5,12 12,12 7,0 12,-5 12,-12 0,-6 -5,-12 -12,-12 -7,0 -12,6 -12,12z"/>
  <path class="fil0" d="M1113 4923c-9,0 -17,8 -17,17 0,9 8,17 17,17 9,0 17,-8 17,-17 0,-9 -8,-17 -17,-17z"/>
  <path class="fil0" d="M482 4952c7,0 12,-5 12,-12 0,-6 -5,-12 -12,-12 -6,0 -12,6 -12,12 0,7 6,12 12,12z"/>
  <path class="fil0" d="M434 4310c0,7 5,12 12,12 6,0 12,-5 12,-12 0,-6 -6,-12 -12,-12 -7,0 -12,6 -12,12z"/>
  <path class="fil0" d="M446 4256c-10,0 -17,8 -17,17 0,9 7,17 17,17 9,0 17,-8 17,-17 0,-9 -8,-17 -17,-17z"/>
  <path class="fil0" d="M458 4904c0,-7 -6,-12 -12,-12 -7,0 -12,5 -12,12 0,6 5,12 12,12 6,0 12,-6 12,-12z"/>
  <path class="fil0" d="M446 4957c9,0 17,-7 17,-17 0,0 0,0 0,0 0,0 0,0 0,0 0,-9 -8,-17 -17,-17 -10,0 -17,8 -17,17 0,0 0,0 0,0 0,0 0,0 0,0 0,10 7,17 17,17z"/>
 </g>
</svg>
