<?xml version="1.0" encoding="UTF-8"?>
<!DOCTYPE svg PUBLIC "-//W3C//DTD SVG 1.1//EN" "http://www.w3.org/Graphics/SVG/1.1/DTD/svg11.dtd">
<!-- Creator: CorelDRAW X7 -->
<svg xmlns="http://www.w3.org/2000/svg" xml:space="preserve" width="1.4205in" height="1.46709in" version="1.1" style="shape-rendering:geometricPrecision; text-rendering:geometricPrecision; image-rendering:optimizeQuality; fill-rule:evenodd; clip-rule:evenodd"
viewBox="0 0 258 266"
 xmlns:xlink="http://www.w3.org/1999/xlink">
 <defs>
  <style type="text/css">
   <![CDATA[
    .fil2 {fill:#21506E;fill-rule:nonzero}
    .fil23 {fill:#496E8A;fill-rule:nonzero}
    .fil1 {fill:#598095;fill-rule:nonzero}
    .fil0 {fill:#7993A8;fill-rule:nonzero}
    .fil22 {fill:#89A8B6;fill-rule:nonzero}
    .fil21 {fill:#B3C6CF;fill-rule:nonzero}
    .fil20 {fill:url(#id0);fill-rule:nonzero}
    .fil19 {fill:url(#id1);fill-rule:nonzero}
    .fil5 {fill:url(#id2);fill-rule:nonzero}
    .fil7 {fill:url(#id3);fill-rule:nonzero}
    .fil9 {fill:url(#id4);fill-rule:nonzero}
    .fil18 {fill:url(#id5);fill-rule:nonzero}
    .fil10 {fill:url(#id6);fill-rule:nonzero}
    .fil13 {fill:url(#id7);fill-rule:nonzero}
    .fil11 {fill:url(#id8);fill-rule:nonzero}
    .fil6 {fill:url(#id9);fill-rule:nonzero}
    .fil16 {fill:url(#id10);fill-rule:nonzero}
    .fil8 {fill:url(#id11);fill-rule:nonzero}
    .fil12 {fill:url(#id12);fill-rule:nonzero}
    .fil15 {fill:url(#id13);fill-rule:nonzero}
    .fil4 {fill:url(#id14);fill-rule:nonzero}
    .fil14 {fill:url(#id15);fill-rule:nonzero}
    .fil17 {fill:url(#id16);fill-rule:nonzero}
    .fil3 {fill:url(#id17);fill-rule:nonzero}
   ]]>
  </style>
  <linearGradient id="id0" gradientUnits="userSpaceOnUse" x1="181.709" y1="104.471" x2="181.709" y2="114.678">
   <stop offset="0" style="stop-opacity:1; stop-color:#91704D"/>
   <stop offset="0.188235" style="stop-opacity:1; stop-color:#D99E67"/>
   <stop offset="0.439216" style="stop-opacity:1; stop-color:#91704D"/>
   <stop offset="0.701961" style="stop-opacity:1; stop-color:#D99E67"/>
   <stop offset="0.960784" style="stop-opacity:1; stop-color:#7A5E44"/>
   <stop offset="1" style="stop-opacity:1; stop-color:#7A5E44"/>
  </linearGradient>
  <linearGradient id="id1" gradientUnits="userSpaceOnUse" xlink:href="#id0" x1="125.406" y1="151.787" x2="125.406" y2="161.994">
  </linearGradient>
  <linearGradient id="id2" gradientUnits="userSpaceOnUse" xlink:href="#id0" x1="45.6999" y1="60.4495" x2="45.6999" y2="256.46">
  </linearGradient>
  <linearGradient id="id3" gradientUnits="userSpaceOnUse" xlink:href="#id0" x1="31.7596" y1="111.001" x2="31.7596" y2="251.587">
  </linearGradient>
  <linearGradient id="id4" gradientUnits="userSpaceOnUse" xlink:href="#id0" x1="177.508" y1="29.5063" x2="177.508" y2="93.3653">
  </linearGradient>
  <linearGradient id="id5" gradientUnits="userSpaceOnUse" xlink:href="#id0" x1="161.558" y1="128.158" x2="161.558" y2="138.365">
  </linearGradient>
  <linearGradient id="id6" gradientUnits="userSpaceOnUse" xlink:href="#id0" x1="248.254" y1="89.3073" x2="248.254" y2="98.6232">
  </linearGradient>
  <linearGradient id="id7" gradientUnits="userSpaceOnUse" xlink:href="#id0" x1="159.129" y1="13.4762" x2="159.129" y2="36.479">
  </linearGradient>
  <linearGradient id="id8" gradientUnits="userSpaceOnUse" xlink:href="#id0" x1="149.996" y1="27.6436" x2="149.996" y2="49.6323">
  </linearGradient>
  <linearGradient id="id9" gradientUnits="userSpaceOnUse" xlink:href="#id0" x1="63.7312" y1="254.404" x2="63.7312" y2="263.04">
  </linearGradient>
  <linearGradient id="id10" gradientUnits="userSpaceOnUse" xlink:href="#id0" x1="121.825" y1="115.393" x2="121.825" y2="155.402">
  </linearGradient>
  <linearGradient id="id11" gradientUnits="userSpaceOnUse" xlink:href="#id0" x1="25.1775" y1="249.118" x2="25.1775" y2="257.305">
  </linearGradient>
  <linearGradient id="id12" gradientUnits="userSpaceOnUse" xlink:href="#id0" x1="242.515" y1="43.9373" x2="242.515" y2="51.8192">
  </linearGradient>
  <linearGradient id="id13" gradientUnits="userSpaceOnUse" xlink:href="#id0" x1="106.747" y1="82.7353" x2="106.747" y2="133.106">
  </linearGradient>
  <linearGradient id="id14" gradientUnits="userSpaceOnUse" xlink:href="#id0" x1="114.565" y1="255.932" x2="114.565" y2="266.139">
  </linearGradient>
  <linearGradient id="id15" gradientUnits="userSpaceOnUse" xlink:href="#id0" x1="212.678" y1="11.155" x2="212.678" y2="18.6955">
  </linearGradient>
  <linearGradient id="id16" gradientUnits="userSpaceOnUse" xlink:href="#id0" x1="155.088" y1="108.601" x2="155.088" y2="121.829">
  </linearGradient>
  <linearGradient id="id17" gradientUnits="userSpaceOnUse" xlink:href="#id0" x1="72.9115" y1="113.514" x2="72.9115" y2="259.539">
  </linearGradient>
 </defs>
 <g id="OBJECTS">
  <metadata id="CorelCorpID_0Corel-Layer"/>
  <g id="_457750576">
   <g>
    <g>
     <path class="fil0" d="M228 0c9,2 18,4 30,2 -24,23 -56,36 -89,37 -21,0 -65,-8 -80,-39l139 0z"/>
    </g>
    <g>
     <g>
      <path class="fil1" d="M169 39c33,-1 65,-14 89,-37 -1,0 -1,0 -2,0 -54,31 -100,8 -137,-2l-30 0c15,31 59,39 80,39z"/>
     </g>
    </g>
    <g>
     <g>
      <path class="fil2" d="M213 12c-10,5 -21,6 -32,5 -11,-1 -22,-4 -32,-7 -10,-3 -21,-7 -31,-10l-1 0 18 0c5,2 10,3 15,5 11,3 21,6 31,8 11,2 22,2 32,-1z"/>
     </g>
     <g>
      <path class="fil2" d="M157 0c-7,3 -14,4 -21,6l-1 -6c1,0 3,0 4,0l18 0z"/>
     </g>
     <g>
      <path class="fil2" d="M200 0c-5,3 -11,6 -16,8 -6,2 -13,4 -20,5l-1 -4c7,0 14,-1 20,-3 6,-1 11,-4 16,-6l1 0z"/>
     </g>
     <g>
      <path class="fil2" d="M119 0c4,5 9,9 15,12 7,5 15,8 24,9 -9,0 -17,-3 -25,-7 -7,-3 -14,-8 -20,-14l6 0z"/>
     </g>
    </g>
   </g>
   <g>
    <g>
     <g>
      <path class="fil3" d="M111 260c-37,-42 -65,-92 -79,-146l3 0c14,53 41,103 79,143l-3 3z"/>
     </g>
     <g>
      <path class="fil4" d="M111 258c2,-2 5,-3 7,-1 2,2 2,5 0,7 -1,3 -5,3 -7,1 -2,-2 -2,-5 0,-7z"/>
     </g>
    </g>
    <g>
     <g>
      <polygon class="fil5" points="62,256 26,61 29,60 65,256 "/>
     </g>
     <g>
      <path class="fil6" d="M60 256c2,-2 5,-2 7,-1 1,2 2,5 0,7 -2,1 -4,2 -6,0 -2,-2 -2,-4 -1,-6z"/>
     </g>
    </g>
    <g>
     <g>
      <path class="fil7" d="M27 252l-3 -2c5,-15 11,-75 12,-139l4 0c-2,65 -7,124 -13,141z"/>
     </g>
     <g>
      <path class="fil8" d="M22 251c1,-2 4,-2 5,-1 2,1 3,4 2,6 -2,1 -4,2 -6,1 -2,-2 -3,-4 -1,-6z"/>
     </g>
    </g>
   </g>
   <g>
    <g>
     <g>
      <path class="fil9" d="M245 93c-40,-31 -87,-52 -137,-61l1 -2c50,9 98,30 138,61l-2 2z"/>
     </g>
     <g>
      <path class="fil10" d="M245 91c-2,2 -2,4 0,6 2,2 5,2 7,0 1,-2 1,-5 0,-6 -2,-2 -5,-2 -7,0z"/>
     </g>
    </g>
    <g>
     <g>
      <polygon class="fil11" points="240,50 60,30 60,28 240,47 "/>
     </g>
     <g>
      <path class="fil12" d="M240 45c-2,2 -2,4 0,6 1,1 4,1 5,0 2,-2 2,-4 0,-6 -1,-1 -4,-1 -5,0z"/>
     </g>
    </g>
    <g>
     <g>
      <path class="fil13" d="M106 36l0 -3c4,0 8,0 12,-1 32,-3 65,-6 93,-19l1 3c-29,13 -62,16 -94,19 -4,1 -8,1 -12,1z"/>
     </g>
     <g>
      <path class="fil14" d="M210 12c-1,1 -2,4 0,5 1,2 3,2 5,1 2,-1 2,-4 1,-5 -2,-2 -4,-2 -6,-1z"/>
     </g>
    </g>
   </g>
   <g>
    <g>
     <g>
      <path class="fil15" d="M159 133c-36,-12 -72,-28 -106,-47l2 -3c33,19 69,35 105,47l-1 3z"/>
     </g>
     <g>
      <path class="fil16" d="M125 155c-2,-6 -3,-13 -5,-19 -1,-7 -3,-13 -4,-20l3 -1c1,7 3,14 4,20 2,6 3,13 5,20l-3 0z"/>
     </g>
     <g>
      <path class="fil17" d="M130 122l0 -3c7,-2 16,-4 25,-5 9,-2 18,-4 25,-5l0 3c-7,1 -16,3 -25,5 -8,1 -17,3 -25,5z"/>
     </g>
    </g>
    <g>
     <path class="fil18" d="M157 130c2,-2 5,-3 7,-1 3,2 3,5 2,7 -2,3 -5,3 -7,1 -3,-1 -3,-4 -2,-7z"/>
    </g>
    <g>
     <path class="fil19" d="M121 154c2,-2 5,-3 7,-1 3,1 3,5 2,7 -2,2 -5,3 -8,1 -2,-2 -2,-5 -1,-7z"/>
    </g>
    <g>
     <path class="fil20" d="M178 107c1,-3 4,-3 7,-2 2,2 3,5 1,8 -2,2 -5,2 -7,1 -3,-2 -3,-5 -1,-7z"/>
    </g>
   </g>
   <g>
    <g>
     <path class="fil0" d="M0 182c5,13 7,25 4,42 24,-23 39,-54 40,-87 2,-22 -5,-69 -40,-84 -1,1 -3,2 -4,2l0 127z"/>
    </g>
    <g>
     <g>
      <path class="fil1" d="M44 137c-1,33 -16,64 -40,87 1,-1 1,-1 1,-2 43,-69 -8,-130 0,-168 34,15 41,61 39,83z"/>
     </g>
    </g>
    <g>
     <g>
      <path class="fil2" d="M16 180c5,-10 7,-21 6,-32 -1,-11 -3,-22 -6,-33 -3,-10 -6,-20 -8,-31 -3,-10 -5,-21 -3,-31l-3 -1c-2,11 -1,23 1,33 2,11 5,21 8,32 3,10 6,20 7,31 1,10 1,21 -2,32z"/>
     </g>
     <g>
      <path class="fil2" d="M0 135c2,-4 4,-7 6,-11 3,-7 5,-14 7,-22l-6 -1c0,8 -2,15 -4,22 -1,3 -2,6 -3,9l0 3z"/>
     </g>
     <g>
      <path class="fil2" d="M3 169c4,-6 7,-12 10,-19 3,-6 4,-13 6,-20l-4 0c0,7 -2,13 -4,20 -2,6 -5,13 -8,19z"/>
     </g>
     <g>
      <path class="fil2" d="M3 81c6,5 12,12 16,19 4,8 7,16 8,25 0,-9 -2,-17 -6,-26 -4,-8 -9,-15 -15,-21l-3 3z"/>
     </g>
    </g>
   </g>
   <g>
    <g>
     <path class="fil21" d="M29 66c1,-2 37,9 57,41 6,9 19,41 14,65 0,0 -31,-9 -47,-25 -20,-18 -40,-49 -24,-81z"/>
    </g>
    <g>
     <g>
      <path class="fil22" d="M100 172c0,0 0,0 0,-1l-71 -105c0,0 0,0 0,0 -16,32 4,63 24,81 16,16 47,25 47,25z"/>
     </g>
    </g>
    <g>
     <g>
      <path class="fil23" d="M30 65c4,6 9,13 14,20 4,7 9,14 13,20 5,7 9,14 13,21 5,7 9,14 13,22 -5,-7 -10,-14 -15,-20 -5,-7 -9,-14 -14,-20 -5,-7 -9,-14 -14,-21 -4,-7 -9,-14 -13,-21l3 -1z"/>
     </g>
     <g>
      <path class="fil23" d="M47 89c5,4 11,8 16,12 6,5 11,9 16,14 -6,-4 -11,-8 -17,-12 -6,-3 -12,-7 -18,-10l3 -4z"/>
     </g>
     <g>
      <path class="fil23" d="M54 101c-1,6 0,13 1,19 1,7 3,13 6,19 -4,-6 -6,-12 -8,-18 -2,-7 -4,-13 -4,-20l5 0z"/>
     </g>
    </g>
   </g>
   <g>
    <g>
     <path class="fil21" d="M111 0c4,1 8,3 12,5 10,6 36,28 43,52 0,0 -31,6 -53,0 -26,-7 -57,-23 -60,-57l58 0z"/>
    </g>
    <g>
     <g>
      <path class="fil22" d="M166 57c0,-1 0,-1 0,-1l-107 -56 -6 0c3,34 34,50 60,57 22,6 53,0 53,0z"/>
     </g>
    </g>
    <g>
     <g>
      <path class="fil23" d="M63 0c4,2 8,4 12,6 8,4 15,8 22,12 7,4 14,8 21,12 8,4 15,9 22,13 -8,-3 -15,-7 -23,-10 -7,-4 -14,-8 -22,-11 -7,-4 -14,-8 -22,-12 -6,-3 -12,-7 -18,-10l8 0z"/>
     </g>
     <g>
      <path class="fil23" d="M80 9c7,0 14,1 20,3 7,1 14,2 21,4 -7,-1 -14,-2 -21,-2 -7,0 -13,-1 -20,0l0 -5z"/>
     </g>
     <g>
      <path class="fil23" d="M92 16c2,6 6,11 10,16 4,5 9,10 14,14 -6,-3 -11,-7 -16,-12 -4,-5 -9,-10 -12,-16l4 -2z"/>
     </g>
    </g>
   </g>
   <g>
    <g>
     <path class="fil0" d="M58 5c19,13 29,34 43,52 14,18 23,32 47,42 -34,9 -71,5 -102,-12 -13,-7 -34,-23 -46,-43l0 -44 47 0c5,2 8,4 11,5z"/>
    </g>
    <g>
     <g>
      <path class="fil1" d="M46 87c31,17 68,21 102,12 0,0 -1,-1 -1,-1 -82,1 -111,-68 -147,-89l0 35c12,20 33,36 46,43z"/>
     </g>
    </g>
    <g>
     <g>
      <path class="fil2" d="M101 85c-12,-1 -23,-6 -33,-13 -9,-6 -18,-15 -26,-23 -8,-8 -16,-17 -24,-25 -6,-5 -12,-11 -18,-15l0 -5c8,5 15,10 21,16 9,8 17,17 25,25 8,9 16,17 25,24 9,7 19,13 30,16z"/>
     </g>
     <g>
      <path class="fil2" d="M79 45c-8,0 -16,0 -24,-1 -8,-1 -16,-3 -23,-6l2 -5c7,3 14,6 22,8 7,2 15,3 23,4z"/>
     </g>
     <g>
      <path class="fil2" d="M98 66c-7,1 -15,1 -22,0 -7,-2 -15,-4 -22,-6l2 -4c6,3 13,6 20,8 7,1 15,2 22,2z"/>
     </g>
     <g>
      <path class="fil2" d="M18 17c1,9 4,18 8,26 5,8 11,16 19,21 -8,-5 -15,-12 -21,-19 -5,-8 -9,-17 -11,-27l5 -1z"/>
     </g>
    </g>
   </g>
  </g>
 </g>
</svg>
