<svg width="265" height="280" viewBox="0 0 265 280" fill="none" xmlns="http://www.w3.org/2000/svg">
<g clip-path="url(#clip0)">
<path d="M234.181 0.244492C243.425 2.3461 252.669 4.44772 264.995 2.3461C240.344 26.5147 207.476 40.1751 173.58 41.226C152.01 41.226 106.817 32.8195 91.4097 0.244492H234.181Z" fill="#7993A8"/>
<path d="M173.58 41.226C207.476 40.1751 240.344 26.5147 264.995 2.3461C263.968 2.3461 263.968 2.3461 262.941 2.3461C207.476 34.9211 160.228 10.7526 122.224 0.244492H91.4097C106.817 32.8195 152.01 41.226 173.58 41.226Z" fill="#598095"/>
<path d="M218.755 12.8542C208.484 18.1082 197.185 19.159 185.887 18.1082C174.589 17.0574 163.29 13.905 153.019 10.7526C142.747 7.60014 131.449 3.39691 121.178 0.244492H120.151H138.639C143.775 2.3461 148.91 3.39691 154.046 5.49852C165.344 8.65094 175.616 11.8034 185.887 13.905C197.185 16.0066 208.484 16.0066 218.755 12.8542Z" fill="#21506E"/>
<path d="M161.238 0.244492C154.048 3.39691 146.858 4.44772 139.668 6.54933L138.641 0.244492C139.668 0.244492 141.722 0.244492 142.749 0.244492H161.238Z" fill="#21506E"/>
<path d="M205.406 0.244492C200.271 3.39691 194.108 6.54933 188.972 8.65095C182.809 10.7526 175.62 12.8542 168.43 13.905L167.403 9.70175C174.592 9.70175 181.782 8.65095 187.945 6.54933C194.108 5.49853 199.244 2.34611 204.379 0.244492H205.406Z" fill="#21506E"/>
<path d="M122.213 0.244492C126.321 5.49852 131.457 9.70175 137.62 12.8542C144.81 18.1082 153.027 21.2606 162.271 22.3114C153.027 22.3114 144.81 19.159 136.593 14.9558C129.403 11.8034 122.213 6.54933 116.05 0.244492H122.213Z" fill="#21506E"/>
<path d="M0 191.492C5.13566 205.152 7.18992 217.762 4.10853 235.625C28.7597 211.457 44.1667 178.882 45.1938 144.205C47.2481 121.087 40.0581 71.6995 4.10853 55.9374C3.0814 56.9882 1.02713 58.0391 0 58.0391V191.492Z" fill="#7993A8"/>
<path d="M45.1858 144.208C44.1587 178.885 28.7517 211.46 4.10052 235.628C5.12766 234.578 5.12766 234.578 5.12766 233.527C49.2943 161.021 -3.0894 96.922 5.12766 56.9913C40.0501 72.7534 47.2401 121.091 45.1858 144.208Z" fill="#598095"/>
<path d="M16.4338 189.392C21.5695 178.884 23.6237 167.325 22.5966 155.766C21.5695 144.207 19.5152 132.648 16.4338 121.09C13.3524 110.582 10.271 100.073 8.21674 88.5146C5.13535 78.0065 3.08108 66.4477 5.13535 55.9396L2.05395 54.8888C-0.000311315 66.4477 1.02682 79.0573 3.08108 89.5654C5.13535 101.124 8.21674 111.632 11.2981 123.191C14.3795 133.699 17.4609 144.207 18.4881 155.766C19.5152 166.274 19.5152 177.833 16.4338 189.392Z" fill="#21506E"/>
<path d="M0 142.104C2.05426 137.901 4.10853 134.748 6.16279 130.545C9.24419 123.19 11.2984 115.834 13.3527 107.427L7.18992 106.377C7.18992 114.783 5.13566 122.139 3.0814 129.494C2.05426 132.647 1.02713 135.799 0 138.952V142.104Z" fill="#21506E"/>
<path d="M3.07495 177.831C7.18348 171.526 10.2649 165.222 13.3463 157.866C16.4277 151.561 17.4548 144.205 19.5091 136.85H15.4005C15.4005 144.205 13.3463 150.51 11.292 157.866C9.23774 164.171 6.15635 171.526 3.07495 177.831Z" fill="#21506E"/>
<path d="M3.07495 85.3636C9.23774 90.6176 15.4005 97.9732 19.5091 105.329C23.6176 113.735 26.699 122.142 27.7261 131.599C27.7261 122.142 25.6718 113.735 21.5633 104.278C17.4548 95.8716 12.3191 88.516 6.15635 82.2111L3.07495 85.3636Z" fill="#21506E"/>
<path d="M29.792 69.5956C30.8191 67.494 67.7959 79.0529 88.3385 112.679C94.5013 122.136 107.854 155.762 102.718 180.981C102.718 180.981 70.8773 171.524 54.4432 154.711C33.9005 135.796 13.3579 103.221 29.792 69.5956Z" fill="#B3C6CF"/>
<path d="M102.718 180.981C102.718 180.981 102.718 180.981 102.718 179.93L29.792 69.5956C13.3579 103.221 33.9005 135.796 54.4432 154.711C70.8773 171.524 102.718 180.981 102.718 180.981Z" fill="#89A8B6"/>
<path d="M30.8176 68.547C34.9261 74.8518 40.0618 82.2074 45.1974 89.5631C49.306 96.9187 54.4416 104.274 58.5502 110.579C63.6858 117.935 67.7943 125.291 71.9029 132.646C77.0385 140.002 81.1471 147.357 85.2556 155.764C80.1199 148.408 74.9843 141.053 69.8486 134.748C64.713 127.392 60.6044 120.036 55.4688 113.732C50.3331 106.376 46.2246 99.0203 41.0889 91.6647C36.9804 84.3091 31.8447 76.9534 27.7362 69.5978L30.8176 68.547Z" fill="#496E8A"/>
<path d="M48.2838 93.7668C53.4195 97.97 59.5823 102.173 64.718 106.376C70.8808 111.63 76.0164 115.834 81.1521 121.088C74.9893 116.885 69.8536 112.681 63.6908 108.478C57.528 105.326 51.3652 101.122 45.2025 97.97L48.2838 93.7668Z" fill="#496E8A"/>
<path d="M55.4626 106.376C54.4355 112.681 55.4626 120.037 56.4898 126.342C57.5169 133.697 59.5712 140.002 62.6526 146.307C58.544 140.002 56.4898 133.697 54.4355 127.392C52.3812 120.037 50.327 113.732 50.327 106.376H55.4626Z" fill="#496E8A"/>
<path d="M114.001 0.244492C118.11 1.2953 122.218 3.39691 126.327 5.49852C136.598 11.8034 163.303 34.9211 170.493 60.1405C170.493 60.1405 138.652 66.4453 116.055 60.1405C89.35 52.7848 57.5089 35.9719 54.4275 0.244492H114.001Z" fill="#B3C6CF"/>
<path d="M170.493 60.1405C170.493 59.0897 170.493 59.0897 170.493 59.0897L60.5903 0.244492H54.4275C57.5089 35.9719 89.35 52.7848 116.055 60.1405C138.652 66.4453 170.493 60.1405 170.493 60.1405Z" fill="#89A8B6"/>
<path d="M64.694 0.244492C68.8026 2.3461 72.9111 4.44772 77.0196 6.54933C85.2367 10.7526 92.4266 14.9558 99.6165 19.159C106.806 23.3622 113.996 27.5655 121.186 31.7687C129.403 35.9719 136.593 41.2259 143.783 45.4292C135.566 42.2768 128.376 38.0735 120.159 34.9211C112.969 30.7179 105.779 26.5147 97.5623 23.3622C90.3723 19.159 83.1824 14.9558 74.9654 10.7526C68.8026 7.60014 62.6398 3.39691 56.477 0.244492H64.694Z" fill="#496E8A"/>
<path d="M82.1637 9.70322C89.3536 9.70322 96.5435 10.754 102.706 12.8556C109.896 13.9064 117.086 14.9572 124.276 17.0589C117.086 16.0081 109.896 14.9572 102.706 14.9572C95.5164 14.9572 89.3536 13.9064 82.1637 14.9572V9.70322Z" fill="#496E8A"/>
<path d="M94.4718 17.0595C96.5261 23.3643 100.635 28.6183 104.743 33.8724C108.852 39.1264 113.987 44.3804 119.123 48.5837C112.96 45.4312 107.825 41.228 102.689 35.974C98.5803 30.72 93.4447 25.4659 90.3633 19.1611L94.4718 17.0595Z" fill="#496E8A"/>
<path d="M59.5736 5.4823C79.0891 19.1428 89.3605 41.2097 103.74 60.1242C118.12 79.0388 127.364 93.7501 152.016 104.258C117.093 113.715 79.0891 109.512 47.2481 91.6485C33.8953 84.2928 12.3256 67.4799 0 46.4638V0.228271H48.2752C53.4109 2.32988 56.4922 4.4315 59.5736 5.4823Z" fill="#7993A8"/>
<path d="M47.2481 91.6661C79.0891 109.53 117.093 113.733 152.016 104.276L150.988 103.225C66.7636 104.276 36.9767 31.7702 0 9.70322V46.4814C12.3256 67.4976 33.8953 84.3105 47.2481 91.6661Z" fill="#598095"/>
<path d="M103.74 89.5649C91.4147 88.5141 80.1163 83.2601 69.845 75.9044C60.6008 69.5996 51.3566 60.1423 43.1395 51.7359C34.9225 43.3294 26.7054 33.8721 18.4884 25.4657C12.3256 20.2117 6.16279 13.9068 0 9.70359V4.44955C8.21705 9.70359 15.407 14.9576 21.5698 21.2625C30.8139 29.6689 39.031 39.1262 47.2481 47.5326C55.4651 56.9899 63.6822 65.3963 72.9263 72.752C82.1705 80.1076 92.4418 86.4125 103.74 89.5649Z" fill="#21506E"/>
<path d="M81.1374 47.5324C72.9203 47.5324 64.7033 47.5324 56.4862 46.4816C48.2692 45.4307 40.0521 43.3291 32.8622 40.1767L34.9164 34.9227C42.1064 38.0751 49.2963 41.2275 57.5133 43.3291C64.7033 45.4307 72.9203 46.4816 81.1374 47.5324Z" fill="#21506E"/>
<path d="M100.668 69.6019C93.4779 70.6527 85.2608 70.6527 78.0709 69.6019C70.881 67.5003 62.6639 65.3987 55.474 63.2971L57.5283 59.0939C63.6911 62.2463 70.881 65.3987 78.0709 67.5003C85.2608 68.5511 93.4779 69.6019 100.668 69.6019Z" fill="#21506E"/>
<path d="M18.4806 18.1081C19.5077 27.5654 22.5891 37.0226 26.6976 45.4291C31.8333 53.8355 37.9961 62.242 46.2131 67.496C37.9961 62.242 30.8062 54.8863 24.6434 47.5307C19.5077 39.1242 15.3992 29.667 13.3449 19.1589L18.4806 18.1081Z" fill="#21506E"/>
</g>
<defs>
<clipPath id="clip0">
<rect width="265" height="280" fill="white"/>
</clipPath>
</defs>
</svg>
