<svg width="265" height="280" viewBox="0 0 265 280" fill="none" xmlns="http://www.w3.org/2000/svg">
<g clip-path="url(#clip0)">
<path d="M30.819 279.755C21.5748 277.654 12.3306 275.552 0.00506592 277.654C24.6562 253.485 57.5244 239.825 91.4198 238.774C112.99 238.774 158.183 247.18 173.59 279.755H30.819Z" fill="#7993A8"/>
<path d="M91.4198 238.774C57.5244 239.825 24.6562 253.485 0.00506592 277.654C1.0322 277.654 1.0322 277.654 2.05933 277.654C57.5244 245.079 104.772 269.247 142.776 279.755H173.59C158.183 247.18 112.99 238.774 91.4198 238.774Z" fill="#598095"/>
<path d="M46.2448 267.146C56.5161 261.892 67.8146 260.841 79.113 261.892C90.4115 262.943 101.71 266.095 111.981 269.247C122.253 272.4 133.551 276.603 143.822 279.755H144.849H126.361C121.225 277.654 116.09 276.603 110.954 274.501C99.6557 271.349 89.3844 268.197 79.113 266.095C67.8146 263.993 56.5161 263.993 46.2448 267.146Z" fill="#21506E"/>
<path d="M103.762 279.755C110.952 276.603 118.142 275.552 125.332 273.451L126.359 279.755C125.332 279.755 123.278 279.755 122.251 279.755H103.762Z" fill="#21506E"/>
<path d="M59.5937 279.755C64.7293 276.603 70.8921 273.451 76.0278 271.349C82.1906 269.247 89.3805 267.146 96.5704 266.095L97.5975 270.298C90.4076 270.298 83.2177 271.349 77.0549 273.451C70.8921 274.501 65.7565 277.654 60.6208 279.755H59.5937Z" fill="#21506E"/>
<path d="M142.787 279.755C138.679 274.501 133.543 270.298 127.38 267.146C120.19 261.892 111.973 258.739 102.729 257.689C111.973 257.689 120.19 260.841 128.407 265.044C135.597 268.197 142.787 273.451 148.95 279.755H142.787Z" fill="#21506E"/>
<path d="M265 88.5085C259.864 74.848 257.81 62.2383 260.891 44.3746C236.24 68.5432 220.833 101.118 219.806 135.795C217.752 158.913 224.942 208.3 260.891 224.063C261.919 223.012 263.973 221.961 265 221.961V88.5085Z" fill="#7993A8"/>
<path d="M219.814 135.792C220.841 101.115 236.248 68.5401 260.899 44.3716C259.872 45.4224 259.872 45.4224 259.872 46.4732C215.706 118.979 268.089 183.078 259.872 223.009C224.95 207.247 217.76 158.909 219.814 135.792Z" fill="#598095"/>
<path d="M248.566 90.608C243.431 101.116 241.376 112.675 242.403 124.234C243.431 135.793 245.485 147.352 248.566 158.91C251.648 169.418 254.729 179.927 256.783 191.485C259.865 201.993 261.919 213.552 259.865 224.06L262.946 225.111C265 213.552 263.973 200.943 261.919 190.435C259.865 178.876 256.783 168.368 253.702 156.809C250.62 146.301 247.539 135.793 246.512 124.234C245.485 113.726 245.485 102.167 248.566 90.608Z" fill="#21506E"/>
<path d="M265 137.896C262.946 142.099 260.891 145.252 258.837 149.455C255.756 156.81 253.702 164.166 251.647 172.572L257.81 173.623C257.81 165.217 259.864 157.861 261.919 150.506C262.946 147.353 263.973 144.201 265 141.048V137.896Z" fill="#21506E"/>
<path d="M261.925 102.169C257.817 108.474 254.735 114.778 251.654 122.134C248.572 128.439 247.545 135.795 245.491 143.15H249.599C249.599 135.795 251.654 129.49 253.708 122.134C255.762 115.829 258.844 108.474 261.925 102.169Z" fill="#21506E"/>
<path d="M261.925 194.636C255.762 189.382 249.599 182.027 245.491 174.671C241.382 166.265 238.301 157.858 237.274 148.401C237.274 157.858 239.328 166.265 243.437 175.722C247.545 184.128 252.681 191.484 258.844 197.789L261.925 194.636Z" fill="#21506E"/>
<path d="M235.208 210.404C234.181 212.506 197.204 200.947 176.662 167.321C170.499 157.864 157.146 124.238 162.282 99.0189C162.282 99.0189 194.123 108.476 210.557 125.289C231.1 144.204 251.642 176.779 235.208 210.404Z" fill="#B3C6CF"/>
<path d="M162.282 99.0189C162.282 99.0189 162.282 99.0189 162.282 100.07L235.208 210.404C251.642 176.779 231.1 144.204 210.557 125.289C194.123 108.476 162.282 99.0189 162.282 99.0189Z" fill="#89A8B6"/>
<path d="M234.182 211.453C230.074 205.148 224.938 197.793 219.803 190.437C215.694 183.081 210.558 175.726 206.45 169.421C201.314 162.065 197.206 154.71 193.097 147.354C187.961 139.998 183.853 132.643 179.744 124.236C184.88 131.592 190.016 138.947 195.151 145.252C200.287 152.608 204.396 159.964 209.531 166.268C214.667 173.624 218.775 180.98 223.911 188.335C228.02 195.691 233.155 203.047 237.264 210.402L234.182 211.453Z" fill="#496E8A"/>
<path d="M216.716 186.233C211.58 182.03 205.418 177.827 200.282 173.624C194.119 168.37 188.984 164.166 183.848 158.912C190.011 163.115 195.146 167.319 201.309 171.522C207.472 174.674 213.635 178.878 219.797 182.03L216.716 186.233Z" fill="#496E8A"/>
<path d="M209.537 173.624C210.564 167.319 209.537 159.963 208.51 153.658C207.483 146.303 205.429 139.998 202.347 133.693C206.456 139.998 208.51 146.303 210.564 152.608C212.619 159.963 214.673 166.268 214.673 173.624H209.537Z" fill="#496E8A"/>
<path d="M150.999 279.755C146.89 278.705 142.782 276.603 138.673 274.501C128.402 268.197 101.697 245.079 94.5066 219.86C94.5066 219.86 126.348 213.555 148.945 219.86C175.65 227.215 207.491 244.028 210.573 279.755H150.999Z" fill="#B3C6CF"/>
<path d="M94.5066 219.86C94.5066 220.91 94.5066 220.91 94.5066 220.91L204.41 279.755H210.573C207.491 244.028 175.65 227.215 148.945 219.86C126.348 213.555 94.5066 219.86 94.5066 219.86Z" fill="#89A8B6"/>
<path d="M200.306 279.755C196.197 277.654 192.089 275.552 187.98 273.451C179.763 269.247 172.573 265.044 165.383 260.841C158.193 256.638 151.004 252.435 143.814 248.231C135.597 244.028 128.407 238.774 121.217 234.571C129.434 237.723 136.624 241.926 144.841 245.079C152.031 249.282 159.221 253.485 167.438 256.638C174.628 260.841 181.818 265.044 190.035 269.247C196.197 272.4 202.36 276.603 208.523 279.755H200.306Z" fill="#496E8A"/>
<path d="M182.836 270.297C175.646 270.297 168.456 269.246 162.294 267.144C155.104 266.094 147.914 265.043 140.724 262.941C147.914 263.992 155.104 265.043 162.294 265.043C169.484 265.043 175.646 266.094 182.836 265.043V270.297Z" fill="#496E8A"/>
<path d="M170.528 262.941C168.474 256.636 164.365 251.382 160.257 246.128C156.148 240.874 151.013 235.62 145.877 231.416C152.04 234.569 157.175 238.772 162.311 244.026C166.42 249.28 171.555 254.534 174.637 260.839L170.528 262.941Z" fill="#496E8A"/>
<path d="M205.426 274.518C185.911 260.857 175.64 238.79 161.26 219.876C146.88 200.961 137.636 186.25 112.984 175.742C147.907 166.285 185.911 170.488 217.752 188.352C231.105 195.707 252.674 212.52 265 233.536V279.772H216.725C211.589 277.67 208.508 275.569 205.426 274.518Z" fill="#7993A8"/>
<path d="M217.752 188.334C185.911 170.47 147.907 166.267 112.984 175.724L114.012 176.775C198.236 175.724 228.023 248.23 265 270.297V233.519C252.674 212.502 231.105 195.689 217.752 188.334Z" fill="#598095"/>
<path d="M161.26 190.435C173.585 191.486 184.884 196.74 195.155 204.096C204.399 210.4 213.643 219.858 221.86 228.264C230.078 236.671 238.295 246.128 246.512 254.534C252.674 259.788 258.837 266.093 265 270.296V275.55C256.783 270.296 249.593 265.042 243.43 258.738C234.186 250.331 225.969 240.874 217.752 232.467C209.535 223.01 201.318 214.604 192.074 207.248C182.829 199.892 172.558 193.587 161.26 190.435Z" fill="#21506E"/>
<path d="M183.863 232.468C192.08 232.468 200.297 232.468 208.514 233.518C216.731 234.569 224.948 236.671 232.138 239.823L230.084 245.077C222.894 241.925 215.704 238.772 207.487 236.671C200.297 234.569 192.08 233.518 183.863 232.468Z" fill="#21506E"/>
<path d="M164.332 210.398C171.522 209.347 179.739 209.347 186.929 210.398C194.119 212.5 202.336 214.601 209.526 216.703L207.472 220.906C201.309 217.754 194.119 214.601 186.929 212.5C179.739 211.449 171.522 210.398 164.332 210.398Z" fill="#21506E"/>
<path d="M246.519 261.892C245.492 252.435 242.411 242.977 238.302 234.571C233.167 226.164 227.004 217.758 218.787 212.504C227.004 217.758 234.194 225.114 240.357 232.469C245.492 240.876 249.601 250.333 251.655 260.841L246.519 261.892Z" fill="#21506E"/>
</g>
<defs>
<clipPath id="clip0">
<rect width="265" height="280" fill="white" transform="translate(265 280) rotate(-180)"/>
</clipPath>
</defs>
</svg>
