<svg width="100" height="100" viewBox="0 0 100 100" fill="none" xmlns="http://www.w3.org/2000/svg">
<circle cx="50" cy="50" r="50" fill="#B96D70"/>
<path d="M72.5752 38.2325C71.8553 36.5655 70.8172 35.0549 69.519 33.7852C68.2199 32.5117 66.6883 31.4997 65.0073 30.8042C63.2643 30.0802 61.3948 29.7096 59.5073 29.7139C56.8594 29.7139 54.2759 30.439 52.0308 31.8086C51.4937 32.1363 50.9834 32.4961 50.5 32.8882C50.0166 32.4961 49.5063 32.1363 48.9692 31.8086C46.7241 30.439 44.1406 29.7139 41.4927 29.7139C39.5859 29.7139 37.7383 30.0791 35.9927 30.8042C34.3062 31.5025 32.7861 32.5069 31.481 33.7852C30.1811 35.0534 29.1428 36.5644 28.4248 38.2325C27.6782 39.9673 27.2969 41.8096 27.2969 43.7056C27.2969 45.4942 27.6621 47.3579 28.3872 49.2539C28.9941 50.8384 29.8643 52.482 30.9761 54.1416C32.7378 56.7681 35.1602 59.5074 38.168 62.2842C43.1523 66.8872 48.0884 70.0669 48.2979 70.1958L49.5708 71.0122C50.1348 71.3721 50.8599 71.3721 51.4238 71.0122L52.6968 70.1958C52.9063 70.0616 57.8369 66.8872 62.8267 62.2842C65.8345 59.5074 68.2568 56.7681 70.0186 54.1416C71.1304 52.482 72.0059 50.8384 72.6074 49.2539C73.3325 47.3579 73.6978 45.4942 73.6978 43.7056C73.7031 41.8096 73.3218 39.9673 72.5752 38.2325Z" fill="white"/>
</svg>
