<svg width="100" height="100" viewBox="0 0 100 100" fill="none" xmlns="http://www.w3.org/2000/svg">
<circle cx="50" cy="50" r="50" fill="#B96D70"/>
<path d="M43.625 28.875H67.6875C68.5992 28.875 69.4735 29.2372 70.1182 29.8818C70.7628 30.5265 71.125 31.4008 71.125 32.3125V52.9375C71.125 53.8492 70.7628 54.7235 70.1182 55.3682C69.4735 56.0128 68.5992 56.375 67.6875 56.375H50.5V59.8125H57.375V63.25H50.5V66.6875H62.5313C62.9871 66.6875 63.4243 66.5064 63.7466 66.1841C64.0689 65.8618 64.25 65.4246 64.25 64.9688C64.25 64.5129 64.0689 64.0757 63.7466 63.7534C63.4243 63.4311 62.9871 63.25 62.5313 63.25H60.8125V59.8125H67.6875C69.5109 59.8125 71.2595 59.0882 72.5489 57.7989C73.8382 56.5095 74.5625 54.7609 74.5625 52.9375V32.3125C74.5625 30.4891 73.8382 28.7405 72.5489 27.4511C71.2595 26.1618 69.5109 25.4375 67.6875 25.4375H43.625C41.8016 25.4375 40.053 26.1618 38.7636 27.4511C37.4743 28.7405 36.75 30.4891 36.75 32.3125V39.1875H40.1875V32.3125C40.1875 31.4008 40.5497 30.5265 41.1943 29.8818C41.839 29.2372 42.7133 28.875 43.625 28.875Z" fill="white"/>
<path d="M35.0313 63.25C34.5754 63.25 34.1382 63.4311 33.8159 63.7534C33.4936 64.0757 33.3125 64.5129 33.3125 64.9688C33.3125 65.4246 33.4936 65.8618 33.8159 66.1841C34.1382 66.5064 34.5754 66.6875 35.0313 66.6875H38.4688C38.9246 66.6875 39.3618 66.5064 39.6841 66.1841C40.0064 65.8618 40.1875 65.4246 40.1875 64.9688C40.1875 64.5129 40.0064 64.0757 39.6841 63.7534C39.3618 63.4311 38.9246 63.25 38.4688 63.25H35.0313Z" fill="white"/>
<path d="M31.5938 42.625C30.2262 42.625 28.9147 43.1682 27.9477 44.1352C26.9807 45.1022 26.4375 46.4137 26.4375 47.7812V68.4062C26.4375 69.7738 26.9807 71.0853 27.9477 72.0523C28.9147 73.0193 30.2262 73.5625 31.5938 73.5625H41.9062C43.2738 73.5625 44.5853 73.0193 45.5523 72.0523C46.5193 71.0853 47.0625 69.7738 47.0625 68.4062V47.7812C47.0625 46.4137 46.5193 45.1022 45.5523 44.1352C44.5853 43.1682 43.2738 42.625 41.9062 42.625H31.5938ZM31.5938 46.0625H41.9062C42.3621 46.0625 42.7993 46.2436 43.1216 46.5659C43.4439 46.8882 43.625 47.3254 43.625 47.7812V68.4062C43.625 68.8621 43.4439 69.2993 43.1216 69.6216C42.7993 69.9439 42.3621 70.125 41.9062 70.125H31.5938C31.1379 70.125 30.7007 69.9439 30.3784 69.6216C30.0561 69.2993 29.875 68.8621 29.875 68.4062V47.7812C29.875 47.3254 30.0561 46.8882 30.3784 46.5659C30.7007 46.2436 31.1379 46.0625 31.5938 46.0625Z" fill="white"/>
</svg>
