<svg width="100" height="100" viewBox="0 0 100 100" fill="none" xmlns="http://www.w3.org/2000/svg">
<circle cx="50" cy="50" r="50" fill="#B96D70"/>
<path opacity="0.2" d="M50.5 69.4062C60.9416 69.4062 69.4062 60.9416 69.4062 50.5C69.4062 40.0584 60.9416 31.5938 50.5 31.5938C40.0584 31.5938 31.5938 40.0584 31.5938 50.5C31.5938 60.9416 40.0584 69.4062 50.5 69.4062Z" fill="white"/>
<path d="M50.5 38.4688C50.0442 38.4688 49.607 38.6498 49.2847 38.9722C48.9623 39.2945 48.7812 39.7317 48.7812 40.1875V50.5C48.7812 50.5157 48.7832 50.5307 48.7834 50.5462C48.7847 50.5808 48.7858 50.6154 48.7888 50.6497C48.7909 50.6764 48.7948 50.7026 48.7982 50.7288C48.8021 50.7567 48.8057 50.7845 48.8111 50.812C48.8213 50.8657 48.8338 50.9189 48.8485 50.9716C48.8639 51.025 48.8817 51.0776 48.902 51.1293C48.9651 51.2875 49.0506 51.4358 49.1559 51.5697C49.2252 51.6556 49.302 51.7351 49.3856 51.8071C49.4067 51.8249 49.4286 51.8419 49.4503 51.8589C49.4718 51.8752 49.4928 51.8918 49.5149 51.9072C49.5429 51.927 49.5721 51.945 49.6011 51.9631C49.6146 51.9712 49.6269 51.9805 49.6406 51.9884L58.5717 57.1447C58.9662 57.369 59.4335 57.4282 59.8715 57.3093C60.3095 57.1903 60.6827 56.903 60.9096 56.5099C61.1366 56.1169 61.1988 55.65 61.0828 55.2112C60.9668 54.7724 60.682 54.3974 60.2904 54.1678L52.2187 49.5079V40.1875C52.2187 39.7317 52.0377 39.2945 51.7153 38.9722C51.393 38.6498 50.9558 38.4688 50.5 38.4688Z" fill="white"/>
<path d="M65.084 35.9159C61.2131 32.0537 55.9682 29.8846 50.5 29.8846C45.0318 29.8846 39.7869 32.0537 35.916 35.9159L31.5579 40.2738V35.8296C31.5579 35.3737 31.3768 34.9365 31.0545 34.6142C30.7321 34.2919 30.295 34.1108 29.8391 34.1108C29.3833 34.1108 28.9461 34.2919 28.6238 34.6142C28.3015 34.9365 28.1204 35.3737 28.1204 35.8296V44.4233L28.1208 44.428C28.1209 44.483 28.1237 44.538 28.1292 44.5928C28.1315 44.6186 28.1365 44.6439 28.1399 44.6697C28.1444 44.6996 28.1479 44.7295 28.1537 44.7591C28.1597 44.7883 28.1676 44.8167 28.1749 44.8455C28.1814 44.871 28.187 44.8966 28.1945 44.922C28.2031 44.9503 28.2138 44.9778 28.2237 45.0055C28.2327 45.0307 28.2409 45.0558 28.2512 45.0807C28.262 45.1065 28.2746 45.1314 28.2865 45.1568C28.2987 45.1823 28.3101 45.2081 28.3234 45.2333C28.3363 45.2575 28.3513 45.281 28.3657 45.3046C28.3801 45.3289 28.3939 45.3536 28.4098 45.3772C28.4276 45.4038 28.4474 45.4292 28.4667 45.4546C28.4811 45.4739 28.4946 45.4937 28.5099 45.5126C28.5819 45.6003 28.6625 45.6808 28.7503 45.7528C28.7686 45.7678 28.7879 45.7807 28.8068 45.7951C28.8328 45.8146 28.8584 45.8346 28.8854 45.8529C28.9086 45.8683 28.9329 45.8819 28.957 45.8963C28.981 45.9107 29.0047 45.9259 29.0294 45.9392C29.0541 45.9521 29.0794 45.9633 29.1046 45.9753C29.1304 45.9876 29.1555 46.0003 29.1819 46.0112C29.2062 46.0213 29.2309 46.0293 29.2554 46.0381C29.2838 46.0484 29.3119 46.0591 29.3409 46.0681C29.3652 46.0755 29.3901 46.0808 29.4146 46.0871C29.4442 46.0946 29.4737 46.1027 29.5038 46.1087C29.5319 46.1143 29.5603 46.1173 29.5884 46.1216C29.6157 46.1257 29.6425 46.1307 29.67 46.1335C29.7201 46.1384 29.7704 46.1405 29.8204 46.141C29.8269 46.141 29.8329 46.1421 29.8391 46.1421H38.4329C38.8887 46.1421 39.3259 45.961 39.6482 45.6386C39.9705 45.3163 40.1516 44.8791 40.1516 44.4233C40.1516 43.9675 39.9705 43.5303 39.6482 43.208C39.3259 42.8856 38.8887 42.7046 38.4329 42.7046H33.9886L38.3467 38.3462C40.7504 35.9425 43.813 34.3056 47.147 33.6424C50.4811 32.9792 53.9369 33.3196 57.0775 34.6204C60.2181 35.9213 62.9024 38.1243 64.791 40.9508C66.6796 43.7772 67.6876 47.1003 67.6876 50.4996C67.6876 53.899 66.6796 57.222 64.791 60.0485C62.9024 62.875 60.2181 65.0779 57.0775 66.3788C53.9369 67.6797 50.4811 68.0201 47.147 67.3569C43.813 66.6937 40.7504 65.0567 38.3467 62.653C38.0244 62.3307 37.5871 62.1496 37.1313 62.1496C36.6754 62.1496 36.2382 62.3307 35.9159 62.6531C35.5935 62.9755 35.4125 63.4127 35.4125 63.8686C35.4125 64.3244 35.5936 64.7616 35.916 65.084C39.7875 68.9345 45.028 71.0927 50.4884 71.0853C55.9488 71.0778 61.1834 68.9054 65.0444 65.0444C68.9055 61.1833 71.0779 55.9487 71.0853 50.4883C71.0927 45.028 68.9346 39.7875 65.084 35.9159Z" fill="white"/>
</svg>
