<svg width="100" height="100" viewBox="0 0 100 100" fill="none" xmlns="http://www.w3.org/2000/svg">
<circle cx="50" cy="50" r="50" fill="#B96D70"/>
<path d="M65.5416 32.1667H60.9583V29.875C60.9583 29.2673 60.7169 28.6844 60.2871 28.2546C59.8573 27.8248 59.2744 27.5834 58.6666 27.5834C58.0589 27.5834 57.476 27.8248 57.0462 28.2546C56.6164 28.6844 56.375 29.2673 56.375 29.875V32.1667H42.625V29.875C42.625 29.2673 42.3835 28.6844 41.9538 28.2546C41.524 27.8248 40.9411 27.5834 40.3333 27.5834C39.7255 27.5834 39.1426 27.8248 38.7129 28.2546C38.2831 28.6844 38.0416 29.2673 38.0416 29.875V32.1667H33.4583C31.6349 32.1667 29.8863 32.891 28.597 34.1803C27.3076 35.4697 26.5833 37.2183 26.5833 39.0417V66.5417C26.5833 68.3651 27.3076 70.1138 28.597 71.4031C29.8863 72.6924 31.6349 73.4167 33.4583 73.4167H65.5416C67.365 73.4167 69.1137 72.6924 70.403 71.4031C71.6923 70.1138 72.4166 68.3651 72.4166 66.5417V39.0417C72.4166 37.2183 71.6923 35.4697 70.403 34.1803C69.1137 32.891 67.365 32.1667 65.5416 32.1667ZM67.8333 66.5417C67.8333 67.1495 67.5919 67.7324 67.1621 68.1622C66.7323 68.5919 66.1494 68.8334 65.5416 68.8334H33.4583C32.8505 68.8334 32.2676 68.5919 31.8379 68.1622C31.4081 67.7324 31.1666 67.1495 31.1666 66.5417V50.5H67.8333V66.5417ZM67.8333 45.9167H31.1666V39.0417C31.1666 38.4339 31.4081 37.851 31.8379 37.4213C32.2676 36.9915 32.8505 36.75 33.4583 36.75H38.0416V39.0417C38.0416 39.6495 38.2831 40.2324 38.7129 40.6622C39.1426 41.0919 39.7255 41.3334 40.3333 41.3334C40.9411 41.3334 41.524 41.0919 41.9538 40.6622C42.3835 40.2324 42.625 39.6495 42.625 39.0417V36.75H56.375V39.0417C56.375 39.6495 56.6164 40.2324 57.0462 40.6622C57.476 41.0919 58.0589 41.3334 58.6666 41.3334C59.2744 41.3334 59.8573 41.0919 60.2871 40.6622C60.7169 40.2324 60.9583 39.6495 60.9583 39.0417V36.75H65.5416C66.1494 36.75 66.7323 36.9915 67.1621 37.4213C67.5919 37.851 67.8333 38.4339 67.8333 39.0417V45.9167Z" fill="white"/>
</svg>
