<svg width="100" height="100" viewBox="0 0 100 100" fill="none" xmlns="http://www.w3.org/2000/svg">
<circle cx="50" cy="50" r="50" fill="#B96D70"/>
<path d="M61.27 37.6666L50.7834 27.2166C50.441 26.8715 49.9756 26.6764 49.4895 26.6743C49.0033 26.6723 48.5363 26.8634 48.191 27.2056L48.18 27.2166L37.73 37.6666H27.5C27.0138 37.6666 26.5475 37.8598 26.2037 38.2036C25.8598 38.5474 25.6667 39.0137 25.6667 39.4999V72.4999C25.6667 72.9862 25.8598 73.4525 26.2037 73.7963C26.5475 74.1401 27.0138 74.3333 27.5 74.3333H71.5C71.9862 74.3333 72.4526 74.1401 72.7964 73.7963C73.1402 73.4525 73.3334 72.9862 73.3334 72.4999V39.4999C73.3334 39.0137 73.1402 38.5474 72.7964 38.2036C72.4526 37.8598 71.9862 37.6666 71.5 37.6666H61.27ZM49.5 31.1033L56.0634 37.6666H42.9367L49.5 31.1033ZM69.6667 70.6666H29.3334V41.3333H69.6667V70.6666ZM40.3334 52.3333C39.3609 52.3333 38.4283 51.947 37.7406 51.2593C37.053 50.5717 36.6667 49.6391 36.6667 48.6666C36.6667 47.6942 37.053 46.7615 37.7406 46.0739C38.4283 45.3863 39.3609 44.9999 40.3334 44.9999C41.3058 44.9999 42.2384 45.3863 42.9261 46.0739C43.6137 46.7615 44 47.6942 44 48.6666C44 49.6391 43.6137 50.5717 42.9261 51.2593C42.2384 51.947 41.3058 52.3333 40.3334 52.3333ZM66 66.9999H38.5L44 55.9999L48.5834 65.1666L56.8334 48.6666L66 66.9999Z" fill="white"/>
</svg>
