<svg width="101" height="123" viewBox="0 0 101 123" fill="none" xmlns="http://www.w3.org/2000/svg">
<path d="M50.3333 66.9584C59.515 66.9584 66.9583 59.5151 66.9583 50.3334C66.9583 41.1516 59.515 33.7084 50.3333 33.7084C41.1516 33.7084 33.7083 41.1516 33.7083 50.3334C33.7083 59.5151 41.1516 66.9584 50.3333 66.9584Z" stroke="white" stroke-width="11.0833" stroke-linecap="round" stroke-linejoin="round"/>
<path d="M50.3333 6C38.5754 6 27.299 10.6708 18.9849 18.9849C10.6708 27.299 6 38.5754 6 50.3333C6 60.8182 8.22775 67.6788 14.3125 75.2708L50.3333 116.833L86.3542 75.2708C92.4389 67.6788 94.6667 60.8182 94.6667 50.3333C94.6667 38.5754 89.9958 27.299 81.6817 18.9849C73.3676 10.6708 62.0913 6 50.3333 6V6Z" stroke="white" stroke-width="11.0833" stroke-linecap="round" stroke-linejoin="round"/>
</svg>
