<svg width="82" height="96" viewBox="0 0 82 96" fill="none" xmlns="http://www.w3.org/2000/svg">
<path d="M47.7785 45.8277C47.1878 45.8277 46.7611 45.7374 46.4985 45.5569C46.236 45.36 46.1047 45.0564 46.1047 44.6461C46.1047 44.3836 46.1539 44.08 46.2524 43.7354C46.5642 43.7846 46.8595 43.8174 47.1385 43.8338C47.4339 43.8502 47.7867 43.8584 48.197 43.8584C48.7221 43.8584 49.157 43.8584 49.5016 43.8584C49.8626 43.842 50.158 43.8256 50.3878 43.8092C50.6339 43.7928 50.8226 43.7846 50.9539 43.7846C51.1016 43.7682 51.2329 43.76 51.3478 43.76C51.7416 43.76 52.0288 43.9077 52.2093 44.2031C52.3898 44.482 52.5621 44.9661 52.7262 45.6554C52.2503 45.6061 51.8565 45.5733 51.5447 45.5569C51.2493 45.5405 50.9867 45.5323 50.757 45.5323C50.5929 45.5323 50.4452 45.5405 50.3139 45.5569C50.1826 45.5569 50.0595 45.5569 49.9447 45.5569C49.3703 46.4759 48.7057 47.4687 47.9508 48.5354C47.2124 49.5856 46.4083 50.5866 45.5385 51.5384C44.6852 52.4902 43.7908 53.3354 42.8554 54.0738C41.9201 54.8287 40.9847 55.3538 40.0493 55.6492C39.4093 55.5836 38.8267 55.4277 38.3016 55.1815C37.7765 54.9354 37.317 54.6236 36.9231 54.2461C36.5293 53.8851 36.2175 53.4666 35.9878 52.9907C35.758 52.4984 35.6267 51.9733 35.5939 51.4154C35.6103 50.6441 35.7662 49.881 36.0616 49.1261C36.3734 48.3548 36.7672 47.641 37.2431 46.9846C37.719 46.3282 38.2524 45.7374 38.8431 45.2123C39.4503 44.6872 40.0575 44.2687 40.6647 43.9569C40.0575 43.6943 39.6226 43.3825 39.3601 43.0215C39.1139 42.6605 38.9908 42.2666 38.9908 41.84C38.9908 41.2492 39.196 40.6338 39.6062 39.9938C40.0329 39.3374 40.558 38.7302 41.1816 38.1723C41.8052 37.6143 42.4698 37.1384 43.1754 36.7446C43.8975 36.3343 44.5539 36.08 45.1447 35.9815C45.3088 36.0143 45.5385 36.121 45.8339 36.3015C46.1457 36.4656 46.4493 36.6707 46.7447 36.9169C47.0401 37.1631 47.3026 37.4174 47.5324 37.68C47.7785 37.9261 47.918 38.1395 47.9508 38.32C47.918 38.5169 47.8442 38.7384 47.7293 38.9846C47.6308 39.2307 47.4995 39.4769 47.3354 39.7231C47.1713 39.9528 46.999 40.1743 46.8185 40.3877C46.638 40.601 46.4575 40.7733 46.277 40.9046C46.1129 40.8554 46.0144 40.7733 45.9816 40.6584C46.1785 40.4615 46.3672 40.1825 46.5478 39.8215C46.7283 39.4441 46.8185 39.0913 46.8185 38.7631C46.8185 38.5825 46.7775 38.4677 46.6954 38.4184C46.6134 38.3528 46.4821 38.32 46.3016 38.32C45.8421 38.32 45.3334 38.5005 44.7754 38.8615C44.2175 39.2225 43.6924 39.6738 43.2001 40.2154C42.7242 40.7569 42.3221 41.3395 41.9939 41.9631C41.6657 42.5702 41.5016 43.1282 41.5016 43.6369C41.6821 43.6533 41.8954 43.7107 42.1416 43.8092C42.4042 43.8913 42.6585 43.9979 42.9047 44.1292C43.1508 44.2605 43.3642 44.4 43.5447 44.5477C43.7416 44.6954 43.8647 44.8266 43.9139 44.9415C43.1098 45.1384 42.3631 45.5241 41.6739 46.0984C41.0011 46.6728 40.4185 47.3292 39.9262 48.0677C39.4339 48.8061 39.0483 49.5774 38.7693 50.3815C38.5067 51.1856 38.3754 51.9077 38.3754 52.5477C38.3754 53.122 38.4985 53.5979 38.7447 53.9754C38.9908 54.3364 39.3765 54.5169 39.9016 54.5169C40.3447 54.5169 40.8206 54.3692 41.3293 54.0738C41.8544 53.7948 42.3878 53.4174 42.9293 52.9415C43.4872 52.4492 44.037 51.8995 44.5785 51.2923C45.1365 50.6687 45.6698 50.0369 46.1785 49.3969C46.7037 48.7405 47.1878 48.1005 47.6308 47.4769C48.0903 46.8369 48.5006 46.2543 48.8616 45.7292C48.7139 45.762 48.5498 45.7866 48.3693 45.803C48.2052 45.8195 48.0083 45.8277 47.7785 45.8277Z" fill="white"/>
<path d="M38.8923 17.8739C38.8923 19.9087 38.3343 21.7303 37.2184 23.3385C36.1026 24.9139 34.5764 26.2267 32.64 27.2769C33.8872 28.1303 34.8718 29.1805 35.5938 30.4277C36.3487 31.6421 36.7261 32.9877 36.7261 34.4646C36.7261 36.2369 36.1846 37.9928 35.1015 39.7323C34.0513 41.439 32.64 42.9651 30.8677 44.3108C29.0954 45.6236 27.0769 46.6903 24.8123 47.5108C22.5477 48.3313 20.2338 48.7415 17.8708 48.7415C15.3108 48.7415 13.0626 48.2492 11.1261 47.2646C9.22256 46.3128 7.72923 44.9508 6.64615 43.1785C6.97436 42.1938 7.40102 40.9795 7.92615 39.5354C8.4841 38.0585 9.09128 36.5159 9.74769 34.9077C10.4041 33.2667 11.0605 31.6421 11.7169 30.0339C12.4061 28.4256 13.0461 26.9815 13.6369 25.7015C14.8841 22.9118 16 20.598 16.9846 18.76C17.9692 16.9221 18.8718 15.4615 19.6923 14.3785C17.8872 14.9364 16.2461 15.5764 14.7692 16.2985C13.2923 16.9877 12.2092 17.6605 11.52 18.3169C11.2246 18.12 10.9128 17.8246 10.5846 17.4308C10.2892 17.0369 9.99384 16.6103 9.69846 16.1508C9.43589 15.6585 9.20615 15.1662 9.00923 14.6739C8.84512 14.1815 8.74666 13.7385 8.71384 13.3446C9.56718 12.7539 10.6667 12.1959 12.0123 11.6708C13.3908 11.1128 14.8841 10.6369 16.4923 10.2431C18.1005 9.84924 19.7415 9.53745 21.4154 9.30771C23.122 9.07796 24.7467 8.96309 26.2892 8.96309C30.2277 8.96309 33.3128 9.75078 35.5446 11.3262C37.7764 12.9016 38.8923 15.0841 38.8923 17.8739ZM20.1354 29.64C19.5118 29.3446 18.9374 28.9015 18.4123 28.3108C17.6574 29.9846 16.9354 31.6256 16.2461 33.2339C15.5897 34.8421 14.999 36.3354 14.4738 37.7138C13.9487 39.0923 13.522 40.2903 13.1938 41.3077C12.8656 42.3251 12.6851 43.0636 12.6523 43.5231C13.1118 43.7856 13.6533 43.9826 14.2769 44.1138C14.9333 44.2451 15.7374 44.3108 16.6892 44.3108C18.921 44.3108 21.0543 43.999 23.0892 43.3754C25.1241 42.7518 26.9128 41.9149 28.4554 40.8646C29.9979 39.7815 31.2287 38.5508 32.1477 37.1723C33.0667 35.7938 33.5261 34.3497 33.5261 32.84C33.5261 30.6739 32.5908 29.1149 30.72 28.1631C28.16 29.2133 25.2718 29.7385 22.0554 29.7385C21.5959 29.7385 21.2349 29.7385 20.9723 29.7385C20.7426 29.7385 20.4636 29.7056 20.1354 29.64ZM29.6861 12.5569C28.9969 12.5569 28.2584 12.6062 27.4708 12.7046C26.7159 12.7703 25.9118 12.8851 25.0585 13.0492C25.1897 13.1805 25.2882 13.3282 25.3538 13.4923C25.4523 13.6236 25.5343 13.7713 25.6 13.9354C25.3046 14.3292 24.9436 14.9036 24.5169 15.6585C24.0902 16.4133 23.6143 17.2995 23.0892 18.3169C22.5641 19.3015 22.0061 20.401 21.4154 21.6154C20.8574 22.8298 20.2831 24.0769 19.6923 25.3569C20.2502 25.2256 20.9231 25.1272 21.7108 25.0615C22.5313 24.9631 23.3354 24.9139 24.1231 24.9139C24.5497 24.9139 24.96 24.9303 25.3538 24.9631C25.7805 24.9959 26.1908 25.0451 26.5846 25.1108C28.16 24.8482 29.5713 24.4708 30.8185 23.9785C32.0984 23.4533 33.1979 22.8626 34.1169 22.2062C35.0359 21.5169 35.7415 20.7621 36.2338 19.9415C36.7261 19.121 36.9723 18.2513 36.9723 17.3323C36.9723 15.7569 36.3487 14.5754 35.1015 13.7877C33.8543 12.9672 32.0492 12.5569 29.6861 12.5569Z" fill="white"/>
<path d="M56.5662 57.0123C55.2534 57.0123 54.236 56.6513 53.5139 55.9293C52.8247 55.1744 52.4801 54.2718 52.4801 53.2216C52.4801 52.959 52.5129 52.6472 52.5786 52.2862C52.677 51.9251 52.7919 51.6134 52.9232 51.3508C53.3498 51.5477 53.9734 51.6954 54.7939 51.7939C55.6473 51.8595 56.6319 51.8923 57.7478 51.8923C59.4216 51.8923 61.3088 51.8267 63.4093 51.6954C65.5427 51.5313 67.5775 51.3672 69.5139 51.2031C71.4503 51.039 73.157 50.8913 74.6339 50.76C76.1109 50.5959 77.0626 50.5139 77.4893 50.5139C78.7037 50.5139 79.5734 50.9734 80.0985 51.8923C80.6565 52.7785 81.0667 53.9764 81.3293 55.4862C80.476 55.4205 79.6226 55.3713 78.7693 55.3385C77.9488 55.2728 77.2432 55.24 76.6524 55.24C75.6021 55.24 74.5355 55.2728 73.4524 55.3385C72.4021 55.4041 71.3355 55.5026 70.2524 55.6339C69.7929 56.5857 69.2842 57.718 68.7262 59.0308C68.1683 60.3108 67.6103 61.6564 67.0524 63.0677C66.5273 64.479 66.0186 65.8903 65.5262 67.3016C65.0339 68.68 64.6073 69.9272 64.2462 71.0431C63.5242 73.2092 62.8842 75.2113 62.3262 77.0492C61.8011 78.8872 61.3252 80.6103 60.8986 82.2185C60.5047 83.7939 60.1601 85.3036 59.8647 86.7477C59.5693 88.1918 59.3068 89.6031 59.077 90.9815C56.878 90.6533 55.0401 89.2749 53.5632 86.8462C53.8257 85.8287 54.1375 84.7292 54.4986 83.5477C54.8924 82.3333 55.3355 80.9713 55.8278 79.4615C56.3529 77.919 56.9601 76.1795 57.6493 74.2431C58.3386 72.3067 59.1262 70.1077 60.0124 67.6462C60.3406 66.7272 60.6852 65.7754 61.0462 64.7908C61.4073 63.7733 61.7519 62.7723 62.0801 61.7877C62.4411 60.8031 62.7529 59.8513 63.0155 58.9323C63.3109 58.0134 63.557 57.1764 63.7539 56.4216C62.3755 56.5857 61.0627 56.7334 59.8155 56.8646C58.6011 56.9631 57.518 57.0123 56.5662 57.0123Z" fill="white"/>
</svg>
