<svg width="204" height="86" viewBox="0 0 204 86" fill="none" xmlns="http://www.w3.org/2000/svg">
<g clip-path="url(#clip0)">
<path fill-rule="evenodd" clip-rule="evenodd" d="M156.283 58.625C156.938 55.8429 158.083 56.0065 158.901 58.9523C159.883 61.898 159.229 64.8437 157.756 67.6258C156.447 64.8437 155.628 61.5707 156.283 58.625ZM81.1669 58.134C74.9482 51.2607 69.0567 43.7327 64.1472 35.8774C59.8923 29.1677 59.074 19.3486 63.3289 12.3116C66.7656 6.58383 73.4753 3.80176 80.0214 4.94732C88.2039 6.25653 94.259 12.3116 98.023 19.3486C98.023 19.8396 98.3503 20.3305 98.6776 20.6578C99.6595 21.6398 101.296 21.3125 102.114 20.3305C102.278 20.1669 102.605 19.8396 102.605 19.5123C107.351 8.05669 122.571 2.3289 133.863 7.72939C140.409 10.8388 143.027 17.3848 142.536 24.4218C142.045 33.9136 135.663 41.1143 130.099 48.3149C124.207 56.0065 117.498 63.2072 109.97 69.2623C107.187 71.3898 104.405 73.1899 101.46 74.6628C93.6044 70.8988 87.0584 64.3528 81.1669 58.134ZM44.0181 64.1891C43.8544 63.2072 43.1998 57.6431 45 56.8248C47.2911 55.6792 47.1274 61.5707 46.9638 62.5526C46.6365 64.3528 46.1455 65.9893 45.4909 67.6258C44.8363 66.6439 44.3454 65.4983 44.0181 64.1891ZM201.123 57.9704C199.651 55.3519 195.723 57.8067 197.196 60.4251C202.596 69.9169 191.304 79.0814 182.794 80.8815C174.121 82.8454 165.447 79.0814 160.211 72.0444C162.338 69.5896 163.647 66.4802 163.975 63.2072C164.302 59.4432 163.156 53.2245 159.065 51.588C155.465 50.1151 152.846 53.5518 151.864 56.8248C150.719 61.5707 152.028 66.8075 154.155 71.0625C154.319 71.2261 154.319 71.3898 154.483 71.5534C147.937 77.7722 136.481 80.7179 128.626 80.7179C121.425 80.8815 113.734 79.4087 106.697 76.9539C109.97 74.9901 113.079 72.8626 116.188 70.0806C126.335 61.407 134.517 50.606 142.209 39.6414C147.937 31.2952 149.573 18.5304 143.518 9.85686C132.881 -5.19907 109.642 0.528731 100.314 14.1118C95.8956 7.23844 89.1858 1.67429 80.8396 0.365079C73.148 -0.944132 65.2927 1.83794 60.5469 8.22034C54.4918 16.2393 54.4918 28.6768 59.4013 37.1866C65.7837 48.3149 74.9482 59.1159 84.1127 67.6258C88.0403 71.2261 92.1316 74.3355 96.3865 76.7903C92.9498 77.9358 89.3495 78.9177 85.5855 79.5723C74.7845 81.5362 64.6381 80.3906 54.6554 75.3174C52.5279 74.3355 50.5641 73.0263 48.764 71.5534C50.4005 68.6077 51.3824 65.171 51.7097 61.898C51.8733 58.2977 50.8914 53.0608 46.9638 51.7516C42.5452 50.1151 40.0904 55.3519 39.4358 58.7886C38.4539 63.5345 39.9268 68.444 42.8725 72.208C38.7812 77.7722 32.0715 81.3725 25.1982 81.3725C15.5427 81.3725 -0.658746 71.8807 6.05096 60.4251C7.52382 57.8067 3.43254 55.3519 1.95968 57.9704C-4.09542 68.6077 4.74175 79.8996 14.5608 83.9909C25.3618 88.4095 37.7993 85.4638 45.3273 76.463C45.6546 76.1357 45.8182 75.8084 46.1455 75.4811C55.6373 83.8273 70.5296 86.4457 82.4761 84.8092C89.3495 83.8273 95.7319 82.1908 101.623 79.5723C106.369 81.6998 111.442 83.1727 117.007 84.1546C130.262 86.6094 144.336 84.6455 155.465 76.6266C155.956 76.2993 156.447 75.972 156.938 75.4811C163.484 83.9909 174.775 87.9186 185.413 85.1365C196.377 82.0271 207.997 69.7533 201.123 57.9704Z" fill="#EEC46B"/>
</g>
<defs>
<clipPath id="clip0">
<rect width="203.255" height="86" fill="white"/>
</clipPath>
</defs>
</svg>
