<?xml version="1.0" encoding="UTF-8"?>
<!DOCTYPE svg PUBLIC "-//W3C//DTD SVG 1.1//EN" "http://www.w3.org/Graphics/SVG/1.1/DTD/svg11.dtd">
<!-- Creator: CorelDRAW X7 -->
<svg xmlns="http://www.w3.org/2000/svg" xml:space="preserve" width="8.38159in" height="0.885031in" version="1.1" style="shape-rendering:geometricPrecision; text-rendering:geometricPrecision; image-rendering:optimizeQuality; fill-rule:evenodd; clip-rule:evenodd"
viewBox="0 0 2495 263"
 xmlns:xlink="http://www.w3.org/1999/xlink">
 <defs>
  <style type="text/css">
   <![CDATA[
    .fil0 {fill:#231F20}
   ]]>
  </style>
 </defs>
 <g id="Layer_x0020_1">
  <metadata id="CorelCorpID_0Corel-Layer"/>
  <path class="fil0" d="M1930 109c-17,-5 -34,-10 -51,-16 38,-32 80,-33 124,-24 0,1 1,1 2,1 20,5 41,12 56,27 15,15 21,36 19,56 -51,-11 -101,-28 -150,-44zm-222 92c-2,2 -4,3 -6,4 -29,18 -61,2 -85,-18 -10,-8 -19,-18 -28,-28 1,0 1,0 2,0 34,17 76,37 117,42zm766 -9c-8,16 -21,27 -36,35 13,-18 21,-44 10,-64 -11,-21 -44,-26 -64,-17 -24,11 -23,37 -9,55 8,11 28,0 19,-11 -15,-21 10,-29 25,-23 18,7 12,27 5,40 -11,21 -31,32 -54,34 0,0 0,0 0,0 -14,0 -26,-2 -38,-5 -41,-10 -79,-30 -114,-52 77,-10 143,-51 192,-111 9,-11 -7,-27 -16,-15 -49,59 -115,99 -193,106 -5,0 -11,0 -16,0 -2,0 -4,0 -6,0 -26,1 -51,-2 -77,-6 2,-17 -1,-34 -7,-49 -3,-6 -6,-11 -9,-16 25,8 50,15 74,17 43,4 92,9 123,-28 16,-19 31,-62 5,-80 -12,-8 -23,11 -11,19 2,2 2,15 2,18 -1,12 -8,24 -16,32 -18,19 -40,19 -64,19 -51,-1 -95,-13 -143,-29 -71,-24 -144,-32 -201,24 -63,-20 -127,-41 -191,-57 -71,-18 -147,-26 -215,5 -46,20 -83,53 -112,92 -17,21 -29,48 -43,69 -4,6 0,13 6,15 5,5 13,5 16,-2 6,-15 14,-29 22,-42 7,-11 14,-22 22,-32 18,-22 45,-28 72,-28 28,1 55,8 81,18 1,1 2,1 3,2 39,12 58,56 88,80 29,24 65,40 101,24 13,-6 24,-15 32,-26 30,-2 58,-14 78,-45 8,-12 -11,-23 -19,-12 -12,19 -29,29 -47,33 4,-11 4,-23 0,-35 -9,-30 -49,-51 -75,-29 -11,10 5,25 16,16 8,-7 25,1 31,7 7,8 9,18 8,28 0,5 -2,10 -4,15 -20,-1 -42,-7 -61,-14 -45,-16 -86,-40 -130,-59 -4,-2 -8,-3 -12,-5 0,0 0,0 0,0 -2,-1 -4,-1 -6,-2 -34,-13 -73,-22 -110,-17 16,-12 33,-23 51,-31 78,-34 164,-16 243,8 87,26 175,54 262,82 37,11 74,23 112,31 -9,23 -28,45 -55,44 -12,-1 -29,-7 -38,-15 -11,-11 -11,-24 -8,-38 4,-14 -18,-20 -21,-6 -8,34 4,59 36,73 33,14 72,6 94,-23 7,-9 12,-19 15,-30 28,5 55,8 83,8 53,33 109,68 172,75 53,6 115,-9 141,-59 7,-13 -12,-24 -19,-11z"/>
  <path class="fil0" d="M878 187c-23,20 -56,36 -85,18 -2,-1 -4,-2 -6,-4 40,-5 83,-25 117,-42 0,0 1,0 2,0 -9,10 -18,20 -28,28zm-463 -34c-2,-19 3,-39 17,-54 15,-16 37,-23 58,-29 1,0 1,0 2,-1 44,-9 86,-8 124,24 -6,2 -12,4 -18,6 -60,19 -121,41 -183,54zm744 -26c-24,-33 -54,-62 -90,-83 -63,-36 -135,-38 -205,-24 -76,15 -150,41 -224,65 -57,-57 -130,-48 -201,-24 -46,15 -90,28 -139,29 -24,0 -48,1 -66,-17 -9,-8 -16,-20 -18,-31 0,-4 -1,-18 2,-21 12,-8 1,-27 -11,-19 -25,17 -12,59 3,78 30,39 80,34 125,30 24,-2 49,-9 74,-17 -3,4 -5,8 -7,12 -8,17 -11,35 -9,53 -22,3 -44,6 -66,6 -4,1 -8,0 -12,0 -1,0 -3,0 -5,0 -83,-2 -156,-41 -209,-106 -9,-12 -25,4 -16,15 45,55 105,95 175,108 6,2 12,2 17,3 -36,22 -73,42 -114,52 -12,3 -25,5 -37,5 -1,0 -1,0 -1,0 -23,-2 -43,-13 -54,-34 -6,-11 -12,-30 1,-39 4,-3 13,-4 18,-3 9,-2 13,1 12,10 4,6 3,11 -1,15 -9,11 10,22 19,11 13,-18 15,-44 -9,-55 -20,-9 -53,-4 -64,17 -12,20 -3,46 10,64 -15,-8 -28,-19 -36,-35 -7,-13 -26,-2 -20,11 27,50 89,65 142,59 63,-7 119,-42 173,-75 27,0 54,-3 81,-8 4,11 9,21 16,30 21,27 58,37 90,25 35,-14 48,-39 40,-75 -3,-14 -25,-8 -21,6 6,29 -12,47 -40,52 -29,4 -52,-18 -62,-43 26,-5 51,-12 76,-20 88,-26 175,-55 262,-82 82,-25 172,-54 257,-27 27,8 52,22 73,39 -36,-5 -76,4 -109,17 -2,1 -4,1 -6,2 0,0 0,0 0,0 -4,2 -8,3 -12,5 -43,18 -83,42 -126,58 -21,7 -43,14 -65,15 -2,-3 -3,-6 -4,-9 -4,-18 17,-60 39,-41 11,9 27,-6 16,-16 -26,-22 -64,-1 -75,28 -4,12 -4,24 0,36 -18,-4 -35,-14 -47,-33 -8,-11 -27,0 -19,12 20,31 48,43 78,45 8,11 19,20 32,26 34,15 70,1 98,-21 16,-13 30,-28 43,-44 13,-17 26,-32 48,-39 1,-1 2,-1 2,-2 25,-10 51,-17 78,-18 28,-1 57,5 76,28 6,8 12,16 18,25 10,15 18,32 26,49 3,7 11,7 16,2 6,-2 10,-9 6,-15 -13,-21 -26,-46 -42,-67z"/>
 </g>
</svg>
