<svg width="338" height="37" viewBox="0 0 338 37" fill="none" xmlns="http://www.w3.org/2000/svg">
<g clip-path="url(#clip0)">
<path fill-rule="evenodd" clip-rule="evenodd" d="M261.457 15.6109C259.154 14.9336 256.851 14.2562 254.548 13.4434C259.696 9.10832 265.386 8.97285 271.346 10.1921C271.346 10.3276 271.482 10.3276 271.617 10.3276C274.327 11.0049 277.172 11.9532 279.204 13.9853C281.236 16.0173 282.049 18.8622 281.778 21.5716C274.869 20.0815 268.095 17.7785 261.457 15.6109ZM231.383 28.0743C231.112 28.3452 230.841 28.4807 230.57 28.6161C226.641 31.0546 222.306 28.8871 219.055 26.1777C217.7 25.0939 216.481 23.7392 215.262 22.3845C215.397 22.3845 215.397 22.3845 215.532 22.3845C220.138 24.6875 225.828 27.3969 231.383 28.0743ZM335.153 26.855C334.07 29.0226 332.308 30.5127 330.276 31.5965C332.037 29.158 333.121 25.6358 331.631 22.9264C330.141 20.0815 325.67 19.4041 322.961 20.6234C319.71 22.1135 319.845 25.6358 321.742 28.0743C322.825 29.5644 325.535 28.0743 324.316 26.5841C322.284 23.7392 325.67 22.6554 327.702 23.4682C330.141 24.4165 329.328 27.126 328.38 28.8871C326.89 31.732 324.18 33.2221 321.064 33.4931C319.168 33.4931 317.542 33.2221 315.916 32.8157C310.362 31.461 305.214 28.7516 300.473 25.7712C310.904 24.4165 319.845 18.8622 326.483 10.734C327.702 9.24379 325.535 7.07626 324.316 8.70191C317.678 16.6947 308.736 22.1135 298.17 23.0618C297.492 23.0618 296.68 23.0618 296.002 23.0618C295.731 23.0618 295.46 23.0618 295.189 23.0618C291.667 23.1973 288.28 22.7909 284.758 22.249C285.029 19.946 284.623 17.643 283.81 15.6109C283.403 14.7981 282.997 14.1207 282.591 13.4434C285.977 14.5272 289.364 15.4755 292.615 15.7464C298.441 16.2883 305.079 16.9656 309.278 11.9532C311.446 9.37926 313.478 3.55401 309.956 1.11554C308.33 0.0317689 306.84 2.60572 308.466 3.68948C308.736 3.96043 308.736 5.72155 308.736 6.12796C308.601 7.75361 307.653 9.37926 306.569 10.463C304.13 13.037 301.15 13.037 297.899 13.037C290.99 12.9015 285.029 11.2759 278.526 9.10832C268.908 5.85702 259.019 4.77325 251.297 12.3596C242.762 9.65021 234.092 6.80532 225.422 4.63778C215.803 2.1993 205.508 1.11554 196.296 5.31514C190.064 8.02455 185.051 12.4951 181.123 17.7785C178.82 20.6234 177.194 24.2811 175.298 27.126C174.756 27.9388 175.298 28.8871 176.11 29.158C176.788 29.8354 177.872 29.8354 178.278 28.8871C179.091 26.855 180.175 24.9584 181.258 23.1973C182.207 21.7071 183.155 20.2169 184.239 18.8622C186.677 15.8819 190.335 15.069 193.993 15.069C197.786 15.2045 201.443 16.1528 204.966 17.5075C205.101 17.643 205.237 17.643 205.372 17.7785C210.656 19.4041 213.229 25.3648 217.294 28.6161C221.222 31.8674 226.099 34.035 230.976 31.8674C232.737 31.0546 234.227 29.8354 235.311 28.3452C239.375 28.0743 243.169 26.4486 245.878 22.249C246.962 20.6234 244.388 19.1332 243.304 20.6234C241.678 23.1973 239.375 24.552 236.937 25.0939C237.479 23.6037 237.479 21.9781 236.937 20.3524C235.718 16.2883 230.299 13.4434 226.777 16.4238C225.286 17.7785 227.454 19.8105 228.944 18.5913C230.028 17.643 232.331 18.7268 233.144 19.5396C234.092 20.6234 234.363 21.9781 234.227 23.3328C234.227 24.0101 233.957 24.6875 233.686 25.3648C230.976 25.2294 227.996 24.4165 225.422 23.4682C219.326 21.3007 213.771 18.0494 207.811 15.4755C207.269 15.2045 206.727 15.069 206.185 14.7981C205.914 14.6626 205.643 14.6626 205.372 14.5272C200.766 12.766 195.483 11.5468 190.47 12.2242C192.638 10.5985 194.941 9.10832 197.379 8.02455C207.946 3.41854 219.597 5.85702 230.299 9.10832C242.085 12.6306 254.006 16.4238 265.792 20.2169C270.805 21.7071 275.817 23.3328 280.965 24.4165C279.746 27.5324 277.172 30.5127 273.514 30.3773C271.888 30.2418 269.585 29.429 268.366 28.3452C266.876 26.855 266.876 25.0939 267.282 23.1973C267.824 21.3007 264.844 20.4879 264.437 22.3845C263.354 26.9905 264.979 30.3773 269.314 32.2739C273.785 34.1704 279.068 33.0867 282.049 29.158C282.997 27.9388 283.674 26.5841 284.081 25.0939C287.874 25.7712 291.532 26.1777 295.325 26.1777C302.505 30.6482 310.091 35.3897 318.626 36.338C325.806 37.1508 334.205 35.1187 337.727 28.3452C338.676 26.5841 336.102 25.0939 335.153 26.855Z" fill="#EEC46B"/>
<path fill-rule="evenodd" clip-rule="evenodd" d="M118.943 26.1808C115.827 28.8903 111.357 31.0578 107.428 28.6193C107.157 28.4838 106.886 28.3484 106.615 28.0774C112.034 27.4001 117.859 24.6907 122.465 22.3876C122.465 22.3876 122.601 22.3876 122.736 22.3876C121.517 23.7424 120.298 25.0971 118.943 26.1808ZM56.2201 21.5748C55.9492 19.0009 56.6265 16.2915 58.5231 14.2594C60.5552 12.0919 63.5355 11.1436 66.3804 10.3307C66.5159 10.3307 66.5159 10.3307 66.6514 10.1953C72.6121 8.97603 78.3019 9.1115 83.4498 13.4466C82.6369 13.7175 81.8241 13.9885 81.0113 14.2594C72.883 16.8333 64.6193 19.8137 56.2201 21.5748ZM157.01 18.0526C153.759 13.582 149.695 9.65338 144.818 6.80849C136.283 1.93154 126.53 1.66059 117.047 3.55719C106.751 5.58925 96.7259 9.1115 86.7011 12.3628C78.9792 4.64096 69.0899 5.86019 59.4714 9.1115C53.2398 11.1436 47.279 12.9047 40.641 13.0402C37.3897 13.0402 34.1384 13.1756 31.6999 10.7371C30.4806 9.65338 29.5323 8.02773 29.2614 6.53755C29.2614 5.99566 29.1259 4.09907 29.5323 3.69266C31.158 2.60889 29.6678 0.0349427 28.0422 1.11871C24.6554 3.42172 26.4165 9.1115 28.4486 11.6854C32.5127 16.9688 39.2862 16.2915 45.3824 15.7496C48.6337 15.4786 52.0205 14.5303 55.4073 13.4466C55.0009 13.9885 54.7299 14.5303 54.459 15.0722C53.3752 17.3752 52.9688 19.8137 53.2398 22.2522C50.2594 22.6586 47.279 23.065 44.2987 23.065C43.7568 23.2005 43.2149 23.065 42.673 23.065C42.5376 23.065 42.2666 23.065 41.9957 23.065C30.7516 22.7941 20.8622 17.5107 13.6822 8.70508C12.463 7.07943 10.2955 9.24697 11.5147 10.7371C17.6109 18.188 25.7392 23.6069 35.2221 25.368C36.0349 25.639 36.8478 25.639 37.5251 25.7744C32.6482 28.7548 27.6357 31.4642 22.0814 32.8189C20.4558 33.2253 18.6947 33.4963 17.069 33.4963C16.9335 33.4963 16.9335 33.4963 16.9335 33.4963C13.8177 33.2253 11.1083 31.7351 9.61811 28.8903C8.80528 27.4001 7.99246 24.8261 9.75358 23.6069C10.2955 23.2005 11.5147 23.065 12.1921 23.2005C13.4113 22.9295 13.9532 23.3359 13.8177 24.5552C14.3596 25.368 14.2241 26.0454 13.6822 26.5872C12.463 28.0774 15.0369 29.5676 16.2562 28.0774C18.0173 25.639 18.2882 22.1167 15.0369 20.6265C12.3275 19.4073 7.85699 20.0846 6.36681 22.9295C4.74116 25.639 5.96039 29.1612 7.72152 31.5997C5.68945 30.5159 3.92833 29.0257 2.84456 26.8582C1.89627 25.0971 -0.677682 26.5872 0.135144 28.3484C3.79286 35.1219 12.1921 37.154 19.372 36.3412C27.9067 35.3929 35.4931 30.6514 42.8085 26.1808C46.4662 26.1808 50.1239 25.7744 53.7816 25.0971C54.3235 26.5872 55.0009 27.942 55.9492 29.1612C58.7941 32.8189 63.8065 34.1736 68.1416 32.548C72.883 30.6514 74.6442 27.2646 73.5604 22.3876C73.154 20.4911 70.1736 21.3039 70.7155 23.2005C71.5283 27.1291 69.0899 29.5676 65.2967 30.245C61.368 30.7868 58.2522 27.8065 56.8975 24.4197C60.4197 23.7424 63.8065 22.7941 67.1933 21.7103C79.1147 18.188 90.9007 14.2594 102.687 10.6017C113.795 7.2149 125.988 3.28625 137.503 6.94396C141.16 8.02773 144.547 9.92432 147.392 12.2273C142.515 11.55 137.096 12.7692 132.626 14.5303C132.355 14.6658 132.084 14.6658 131.813 14.8013C131.271 15.0722 130.729 15.2077 130.187 15.4786C124.362 17.9171 118.943 21.1684 113.118 23.3359C110.273 24.2842 107.293 25.2325 104.312 25.368C104.041 24.9616 103.906 24.5552 103.77 24.1488C103.229 21.7103 106.073 16.0205 109.054 18.5945C110.544 19.8137 112.711 17.7816 111.221 16.4269C107.699 13.4466 102.551 16.2915 101.061 20.2201C100.519 21.8458 100.519 23.4714 101.061 25.0971C98.6225 24.5552 96.3195 23.2005 94.6939 20.6265C93.6101 19.1363 91.0361 20.6265 92.1199 22.2522C94.8293 26.4518 98.6225 28.0774 102.687 28.3484C103.77 29.8386 105.261 31.0578 107.022 31.8706C111.628 33.9027 116.505 32.0061 120.298 29.0257C122.465 27.2646 124.362 25.2325 126.123 23.065C127.884 20.762 129.645 18.7299 132.626 17.7816C132.761 17.6462 132.897 17.6462 132.897 17.5107C136.283 16.156 139.806 15.2077 143.463 15.0722C147.257 14.9367 151.185 15.7496 153.759 18.8654C154.572 19.9492 155.385 21.0329 156.198 22.2522C157.552 24.2842 158.636 26.5872 159.72 28.8903C160.126 29.8386 161.21 29.8386 161.887 29.1612C162.7 28.8903 163.242 27.942 162.7 27.1291C160.939 24.2842 159.178 20.8975 157.01 18.0526Z" fill="#EEC46B"/>
</g>
<defs>
<clipPath id="clip0">
<rect width="338" height="35.6902" fill="white" transform="translate(0 0.815186)"/>
</clipPath>
</defs>
</svg>
